<mxfile host="app.diagrams.net" agent="Mozilla/5.0 (Macintosh; Intel Mac OS X 10_15_7) AppleWebKit/537.36 (KHTML, like Gecko) Chrome/133.0.0.0 Safari/537.36" version="26.1.0">
  <diagram name="Page-1" id="ba7-p5c-lFc_XvuuOSnf">
    <mxGraphModel dx="2533" dy="864" grid="1" gridSize="10" guides="1" tooltips="1" connect="1" arrows="1" fold="1" page="1" pageScale="1" pageWidth="827" pageHeight="1169" math="0" shadow="0">
      <root>
        <mxCell id="0" />
        <mxCell id="1" parent="0" />
        <mxCell id="ooKPWK_DovS1aeD83UMF-15" style="edgeStyle=orthogonalEdgeStyle;rounded=0;orthogonalLoop=1;jettySize=auto;html=1;entryX=0.024;entryY=0.548;entryDx=0;entryDy=0;entryPerimeter=0;" edge="1" parent="1" source="s8LqLsXQa88JxTWQ-div-1" target="ooKPWK_DovS1aeD83UMF-1">
          <mxGeometry relative="1" as="geometry">
            <mxPoint x="-240" y="260" as="targetPoint" />
          </mxGeometry>
        </mxCell>
        <mxCell id="s8LqLsXQa88JxTWQ-div-1" value="&lt;div&gt;API(http)&lt;/div&gt;" style="rounded=1;whiteSpace=wrap;html=1;aspect=fixed;sketch=0;dashed=0;whitespace=wrap;verticalLabelPosition=bottom;verticalAlign=top;fillColor=#2875E2;strokeColor=#ffffff;points=[[0.005,0.63,0],[0.1,0.2,0],[0.9,0.2,0],[0.5,0,0],[0.995,0.63,0],[0.72,0.99,0],[0.5,1,0],[0.28,0.99,0]];shape=mxgraph.kubernetes.icon2;kubernetesLabel=1;prIcon=api;" parent="1" vertex="1">
          <mxGeometry x="-460" y="110" width="120" height="60" as="geometry" />
        </mxCell>
        <mxCell id="s8LqLsXQa88JxTWQ-div-3" value="On Prem (SQL)" style="rounded=1;whiteSpace=wrap;html=1;shape=image;labelBackgroundColor=default;verticalAlign=top;verticalLabelPosition=bottom;sketch=0;aspect=fixed;points=[];image=img/lib/mscae/SQL_Servers.svg;" parent="1" vertex="1">
          <mxGeometry x="-450" y="360" width="140" height="70" as="geometry" />
        </mxCell>
        <mxCell id="ooKPWK_DovS1aeD83UMF-16" style="edgeStyle=orthogonalEdgeStyle;rounded=0;orthogonalLoop=1;jettySize=auto;html=1;" edge="1" parent="1" source="s8LqLsXQa88JxTWQ-div-4" target="ooKPWK_DovS1aeD83UMF-1">
          <mxGeometry relative="1" as="geometry" />
        </mxCell>
        <mxCell id="s8LqLsXQa88JxTWQ-div-4" value="CSV" style="rounded=1;whiteSpace=wrap;html=1;shape=image;verticalAlign=top;verticalLabelPosition=bottom;labelBackgroundColor=#ffffff;imageAspect=0;aspect=fixed;image=https://cdn3.iconfinder.com/data/icons/cad-database-presentation-spreadsheet-vector-fil-2/512/19-128.png;" parent="1" vertex="1">
          <mxGeometry x="-450" y="240" width="120" height="60" as="geometry" />
        </mxCell>
        <mxCell id="s8LqLsXQa88JxTWQ-div-10" style="edgeStyle=orthogonalEdgeStyle;rounded=0;orthogonalLoop=1;jettySize=auto;html=1;" parent="1" source="s8LqLsXQa88JxTWQ-div-5" target="s8LqLsXQa88JxTWQ-div-9" edge="1">
          <mxGeometry relative="1" as="geometry" />
        </mxCell>
        <mxCell id="s8LqLsXQa88JxTWQ-div-5" value="ADLS(Bronze)" style="rounded=1;whiteSpace=wrap;html=1;shape=image;labelBackgroundColor=default;verticalAlign=top;verticalLabelPosition=bottom;aspect=fixed;points=[];image=img/lib/azure2/storage/Storage_Accounts.svg;" parent="1" vertex="1">
          <mxGeometry x="30" y="244" width="120" height="60" as="geometry" />
        </mxCell>
        <mxCell id="ooKPWK_DovS1aeD83UMF-29" value="" style="edgeStyle=orthogonalEdgeStyle;rounded=0;orthogonalLoop=1;jettySize=auto;html=1;" edge="1" parent="1" source="s8LqLsXQa88JxTWQ-div-9" target="ooKPWK_DovS1aeD83UMF-28">
          <mxGeometry relative="1" as="geometry" />
        </mxCell>
        <mxCell id="s8LqLsXQa88JxTWQ-div-9" value="DATA Flow" style="rounded=1;whiteSpace=wrap;html=1;sketch=0;outlineConnect=0;fontColor=#232F3E;gradientColor=none;fillColor=#7AA116;strokeColor=none;dashed=0;verticalLabelPosition=bottom;verticalAlign=top;fontStyle=0;aspect=fixed;pointerEvents=1;shape=mxgraph.aws4.file_cache_hybrid_nfs_linked_datasets;" parent="1" vertex="1">
          <mxGeometry x="220" y="246" width="110" height="55" as="geometry" />
        </mxCell>
        <mxCell id="ooKPWK_DovS1aeD83UMF-31" style="edgeStyle=orthogonalEdgeStyle;rounded=0;orthogonalLoop=1;jettySize=auto;html=1;entryX=0;entryY=0.5;entryDx=0;entryDy=0;" edge="1" parent="1" source="s8LqLsXQa88JxTWQ-div-11" target="s8LqLsXQa88JxTWQ-div-13">
          <mxGeometry relative="1" as="geometry" />
        </mxCell>
        <mxCell id="s8LqLsXQa88JxTWQ-div-11" value="Silver layer(ADLS)" style="rounded=1;whiteSpace=wrap;html=1;shape=image;labelBackgroundColor=default;verticalAlign=top;verticalLabelPosition=bottom;aspect=fixed;points=[];image=img/lib/azure2/storage/Storage_Accounts.svg;" parent="1" vertex="1">
          <mxGeometry x="220" y="440" width="120" height="60" as="geometry" />
        </mxCell>
        <mxCell id="ooKPWK_DovS1aeD83UMF-33" value="" style="edgeStyle=orthogonalEdgeStyle;rounded=0;orthogonalLoop=1;jettySize=auto;html=1;" edge="1" parent="1" source="s8LqLsXQa88JxTWQ-div-13" target="ooKPWK_DovS1aeD83UMF-32">
          <mxGeometry relative="1" as="geometry" />
        </mxCell>
        <mxCell id="s8LqLsXQa88JxTWQ-div-13" value="Output(Azure SQL Database)" style="whiteSpace=wrap;html=1;rounded=1;shape=image;labelBackgroundColor=default;verticalAlign=top;verticalLabelPosition=bottom;aspect=fixed;points=[];image=img/lib/azure2/databases/SQL_Managed_Instance.svg;" parent="1" vertex="1">
          <mxGeometry x="380" y="440" width="120" height="60" as="geometry" />
        </mxCell>
        <mxCell id="ooKPWK_DovS1aeD83UMF-11" style="edgeStyle=orthogonalEdgeStyle;rounded=0;orthogonalLoop=1;jettySize=auto;html=1;" edge="1" parent="1" source="ooKPWK_DovS1aeD83UMF-1" target="s8LqLsXQa88JxTWQ-div-5">
          <mxGeometry relative="1" as="geometry" />
        </mxCell>
        <mxCell id="ooKPWK_DovS1aeD83UMF-22" value="" style="edgeStyle=orthogonalEdgeStyle;rounded=0;orthogonalLoop=1;jettySize=auto;html=1;" edge="1" parent="1" source="ooKPWK_DovS1aeD83UMF-1" target="ooKPWK_DovS1aeD83UMF-21">
          <mxGeometry relative="1" as="geometry" />
        </mxCell>
        <mxCell id="ooKPWK_DovS1aeD83UMF-1" value="" style="image;aspect=fixed;html=1;points=[];align=center;fontSize=12;image=img/lib/azure2/databases/Data_Factory.svg;" vertex="1" parent="1">
          <mxGeometry x="-110" y="240" width="70" height="70" as="geometry" />
        </mxCell>
        <mxCell id="ooKPWK_DovS1aeD83UMF-17" style="edgeStyle=orthogonalEdgeStyle;rounded=0;orthogonalLoop=1;jettySize=auto;html=1;entryX=0.024;entryY=0.949;entryDx=0;entryDy=0;entryPerimeter=0;" edge="1" parent="1" source="s8LqLsXQa88JxTWQ-div-3" target="ooKPWK_DovS1aeD83UMF-1">
          <mxGeometry relative="1" as="geometry" />
        </mxCell>
        <object label="" id="ooKPWK_DovS1aeD83UMF-18">
          <mxCell style="sketch=0;aspect=fixed;pointerEvents=1;shadow=0;dashed=0;html=1;strokeColor=none;labelPosition=center;verticalLabelPosition=bottom;verticalAlign=top;align=center;shape=mxgraph.mscae.enterprise.triggers;fillColor=#0078D7;" vertex="1" parent="1">
            <mxGeometry x="-70" y="381" width="47" height="50" as="geometry" />
          </mxCell>
        </object>
        <mxCell id="ooKPWK_DovS1aeD83UMF-19" style="edgeStyle=orthogonalEdgeStyle;rounded=0;orthogonalLoop=1;jettySize=auto;html=1;entryX=0.538;entryY=0.362;entryDx=0;entryDy=0;entryPerimeter=0;" edge="1" parent="1" source="ooKPWK_DovS1aeD83UMF-1" target="ooKPWK_DovS1aeD83UMF-18">
          <mxGeometry relative="1" as="geometry" />
        </mxCell>
        <mxCell id="ooKPWK_DovS1aeD83UMF-21" value="" style="shape=image;verticalLabelPosition=bottom;labelBackgroundColor=default;verticalAlign=top;aspect=fixed;imageAspect=0;image=https://mattruma.com/wp-content/uploads/2020/04/AzureFunctions.png;" vertex="1" parent="1">
          <mxGeometry x="-110" y="80" width="100" height="100" as="geometry" />
        </mxCell>
        <mxCell id="ooKPWK_DovS1aeD83UMF-28" value="" style="shape=image;verticalLabelPosition=bottom;labelBackgroundColor=default;verticalAlign=top;aspect=fixed;imageAspect=0;image=data:image/png,iVBORw0KGgoAAAANSUhEUgAAAjYAAAFCCAYAAADi7Zd/AAAMQGlDQ1BJQ0MgUHJvZmlsZQAASImVVwdYU8kWnluSkEBoAQSkhN4EASkBpITQQu8IohKSAKHEGAgq9rKo4NpFBWzoqohip9kRxcKi2PuCiIqyLhbsypsU0HVf+d5839z57z9n/nPm3Jl77wCgdoojEuWi6gDkCQvEscH+9HHJKXRSL0CBJqAAY+DI4eaLmNHR4QCWofbv5d1NgEjba/ZSrX/2/9eiwePncwFAoiFO5+Vz8yA+DABeyRWJCwAgSnmzqQUiKYYVaIlhgBAvluJMOa6U4nQ53i+ziY9lQdwCgJIKhyPOBED1CuTphdxMqKHaD7GjkCcQAqBGh9gnL28yD+I0iK2hjQhiqT4j/QedzL9ppg9rcjiZw1g+F1lRChDki3I50//PdPzvkpcrGfJhCatKljgkVjpnmLfbOZPDpFgF4j5hemQUxJoQfxDwZPYQo5QsSUiC3B414OazYM6ADsSOPE5AGMQGEAcJcyPDFXx6hiCIDTFcIeg0QQE7HmJdiBfz8wPjFDZbxJNjFb7Qugwxi6ngz3PEMr9SXw8lOQlMhf7rLD5boY+pFmXFJ0FMgdi8UJAYCbEqxA75OXFhCpuxRVmsyCEbsSRWGr85xLF8YbC/XB8rzBAHxSrsS/Lyh+aLbckSsCMV+GBBVnyIPD9YC5cjix/OBbvCFzIThnT4+ePCh+bC4wcEyueOPeMLE+IUOh9EBf6x8rE4RZQbrbDHTfm5wVLeFGKX/MI4xVg8sQAuSLk+niEqiI6Xx4kXZXNCo+Xx4CtAOGCBAEAHEljTwWSQDQTtffV98E7eEwQ4QAwyAR/YK5ihEUmyHiG8xoEi8CdEfJA/PM5f1ssHhZD/OszKr/YgQ9ZbKBuRA55AnAfCQC68l8hGCYe9JYLHkBH8wzsHVi6MNxdWaf+/54fY7wwTMuEKRjLkka42ZEkMJAYQQ4hBRBtcH/fBvfBwePWD1Rln4B5D8/huT3hC6CA8ItwgdBLuTBLMF/8UZQTohPpBilyk/5gL3BJquuL+uDdUh8q4Dq4P7HEX6IeJ+0LPrpBlKeKWZoX+k/bfZvDD01DYkR3JKHkE2Y9s/fNIVVtV12EVaa5/zI881vThfLOGe372z/oh+zzYhv1siS3GDmGt2GnsAnYMqwd07CTWgLVhx6V4eHU9lq2uIW+xsnhyoI7gH/6Gnqw0k/mONY69jl/kfQX8adJ3NGBNFk0XCzKzCuhM+EXg09lCrsMourOjsysA0u+L/PX1Jkb23UB02r5zC/4AwPvk4ODg0e9c6EkADrjD7d/4nbNmwE+HMgDnG7kScaGcw6UXAnxLqMGdpgeMgBmwhvNxBm7AC/iBQBAKokA8SAYTYfRZcJ2LwVQwE8wDxaAUrABrQTnYDLaBXWAvOAjqwTFwGpwDl8AVcAPcg6unB7wA/eAd+IwgCAmhIjREDzFGLBA7xBlhID5IIBKOxCLJSBqSiQgRCTITWYCUIquQcmQrUo0cQBqR08gFpAO5g3Qhvchr5BOKoSqoFmqIWqKjUQbKRMPQeHQCmolOQYvQhegydD1ahe5B69DT6CX0BtqJvkAHMIApYzqYCWaPMTAWFoWlYBmYGJuNlWBlWBVWizXB53wN68T6sI84EafhdNweruAQPAHn4lPw2fhSvBzfhdfhLfg1vAvvx78RqAQDgh3Bk8AmjCNkEqYSigllhB2EI4SzcC/1EN4RiUQdohXRHe7FZGI2cQZxKXEjcR/xFLGD2E0cIJFIeiQ7kjcpisQhFZCKSRtIe0gnSVdJPaQPSspKxkrOSkFKKUpCpflKZUq7lU4oXVV6qvSZrE62IHuSo8g88nTycvJ2chP5MrmH/JmiQbGieFPiKdmUeZT1lFrKWcp9yhtlZWVTZQ/lGGWB8lzl9cr7lc8rdyl/VNFUsVVhqaSqSFSWqexUOaVyR+UNlUq1pPpRU6gF1GXUauoZ6kPqB1WaqoMqW5WnOke1QrVO9arqSzWymoUaU22iWpFamdohtctqfepkdUt1ljpHfbZ6hXqj+i31AQ2ahpNGlEaexlKN3RoXNJ5pkjQtNQM1eZoLNbdpntHspmE0MxqLxqUtoG2nnaX1aBG1rLTYWtlapVp7tdq1+rU1tV20E7WnaVdoH9fu1MF0LHXYOrk6y3UO6tzU+TTCcARzBH/EkhG1I66OeK87UtdPl69bortP94buJz26XqBejt5KvXq9B/q4vq1+jP5U/U36Z/X7RmqN9BrJHVky8uDIuwaoga1BrMEMg20GbQYDhkaGwYYiww2GZwz7jHSM/IyyjdYYnTDqNaYZ+xgLjNcYnzR+TtemM+m59PX0Fnq/iYFJiInEZKtJu8lnUyvTBNP5pvtMH5hRzBhmGWZrzJrN+s2NzSPMZ5rXmN+1IFswLLIs1lm0Wry3tLJMslxkWW/5zErXim1VZFVjdd+aau1rPcW6yvq6DdGGYZNjs9Hmii1q62qbZVthe9kOtXOzE9httOsYRRjlMUo4qmrULXsVe6Z9oX2NfZeDjkO4w3yHeoeXo81Hp4xeObp19DdHV8dcx+2O95w0nUKd5js1Ob12tnXmOlc4Xx9DHRM0Zs6YhjGvXOxc+C6bXG670lwjXBe5Nrt+dXN3E7vVuvW6m7unuVe632JoMaIZSxnnPQge/h5zPI55fPR08yzwPOj5l5e9V47Xbq9nY63G8sduH9vtberN8d7q3elD90nz2eLT6Wviy/Gt8n3kZ+bH89vh95Rpw8xm7mG+9Hf0F/sf8X/P8mTNYp0KwAKCA0oC2gM1AxMCywMfBpkGZQbVBPUHuwbPCD4VQggJC1kZcottyOayq9n9oe6hs0JbwlTC4sLKwx6F24aLw5si0IjQiNUR9yMtIoWR9VEgih21OupBtFX0lOijMcSY6JiKmCexTrEzY1vjaHGT4nbHvYv3j18efy/BOkGS0JyolpiaWJ34PikgaVVS57jR42aNu5SsnyxIbkghpSSm7EgZGB84fu34nlTX1OLUmxOsJkybcGGi/sTciccnqU3iTDqURkhLStud9oUTxaniDKSz0yvT+7ks7jruC54fbw2vl+/NX8V/muGdsSrjWaZ35urM3izfrLKsPgFLUC54lR2SvTn7fU5Uzs6cwdyk3H15SnlpeY1CTWGOsGWy0eRpkztEdqJiUecUzylrp/SLw8Q78pH8CfkNBVrwR75NYi35RdJV6FNYUfhhauLUQ9M0pgmntU23nb5k+tOioKLfZuAzuDOaZ5rMnDezaxZz1tbZyOz02c1zzOYsnNMzN3jurnmUeTnzfp/vOH/V/LcLkhY0LTRcOHdh9y/Bv9QUqxaLi28t8lq0eTG+WLC4fcmYJRuWfCvhlVwsdSwtK/2ylLv04q9Ov67/dXBZxrL25W7LN60grhCuuLnSd+WuVRqrilZ1r45YXbeGvqZkzdu1k9ZeKHMp27yOsk6yrnN9+PqGDeYbVmz4Up5VfqPCv2JfpUHlksr3G3kbr27y21S72XBz6eZPWwRbbm8N3lpXZVlVto24rXDbk+2J21t/Y/xWvUN/R+mOrzuFOzt3xe5qqXavrt5tsHt5DVojqendk7rnyt6AvQ219rVb9+nsK90P9kv2Pz+QduDmwbCDzYcYh2oPWxyuPEI7UlKH1E2v66/Pqu9sSG7oaAxtbG7yajpy1OHozmMmxyqOax9ffoJyYuGJwZNFJwdOiU71nc483d08qfnemXFnrrfEtLSfDTt7/lzQuTOtzNaT573PH7vgeaHxIuNi/SW3S3Vtrm1Hfnf9/Ui7W3vdZffLDVc8rjR1jO04cdX36ulrAdfOXWdfv3Qj8kbHzYSbt2+l3uq8zbv97E7unVd3C+9+vjf3PuF+yQP1B2UPDR5W/WHzx75Ot87jXQFdbY/iHt3r5na/eJz/+EvPwifUJ2VPjZ9WP3N+dqw3qPfK8/HPe16IXnzuK/5T48/Kl9YvD//l91db/7j+nlfiV4Ovl77Re7Pzrcvb5oHogYfv8t59fl/yQe/Dro+Mj62fkj49/Tz1C+nL+q82X5u+hX27P5g3OCjiiDmyXwEMVjQjA4DXOwGgJgNAg+czynj5+U9WEPmZVYbAf8LyM6KsuAFQC//fY/rg380tAPZvh8cvqK+WCkA0FYB4D4COGTNch85qsnOltBDhOWBL8Nf0vHTwb4r8zPlD3D+3QKrqAn5u/wVJ5XxywIDs/AAAADhlWElmTU0AKgAAAAgAAYdpAAQAAAABAAAAGgAAAAAAAqACAAQAAAABAAACNqADAAQAAAABAAABQgAAAAASUfK3AABAAElEQVR4Aey9Z7MkOZKuh5RH61Oiq6v19MzO7K4tL+8aSaMZv/Az/wyNP4x/4ppdu0Yz7i7J3ZndmZ7uru7SdbRKnXxeRyAzIk6kPqIEoioSCAiHwxEn/U2HAyj9T//7/9nvlZedK1Vcv1xx167+tZTrCZQpXU8dm9KftcIoanfWtgThheFZ9/GQNgwDo0UdJE3JdD7UDqWzoQoV1U+VgsCEEqnCPnpjMhd34zvwEbStDvpOejknAu+HjocwdHXEaJRIt6Ljxlx1R9QP5FUi32Qqryh67+Nt/M7IdGFHppGOr5iIuojKhDTVTPM6fB6OTDp/mBoID3Mnjeek/IQiBK+3ElrLhtb2tIWzVYufPvq2JTGTWtL/4fNQjOn8YWoQ2DA3+du+9gdHCavGx7W8QEUh+SnyqWi60Hxxff/o/5DZYjrk9/luKw148fVIVIbxWBItLkvq9Qh79uwboCb5/vbJvqrq6talfN+Oc9RV/X7X0pXRd+APcIjK66kM0+VSz1Vdy60u9d33Xz90v//mofvH3+677z/fcHXq1KBXpUaZO31Vl9Z3Xa9Uh2BVpNJ5M8UnCi5FbewYp8pNG72bttMDpCEKgyUus3nK9VcIk8ck0LCNv5Q/qQwl0iyMJ2i5Nyn3j7/t/JimRy2fJ/GOHjM/TOPGc3Td9LB+/DJP93YYN8nN8K7P955nx9T+vtXwoN1s/sjxToa5P5aJKcdbIhi0P5THyBhkZyk+kg4Z1o1ZiH1wbWfHc5Hx7vf6rtftuZ4p+z76mjsAAhMkH1LcJs+cUHms1GquWq9lhiOAiEGi0fFPBj4GGRMitJuqOixMu56T5BOejcFQPgl9LsCB5+StMBq9btf3MaFYKpU9qCmnWjOSyCJpyThRNoLouy76C1DTbxvZvugbBgGmBBI9X6ZW7SIf5y46NffyuOX++qbhKtUl92Sr6nZXMcgkPKSDam1lC+xUI1NoaU5gA+XAS5r4uPjYv/txFfN5d9a2xJcWoY/7fufzlFoskSGF4nzfvdH1B92H0DgKg3KpyIcn8xTzIXpn/c6PqR85L/N8npgrHjNfK+SHTuTD4rqZUhC6t/GGkZlBlZiH4Wtf0JlOTfcwb9vTUQ+lsmOa/eGiMtl8PxqjRyQNg0MLw3CK8abw3fR7yFU69vG3nR9PRkzDomS78vmjx0yAptvuum6nY+Cmh5XBAXRModsr4uuWEKoBnlQTKlOurrja0op/pcjzVezTSnpMkXr2f1iBysSwENoYuKCqhfQ1gDGSzOoiqgHMEArYhL9l9UFAbmixUdEhsEmXE8hLX5aHpUbARqCmhDXG9BLd65fAIdxeAiXa6MBXx1VJKnNf0Oab07ZbA9hUK3W3Xl912wCboqt6ddG0RvoGauYENgkrRQ2MSst2d1Sp6dKHQz5d+fnaztfyz8MvwHT+KI6GpW3wiooZmaKM632brtSwXprDYep8sU+j7bTEfHw4guk8ybBYIkMFR35RESNTlHF9XKYrNayX53CYM3tsnrbte7Gw07O1P0/bs7UQSg8lJiU0uPgi91cI9VTAlSX5dLPYFBThy7a4rpJzV1H1XJHMY5q7TMYcD59G20OJzTXekisvuV6Pvqw1Agf6p2fTp57+4PWxd2b4DeJfIVR8p+saV43BKOX/bvxzks3AeKAy3QjlaQ0aEY/GmPi1B+Nf/Ql1rAU9WJpaDW3mgY3qcJc9uBm0IVnkgI0nnkxDOaw1/Rb0EzmV2h7YmOxoC4sNBIRtuEuuXl92HRDOm6NzV3cN9/XeI9fbrVNn2GKIVZsNARsaCsRCTgxHSMAPgs9UPP08osogWSOQGoVU1BchYRZyA7oxcnsSyA/ILGP+aY93+OV2e2NzG5QXHW/xlPxhX/v7JqvoW/g2uhFpziCB9JjP8vetJhhkKfXMmGvgRceDHpUKV7olS6Nul2mdDuAmXCRxDV8e/xxy1ZzyhvnDnIIYxQa8pbNhJA1sFBcI8aSH/QltWThgBMRgQA7cwKW8kB/K+6YCaPJPnmXxnQc2IZ/prZLkIAMLt/nw9FynLSBVcRtbG07+wO+Oj12p2Xbn322PVJdVmZOY2gqUQySG1yQQXkkNTIirUPo5pCtNVwj9k/9UGaVzj8ouzEjTiPHbl0B6LEM8hKH18BwGMoQhX6HKJOmDL4ZUvpEoqpcq84FG7Qv1g+paaqxs3ML4hgEIz6FTIQz5ubBovFUkgpucoO7rMT2eio96Fn8a63HjHeqKilf4qjWskrLUWEbqg6oZi5GAwoAX0UiAQ6gCG+M4CcXGhqJBuzLW2N+p2hOeCLQtTLVCXuDR6qhyyLZ4UlFBsMBQxF9JxPpBit5/4v2+iA7AB/GUxUeWGkw1faw2TPTBa5XZMupQ/vyy5eqtC9dqYfGxa9BQ8mwOxQCbhJEBo4NsItfrpHMXjwfhzErpJviaue10o4rnn0MnlC7i6fyQNyFkwMdec5C8Rm9CE9fKh4RPru10hxUf9zxpvEfk21hMGJB0s2EsZgknkB9LasG27XWet/0F2y78PhvZWTWWbrDoOVRWnjqVLh/yQjgm3+QxRijjyAbyk8Ix5MdW/eTaDh1WGOKSUDoeJFaU5ouGHG8FUVpIUd0MTFFC9sqMVVJvkEZE8aCjrabS0vSz5LJPqlxQVkkDGiHfEn17qqOq6evac6in/iWT7iqTLmcoKJRLiA3aFZJK+8hQMQH9oieji/xs+jgZe5/ksgGbRrPjLlqNjJUr38eq5sU0PygEpb7kr8z45DMXfabJQR/noDUvbwPsUNDfkWwYo6kK1njq+VrFcXnqOHfhpXEYlZetMFf/1fQ41rJNXHuaq81A5UNpeyCglKDy4515HyaNmTrOPeoy2qPzF5I5bY5rehRLIX2htmnYepUSY6A7bThaKpMpzMa7zPApRq1y6vlac+Py4HqM0P2KqfE9G597jZlMgnE2jr1M6esPn0rbfrwTQS043kNfuoReToi5RxO6fz8pb/996JUwpQcVQjxJSIJhe9fH73rKgFgqK+ETJsSHAbIEByhHU0q2Uslq8HcMsrBZooRCeipK77pNQQl99LIgzuj6jtrfhH/31YIHLp5cwos9DOO+Go7L5SoO1nV4qHJXXLnCM5YbYZdRV1UM9YyCbyxf0JoZtpXPXuhZ4l6E9Dy86fsmyHk25tOcEp+PiG9ybMeTdtLNjWDUikxRLl19bNPpgiPit9btEe2lk+fpb6g/db+l3Io6mUkrELrlq5WCa5rGM/SzNBbqN22PIZ1taMTTovVHkJ2YPI3YxhEpGKUxxdOliacfx9QqzgqVR7wP9qVeXFOpd9vv0XzMkxN6Pk/dRevM3naqRio6Ox9UtqHWx6gxv041M85qnz80BQJcw+0CPIQZsGcFRGuQoocxV6aVbDn9Yfv/g7bty6JIScoJWOlcVi3hVc+lENcMnIr4Yp62CgdeFU1+PFgyj/4KFXhSmXDxA99WWwFgBG4EavgwQFOy/W6SeiKWIqHq+NgoReYgzXddR0DGR66SKt7INYluupNqMFd+Lt6gkSNT2JV8075QcWohgYUSNaDjCYiTCUWKCUyqNKGLk/gqbjSVOqn9VNF8dK7xDkRS7aaiITf19yQBFAjBKhWkJxTGycV/NRW1Gponb0z2Qv1WE2NoBw5GhnR5XN9G1lPGIu1SfbS0x7Y6Zya/NDMNZh5mpzml1bWI8IItF5GcKe0+27/LtofgQeJZsGWrPscLnzRrFo+k+jUqc/8BThj2hK61py8Z8TLg4RoXWbAlrBDqqBmKJ11JRZQuOtdp+aaFNwa1iOtKlSXbvjtVmPY0XnJw7nW5ywJ/AoL6x5X9402AjQEaNZIiqsK6CpJ8xnvwOQdvyVhOZj4vb6sxR4OTW7pWYhoexYmN5d2wdI3He0m4qb4W0Skc73wviyrmy1x/Bqb6P9DrWdOlzNfsdLQnlbrPtifxdqv5n2zHb1Wq7y/xexzv1Bf+nXMxaHDyj2mPIDSCVLL/fK+pfgpUpKKU0TdfwVWQaGSsdDaTiSjI8OWcGF1E3wBNehl5wXd3ss1fIBbCAmZuJamAowXaSb0fU1HJIvapqtxJoczLcSct3lUj04z37b+DxfINvM3XfjHNRK72Ys5H965GJrYTJRAlcA8SsK+FD+S7oYBN/WQzlFMkuhn65r99VSE0EsL0/FZISzdWlOaPWUhKFRdIk4jxKIHFJKB3LACIIkrvyzt4w3yM+dsvkkJMixKIEvhUJHDD3zV3Ljb4n7sLoyoqPX1rQup62awmyeanFpHfuURig1ECUQJRAlECUQJRAlECc0lA4EawJwtyMhabuejGSlECUQJRAlECUQJRAlECdyQBD2Q8qKFJjDV5V4BosbmjoYjNRAlECUQJRAlECUQJLCYBb53JghttYpy+IrBJSyPGowSiBKIEogSiBKIE3mMJCNRwg3DkWmynSyVzUWEBUQQ27/HwRdaiBKIEogSiBKIEogSyEtDuNRz67dqgmyprzs3VGKsN29vY1jkR2GTlFZ+iBKIEogSiBKIEogTeIwkkBpkURzoxwbkOJptWVwdm9rDg+FumnAhsUqKK0SiBKIEogSiBKIEogfdPAgI3HuDIW9hPRXVBN612x+42p3132m3X7XYjsHn/hi9y9EFKQLbQ6z8rfFeUF68ogSiBKIEogRuRgL5qwS+u3eZ4BZlt2l3iHYBNl1O/Ox85sDFPIkQwQuGkT/OdvAtxnshs2srOAoGR/LK0GxnlmyISuhhC0Z2tmzfFyS3RueWOfVSyuqUhiGSjBKIEogQWkIC+xTUNBYbBUtN3Ne6Szo8C33g9Xg7ARkV1T/pmpoxpZpVNruCGnKmbppOOh3rpMMQDwRCGekkYHkN2Jgw0QqHwTCh+mXvz/QuhKicHfxodOR8JdBRt9aMcOSSJtuI+tGqjPtSklQ4fKmhSJyTHzrkQL1zGstaqpc7qsjT7sCLZD6WL+g1fgWQI1QZyK/Xlcx4SaRs59Ae8+mfrQygylq2pCo2lMH9mvm09j5Lx/K3EmlECUQJRAlECtysB6WFmnewu90quxsnfS0vo8SVy0OP42OgLPrkFAgZAJceY8ijnFV0CEKysV8hB4Q8tE1Ia4U6aMJKio0s0UJzWtiUMPgKtcPDVaAWU8D2oqYgHKGpaHTRQI+Xcb5OEH7X1g6BUp2xt2N+BEpcyT3iEhpS4HZ1eqlKHeL+S5Th0J8WDcRVISARWQ/3tUp/Q+NGzvzQMfej7E9YFsox5nq1yakj8c2AvqT59MKjo6YytaDxKXoncrDAnrIpPySIBhqUy3BrYSTo8kMcgkmsm3faoMrkqCz/eVTsLMxoJRAlECUQJfLoSkHoY8XU91BygBtQnM06u1XKuXim5aq3qVpbKbqladjVsFkNgI6UXjiHPgBvIkdfvCRx0XbmMck5AiVfEKPpSxZS/GKIkH17ZecWMEsRG1OtQFwbKFQEh0dLYqawWbQmMSOHbf2jBGQhM9QUmPJ3QLatIwSQk19eySJLuUZummpZXqm5tddU92C67Rzui5Q0mr9513Mu3HddstpycjjbW6m5jfcXt79bd9qZAhnPNVte9fH3pDo6brsU8nqbyPD8oeBUILIRQaQkYMRFZc/BSEohpu0ePV92Tz9fdEmvSlihwcNi0+/Si7c4um1QFaBlgUF+5ky7LvBYsRmQQT7o5YECpyaWxGshG9UhPKkjGHqQlhNWAylNEx8H7/JKrAFZW11aQScU93C657TW4YjiaIOQ3J84dnnbd6WkDM6D6BQ3GqFzWsfJQEh3rfOAnCRWID2MolTbgVWniJPCWKnMr0QXaGVU18x6kmR5VIV0mxqMEogSiBKIETAUUfJemkxTXxEcX/dEG4XTRteXykqvVyg6YIWAjbc09+O6lhGqlFJAUVg9PnZJ+vZc6EAh1RA1ljCKUcuuZYvPVpTCVVuLXfY+GdUuplgWn1MDAatGleVkGurQhumRX69hJ6gmIoDz1aMTXs7qiTVHxzXOw+qjJ8CzwpXt9fdU9frzr/uH7Nfeff7dm3epQ7r/9y7G7+ucjd3KEUBptt7Ox7r56uuP+/g9b7rtv1o2NE5T3f/2/nrt//fe2O73sum5L7XrQg0StjDGiVq1tgIQxpmdjMOEN2SG3L75ac//z//LU7S5V3Cbd+dc/HnEfu2cvjtz5+YXzuydqIFK39d3T90OiPEoIhBZcBlDkVSUaqsvYgDngR8BFIAsbFGl+LlKSEwjkLWAMBECtfLXitrbW3Jefb7r/9P2y++7zOi+McycXPffPf2m6P/14BlJ+C7AB6QDEBLpKIB9ZuoB/Ro8Wc9yJn4SnkKN3IN0PyczqKVTZPI1QMYQqN+4K9SeVg0YoGsil3v+QlAnzJFU/n5aq4N+PVEKMRglECUQJfOoSGPW9qe9S5YXv5RCm5UWZHhig1Wm5FrqCCSl0G4YWvmwTLR0oJGHqS12FKMndxfJRdl9/tY9VA2RUBSl1S+70quwOT7A8HJyj7KQYqzSgX+8AEhSVFK2ukrQrlyw//W6LsOH29zfc3t4Dt7UOAFntuwaI47LZc28P2u7ouGtmJpmbii+vpI23RBl6vZLWLkyY0OF6pe/WMVPtrNFxuMN45NbrFbdcLbnzRIBKr8LjUr3qVpc1RSXHpC7PNVfFvFXCymSyGKVsrZt8pJsXaDTeFLZdvQYfqzW3AS/bwErxtFLR0jQYEriTxcbop4mIcP7Zy7RYLmoyyTdaQBcbA2SBpUjWI5tOhCXhGBAJHwKgCoSAsK4BjLrdNvltAM0K415z9bom8rpueRlnLcx+FSxvVkfgkvYM0EFDaaF5KHIF/hWG2zJ8txJWLU88GLghVPzaNShMjhVOwnzh0E66vIjlyyktXlECUQJRAlEC9yYBfU3P8tWssqnyAaNI9/jkXgA2qS6lKnidLMXIxjcAko31Zff3f/fY/e63O25jueQuGs79/Lrn/uOHd+7s5JRpnTa4BqyEpaDfw4LTEbAx7Yn+VLqsMlhv2g3uC7e3+8j97R++dN8+LbvPH5XdMRaRt2cd98//cuSa/37iemdN5tFkfQiKKvAZngmlvPWoyzQtj/aMqpXCRfFWsDQJPCypCLcMTvgYOXS1TfwM+ikrTOJdrYI2BYSyFwoUMFFfvKUkNEhyuESYZAnZ2lfbJHjLkabvZMnoCfKZ0MFU7JgIqIG3sqbjZL1IQIL1SQwkV7DOGF3SwnPILwyRSwAeGjt1QbiFUTE+utrUiLm1UgWplOsGPAVINWUoYNNqNlzjqor8V714aKQvglh7SgI1Hqeqw9ZnZam3JmEFJiJ9JLLyzAyfiQ0vE5wfHNUdXOEhoWHp6XjIV0aIp/PT8ZA/IB4jUQJRAlECUQIfqARsUkS8p77apXPl6iK0wX+0lN3+17svqXQKKSAsY/VQ/W6TtKZ8MPBCXiWK78rBegm/kbY772GJ6cqxVIAGlWaWAtG2/wR+Z0Ap2KqsFtB4vFV1+1iCtkAZZ1d9d3XRdRcnV+7i9AyPZ7XILY1ufio8mnYXWNJNOv8DdaltexLflq9nDy+CJUAUfSo5Iitn4H7VHQOonj0/cx0Axs/P/bRQo9lxPz07dyf4lDRb6pOm29QuIMQ0O5QSha1WjBVrUWwFHlQeUGM3wIZH8WCXumb8hQTV8TUHZZRibapMSFUY4kofXiUsQRVQTM8sY00/doCRbRxl9ve3mHIrud0N5NzAOnbZc7+8OHUvXl0wRbgMKJVDNXQZtyZ+R+8Oz90//WvHPX95YFYrZuzcr2977vVB011d4bWlK+l/NzGtGXoWDbFnAvF98g+SvOSR8K6xtDIkhbRhQpKmsoHYoLAqJJfyRDd/FZXNl7nB58DiDZKMpKIEogSiBKIEJkjAvuplyEjKEXpgY4ohTElISWgqSYVQu1hZlG2qg8SrM5Q8ir6Gk8j6ctl1NpzbXWO6B2BT6jX5xY9PDYrIDDXyv9A/vvQFjrzlBzMRyreOr80WgOYRinYbfbpCe+3Lvjs57LqTgwt3eniMsl1F2S5RF2U48L8gaswNIYFiAhrewdbYJgWOmWaRs++wpFeR0kEGagxkCNjU3PFJyx2fttzPL88BcciCQoIY2uxH2zWLvkQiwKDK5WrNYxvSrLBaSSRr/JkApMTlm+SBTRmAYmdZmGxNushKfIqj7KUiPtVa5SmpZKkaq/QV6sMDIKYs6xibFbVbTXP61fPe7pr7/jdP3Hdf1txvsJCdnPbc4XHP/Zf/+oP75dc3yLpKPaw3yFlcN7C+vXnXdK9eHTBu8C+TDzLoCtxxi7sS047eGRy5tAE69MOmHAf9CTwPR6BvjkRJugKLJvzboIQ6pCV5/l0UeZUL+cYCH7qUntAw7pMyqaJWbOaPQFMVpyCWLp5ua4qq6eIxHiUQJRAlECUwrQT44k2UhL6C9XWrGREiiibfvgpQMF438aAIyk5AocMUxenpqTs6qrorfv0vLy25DSwt+xt19+ThFmc2VN3JZYnQ1zenUlGmUVtVJSUPUFrBZ2NrY8ntbS9hPcDaI/8NrAQXl213gr9Oh3Xp1Tpoh6YFCoYX/IilAb9SwZ43X0a90a0gxJNnnzroZpn8inxnAAKmdlG44rOHezWpVtqwlJyFsVbRAf4T+pxUKIaULgAjfugroY/zbGnqg883YDOonbSt9ozfIcixRylpGzABI0/b+if/JUCGxY3XdB8VVw80BuKLekw7VWh/Gb+oNbqzwah3AJe4RwFIMdsJlPYBpV1AnjkR402jatYXsSCAKidhyUi8CkQmsjP+JIOEHQLJwPptfaff1g/xnx0r78Ac+qFqCR0jId49Hd87xQGVJgcVCA2KrqetVKtjz76uT9OnZOvbkmyN7UGm2spdSjL55dLjY5RAlECUQJTAPUkgfO97rVDEhHJQc6bWpcL8t33uy9wrWCkxfq0DbI7xpTk6rrjLq1W3sylg49yDzbr77MEWU0kld9m6cloFLB0iYCMAodVOWnUjB1wBm9UVQA0WhN2tZbfDNJb8V1s4Dl9ctNzpScOsAtU6C6KpZyumxFvgL8QHPaIbprCUIMWlO7mCDHhMRY2Ut2z4fsGUKTpZmvTPrAomB/in3wIIvY5WAA1BltJ0e+uRlDd5sm4J1KBYtT7IwIU9CzhQRj46SVcCi3r03JnALD60TEhhUw8/HGvbtLH6q2EL5WVJUp/hXJ1UuiEyUoSiBAZot4KP0BKWrxUYwFDmGtRagrcafFfKWFv6pADqvMx7jIGmDUUDQKOVbxokG1QkTEMCNiRA2oMKydMYMB7UbuDdgzr/rMzkFg248l0K6eKfO1xGgzwrpIw0sFGhUC+ESlO55LZ6SuMywSsivjWmIuvLDcgrO1wiqezkMtmGhxhGCUQJRAlECdyTBEyzhm/59Ne08aOvejRkUECk2Zc/CmwADoLCAJIAMi4vW+7124bbxLfm26/23P4O+8Twy3+VaaXdDfY9Wbmi5rkpUpHuY23popwECnSXWfLsyh2ckLfdkyd7bnNrhakM7RfDFNR51715c+RePn/rzs8oj5Ox/4WO3UD+G9DRtIf0Z1jm7XshRUU3UHJ92RjUHpYVgQ7NKKV7HXojfSjogZss/GhaSU154FHBCabMSqWuWS6QkBQ7Slw+Rj1oihc9V2pLgB6BNjkVq28KWzy3TIwVU9zwgdY00IMs+gJqdEUza1690rZkboCB1WQCDxKI2JZSV2E5FyOzMqBJU3Jm/erjy2TABiqULwN0ZP0wjCGwICElHS9TBxsaAKZlflBLrLySE/Uy/VzBUlNzjFnvAjqyxkAPXnrwLtmZ4md6UVOMlQpL8JnS6hloQia2HxEylxVL5TU1R19sqk59RSbiXX0Q34Jfkrs4Ew3jFaflMqBJwMzAmWjrluwItCrLHJ/pj8lJo6bxZawUmkVQBY2quoysVRbmBVasjOQjvuGzo3ewAkjTmKoWfRYtGhnSIFZ0iZ76N7gUFRG7BpGQEMMogSiBKIEogVuUgHSIvr61zYy+jsOtJj2wsS9pPjTFYZcKSslJwfClLUUEgSv8KFpXl26Dn/zH523X4If+zrJzq6yE2mVzu82VOsuraU16AsVputmcWAVUUPgoaCn5jXWmrp7suo0NWUywHgjY4Lvz9s2xe/3yleuWpHprKFMpRKwHKHJZPGpspqLN47zyhF/TTjjKosxRd0xhAVXUDQCE2O+juPi0HunD1E+ig9RDga4+ykqgRWijQht1tmWuaCl7ckqooR6Qj4EFrZiCtkQiNxbdPcxTmi6r0DcHyOliC9FV1rL30Jb4QX7BgCIRSdLizrAnBf0mh6RKIPTFdj8WT0wV1WryS0IWXqBMCUrBQxxAY8XppwbYlttbd2mAbFmbmG1zS9RdrjMFWO0ARHsAm5IBm1WeV6tt0gFKNUBElQPEmAbsmkO1BAkfyFSgSnKRY3K7Q1sAIMV7lFU7AhMVwC1RV9IuhvAv61XZrFSSjZaaq6iYQ+5kWzGhJ4CGTmhVn2RtUr8SbEfzACPAYoV9dbTkXvBHflpt0vUOyOZD08JkJmsBMa1gq2jTHfIExm0FF41rM8E+YFk+V+YfRah3W/Q8NhNv6sGoi7ZNtj7fxnbwTCQM9qjqMT1KIEogSiBK4EYkoK9eqUOBG30vD8CNQA6JqGZTRxQLX+pS+VbNanhzvbQHSrSKhYUv8G55hWmnMj4xlFzTfixV93hvlRUzy26Jnf+0gZ8Ag7SOKQ9ZAlBY6Ce2O9ZeLs7tbZbYAhl9DyPn7LqrFThXLLvRr+i1tXW3trnpHuzX3e52BYsQipk9YGrkSYlZT9QbeLliw96js7J7/e6K1TvHTJEBnlC6ykP1Upbb+pN8Uk290y/4LsqxK2sSoGtnd8vtsa/Ok0c42u5VXJNlz+fQevGy4d6+a2CtYvdhylfonxR0v3PhlpbxEXq4zbTaEnv7sCcNfJZRnpJkGcUpva/Wz45xTGaX4c8ePXA1+FIXdKuc7nBJ7qIt+WnfmEeP9t2DBytM2eEXg8zqUCvTb2EA0RWqaTN91GiVkd+l+/X5kTvD8tWib7WVZXyZtt3ThxX3zWcl99WDTffF/pp7sFG1Ze7ry4zn9or7x3/4xm0/2nRtdm1s9OvuzXHJvTvR6jQEC4D4+rOae7TH/j+AECU9e9F2r7DanZ5c4pyslVGCaEi60+SsDvYAYkuA/d0N9+hhDedybXfNdBed1O37yjHzDIDu86sKOy6XkTGA9tUp9DQekOsBkvTu0Ms6fH72ZN89frThHm7hdA5Iesumihes6NIYL9PGNrsjryAvW4+HTPSSCDjJ1+vopOfeHXHjkH7QPTcJ0wKvENJGTnbrXTLuFA6jg7EZRHx2/IwSiBKIEogSuD8J8NXPMQroA7niopfCpcU+jfPzAGyCqtVvYmqE73mVJm6PTGGUcDqVz0XHrbALLZvzsRNtb0cApeIe7KzgDLyC/wy71DJlBQYwXWHARkADYFODEe19t8EW/bsAGx1aJWCj4wQOjs9ZicOvc35db7Dr7UOmqn7z7Qa73y67PRyMtW+ODCsDQABJde70vO9+ZS+dP7GXzunZhVlaOmwc6KdyfAdMbyV9sQA6Qng9FF9Xv+K5tdPu11995v72dzX3zVc4R6MY35203T/904FrNI5Mibca/lgIdaeKX8rG6pL78osd983X2+7rL5bcJsvXMfaYZUbtCHzAinv7uulePrtye1t1LCVSwF6Nin/rBIHX+pI+QAAQt7lZc19/gwx+8wD/pbIBQe29IxhBYLfqNDjZ9IzZv5+eHdGPtnvx+oKl6+zZg6B3Hu6573677v6HP6y6PZbX487kMJIZyFhlI8Ialrbf//ap++L7p2ZnOsPP6c+/9tyPLzru6N2ZqwBs/vv/bsv9zbegKq53x1hf6gDQNjsln14AQprgXabk6IjenNWlmnu4v+q++2bD/f53m26HpfwrjLnsJ5KL+qsus3KeiTHkcghIYRWcrHwXp+fuHIDZbrAKjeX3JVlusFYtLdXd4892oPfY/c0T+gAY/vElK7oAXyK2Rqcef8Z2Aau85CTJgiNAKT+vJv159rzp/vzXS94HthM4b5jFyeQnMw3vgNC9QrtsQIgljwosySK+SPyMEogSiBKIErhfCfAVb4YSbZsnZSKjgL7HNdNywgInkvmdK2dU/dJFU8higFYJ3+3Jd74HNMrVr+Fmu+zeYCF4tV113z5YZ5qiaiBlB2Dz2WcPXaN3hsK6ss31/NlKKGxornJu0w4KeweP440VKS6vfM5YDXV01sDXpmVTLp89qrtvv113n/OrX87FFQAVxhM2AASMEApYQMptAna2NHW0j3Wkuc6Gck/cj78cupfsu9LG4mLb/AMU5J/h+2VdUy+gAcAApFXpewVrVEVTG52Gq6IV6yhW7QtYQzHWZKVBwfc1NSULBbTWcZr+5suHgJkd9/WXWBL26E8d1Q5vFwANnanUVl34lkVBgGftK3yQKLNFv+soewEU8aDpIvnqyEqjqTqddfH54y335dMt99sv1t0Xe5QFGajvV5qZgS8ZoVidjeWr5NYQxhrL7asPsaa1HjHV9M79f39+zQzOhes0r9zZad29fLPsWivObYEuSkwjql4bk8k5e9m8xur2+gp+aaOBYN4e9twJy8Bb5K2CJCsAgDrtaaxgHYuJLG9McfFGyecJaAqwrWPtgucn6+63X3Ee1kOsNhuyuvDOIQdOpnAN2tEM0QrjJZQtGTwA4G5Co/KbHbfJTtD/8cMbANoBwAawqbeRqSxGiKk0eKG/7C7Aqi4sWVgJN6ivbXfk16xpvlOAjvZYEt113hlwG3VgeAcA9/Uqxqcmy9tX3Tn7JDVA+DYFZb46vOv8QQiA685eyTNjHq8ogSiBKIEogfdHApq5kAuGZjEM16CrrnCVefH8OT+kbbULWiABNqYlZGtIf5frSx8QYOqY8g02zntzeOFeb5U5UmGZpdtMb6BktnAg1vTJEb6oh0eXbHYHETmUQEyWCK2GerDHSiiWeq/xy5utVpz2eTthjuPg+IKpKCw2KPjdnbr7/LMVt40CrqFUrgA+l82uO7tgGgOFjO5y22jZJYDV1koFoAGo6K64i1YdGl337jXnGAFGrEvWtu9MUFsKgRL+H4X0T74kAjaVHhYn8usIqaZbylWIhSkrWXaEELc4muE3HC3x++923ecP6gbqdPzC8RV+QucddwYo0BSZptowBLEBYc095nDNVUDIshBNcgkoeoUqjybJCfrI+cHuqvv66a57ylQcM3zuCERzBLLTpnoCJLCEdYRecKjnLuu3t/FvWdlZAgDsIaum++vPL91lt4n148KW5v/ynKm1jZprA7DW5WgMuGlxdMU501Y6CPSvWE26oIY2QOD1a/YROmQ6jb6ucswFRhPAnrfy0B2mAwUIeRMESOiPxnV9tcJ4bbrffrvl/uG7JQNv8kU6xvpyeIH154wpoTNNFwmMwfa635xxHaD3gKnGZbfJZo2rANMGh4KeIruOHWchm5f5VgFoJDeMTsgQeQJcELcrYaK5IvL2pIO1rst0IfmA3YcA3b31KsCX95JwDYviydmq+/nVOoD1Cguclrb7HZb9UIQ3IxkYBRmQo/z0H0SqXIxGCUQJRAlECdypBAQt/IwLX9WKY3lvslv+2ckJbg2vZLHhsi9xr+4FQTRtRKJl+Q8f11e7TPpNFM/xEUoI34+jsy23v8U0jJQ2CnYTxLKKQjEnYkwLWmkj5SSAs0He54923TYACB3nrpgKOmtoJ9sz94tWQwFg5JErw8g5U0wXp1g/UHavcCg+Ojzh178QmgcaD5nWuWJl1pef0f7uOs6xVfcIhfbqDQoQE0MDpdo3JxetoBHf6rzvFXjFqyn6bb/c5WeDY3SfX/VyeBX20I99rdfRUQwVVjzJoXh1FZ+ffaadvmL6iVO6H+/W6HPZpjh+xk/kl9fHTIsdM7XWtSkPuTTXWAn2W6a4/v77r9wjdiKsaS5I4oQH7QuklTry8+lykJfMIl2OoehgHZKMD0/wa2EJ/I+/vmQ1GsdMkNZGCFLKa2j6J1jLvmGa5ndfPETmAEwAy/7OKqeI77tXWNTOT+Dn8tidvi5zkOWeW/7qkWtwaneb/Wqu2Fn4HED57Nd37v/564HrciZUlw36zgAIDQDUOrQ2WXJvkJhx0juiF8hWeSFIyUuyWseR5vHDVfe7b1fc109qbhVflwtOK393cOn++suB+9PPbwCcSKK0au+EnKH3WOb/AOve919uu++/2MYXp+Se4Nf0HWDxsl3FV+iNe/3mEOucfG50BAfvEWMP5jVwUwLUnVxyOjtTfM9en7gfn71lCwJ8frCWrSKXvZ2a9fcP3zy2d25T1iHa/PzJjl+BR1mhQ62Es37JHEXfBtfg72GQkkTShfJ58TlKIEogSiBK4C4koG9i8zVFx2vGpcU2Mz/zg/7k4JXttYczQ46NPKgZ5PuIgE2HX8nnzUscMyvuHbv1PkKRr2k6CiW/pWkm5g1qWsXDypieQI3mCuyXvd/vZntt2awusj4cYzU4OG64NxyiycSHq6/UUK4d9wYH1QZHLJzgVPzsr6/du7dvACd0B3pllh8fY8pYg+4aq2U2UdZL1NvHgrStaQiWa2v1lblP2NyN6vFf0uBSIACns49QmZSTkgNUcdvZUnRVwEZ3hT5oxZPuZdp4+HjHffHFPqCCfXywgEiZHh9fuR9+fuf+/NNrgMIbHJiFoJaYumK5OyiyzUmbW6v7Zu3YWGPlGBYPgQRzXsavxJaMS04gLvn8XAHmjrFgWX3y/8zU0vMXL73/EIBCzs6S9zF7B5XwS3q6s+XWVzisEoW/s8k00P6OO2ZMDg/fAhwv3QEHjq4xHl88RLG3l7CkaYoICwd137w7cD/8+Ax/3Q2ADRIlUyONGzD+U7KE0Rf+h7skVEhaHzBWBaxu4/TyBAfnb57gC7NXNV+ad5zx9eOzY/evf3rp/uXfnun4T7fEEv8AIne3VvHJWsP6wrQb+xmtAEb2sbo9BaSedZYBtUxlcnSD3h1bIq824QH4YT40WmXVApg94ziIf/vLO/eXH18gr3ND7fL32sI6VeLderKzB9Cq2w7Zu7yXjx9WAVw4JGmqS/IGeGuJvfrrPxTak1K40nGf4t+eEI9hlECUQJRAlMCdS0AqQSpTqpZZlxbWkBcvX7qjty8S52HT9tJc6S/xVBwC0sJ+dRRxW2WkbmhFUte9eHvutvGbWcMjuISfxD4rVAQwNpgz0PRMg1/cLOY1ZSKls7e9iiMwp0VT//y8h/9HB18PJn9q6zCqM4pK7hmOsIfHsmKgwJieOtNhmGzjL/ChpdVVFJt6dXVxwfTDJVGcTNF6y1gLlpg3KWv/FMqKda+8jF092aV04Tft12K/2LE2laEpKxM7oJgC1RQRs0Lc0APU4CViy8+3mf7a3V2mLVbeMJ1zdNx0L16cuZ/h+dWrS1brYOcpLeN3BOjAwbjXO8eZl4NCAWdLS1gr9vbdGnxqakWWLFlqNGWmJcryddJCtZesEDrDMWUJeQp6neBYCwahrLoj9V41H57Do1N3eLABEAJAMcg6HLzGaeRr65vU5bwr0iRDWc26PfyGODrClsZDog+okPeVnJvbEO5jDqEkPKDsTT7a5Ue36iuBG4BhVhQsSn2A0Qo0PuMMqqeM6S7WOlaLs3Kqzztx6f74wyv3C/1o9egXlqBOVxN8IlNzFwDWPnvn/PryBEtK3T19jJ8SK7aWNVWFL1ANYKoxNBYBrjqCQ2OhMZPPztGpQM25+9OfX2AVOnHnLfpVAzjBaBv+z3kvT1k1dYoT+16Lxe30W07rW4DeFax5JbYPkMMzDSF7sL2IT7ooLrmEz+RhUq2YHyUQJRAlECVwwxIwdWSGAIwBzALIafgCPHBxLoMAvrpeYwXNVdQ6ecq2y5ezR7Rxg+W5r/G12cN59rMny24NMKNDFve22LCP3Yh1iGSLKQPTIXh6rmOt2GYPG01Z6RTtUzbie/nmimW/UlpLNCNFz9JcwNIRVhw5qNak2HBO3V7aRNk1ATWsyQK87PGrfA3flTpmFVOA6GkDN0w7aHqohjIULTGf4JeBTlJXzGIj7SScwC1wIQdn3ZbEh8COOfVqY0GUoXxK1nGK3eTXv9rtYjU4Adi8RZG/eYM/C74erXYdp9Z1HJe3sCwBWqhzyszHzy8O8T9acZedPer6jQ0NSAh9wIb2ajHQAQjRtMoRviZ1ptfqgBvJYGWV/pvlSBYkwR/2t4GnmsCPOqhuwHMNr+JlrDe1Ol7L9KSnqUBKa4/hPsjHnLkpr/1ddD6U9ueBA5ORzCE21SRzkuZ9uLV7sclPZQAOmr6xKRyApSx0Ok7jAT5TG/DIEjemE/vuzVHLQM0B1jztSVQqL8OHZj0Bp9BucIZVi/stS7BfvGJsofEIT2IBGy1rX2Ug69AWNJV1S3LXGIuPNm2c4QD89rABMDp2r95xgOfSNgLU5CbTe8jkqg3ABAheMh0pcI1UsOLhZL2Mc7EchuR/RZqWsPudlZED0N9W0hmV6x8mYZPz4I/heqGYEiUQJRAlECVw+xLga1jfxPKt0f51stg0GixAampDWZ3uHb6npcykYQcJgbdQQM/pOL42AIcjlv0eny3jG8G0EMpH0yH7rBr6nP1dGq0e+90cs7cJxycwPbK7t2XnQqEa3RmK5/DkAp+YA+bEtCeKpgUEJLz1RIptd3/X7extAiRYBbPeR+n1sHYACmhHK4z2tMoKHw/57kip82MeHwv2lKHeRZNpIgCCemTLkVFKkPY9UKLdtlYq6RcKj1/7VoI8U+YqAySQU69u7ZJbA5Swya5vj/6fYxW4wGm4g0XEYakpoWB77AejVUVmXSGthdXq9JxyKFqMPA6jhi1N7oGmtGOvtwiRKOBgfklAHBhYx9N2a3vDbeOBvMW5WmztA5jTiiKOQ2ClEHDBPZCPC742clQGw5hjbxWFXQUoiXZFy7HpdbnGLr8ASnP6pTc6AbyqDQ9J160lSyWATk9gjuk37RFQBbxpZZfdGDUEMDQ+ko12NBbYkIVMvFAMp3LHu8DYssdRR7LAMlXT5kUl6GvlnU1zSsK8AYCLJr4zkl8TL3JJedmm0gDF+N/sbG1gqRLi9avaglFF1iOwDTe9YudiV8HaZPSJkykLk0BLj00GsfvwPBxjveI61sKmobDN6X2b5lJ/7X2ZpnAsEyUQJRAlECVwqxIwHSSFzvd9C3ePZuOKH9zSFdKpuERkWx/1RZ9LT77ptaT6FHPL0ZmsLqxm4qTvdZT+jq0CWmXTuFOzsqytbrnHOLTu4Feh6aIOCOSC8gcAj4MDNtW75JwiFI72uVkCsKzjt7G9ve6efL7jHj7aIY7vDtNbm+x9I+dUsAXnHPU5EdyDnCWsBV14kgKvo6DX0f4ryw0UF4rRLgnAXxZLKyqLQ9CUnNSg12EW6kOq0nwxpPCl/1Gb3NLuLQSpgzsvWYnV1d4rsoKg0PtMvxhQM1qcxoSVQ+WusHC1MZ8JgAkq9dHW2gXXlRqGPKXw1cYqlq0N/HkeP9p2DwGIAoQ7rJTaYs+gVaZTBDrEgmSwBh+4+phlw3ZRJl0gz864IlLCGZskCw2JCJjw7AEk/MKDlZH1QkgF3vg0GnoMtwEans2yZSHWFNpdghEtsVY+vteAGmRCKMxcEuBhPHpsuKcTwSFtcpNTt+CHdgO+YMWXALL8vG2pNqvd1nHSXmWDwYsL3gub+lRND6jEIK8KwEVMahoJQCN3bwEdYuKe19vfJKicT1eOYkoQjPKp9iqrmoQSCuo5uQb5ISGGUQJRAlECUQL3KwG+r6WbNKuiBTgdfhxX0Hd1fCrl+5kDNrPwKoDCL25s/iccXHnAEuE9lgfvsDvsmqwtIJw1+TO0L2zqSEuY5WiqJb8HTE+9OWQJM8DmjN3lOig4LaNeR6nt4HPx/bfsEfPlvnu0y5LvTdAXYEb7lfQxC0hRtW3ZMyufmFdbRalqb5wSbUovaeM9HeBohzMqoUBZDXqJcKTP/BUK+wpSaLohxy1FLJDAtBi8aNaDkwWwvgDQcBDWkRByfNaZRFX8SWxlEyBGxLWDrnY5bmMek7xkbdAlAGNTIVhLxHOn3WCQtB8Qe+Q8ZWO9L/bc15+vucf7rCBj47sKgE9LybpYTVqU1zL5M3xVrgBkNVYwyZLlrRpqQNMvulHg6oMUPZ2RP01Q6d4R2zpH/wiVAZ8CmIJdWu5dhmcJQBTDltViXNNruisCNcwfVfHrkSN2m7oN5KFdm3VMghloTJDENeUGM3Z4JjzLuqRpJflpac8ftaGisvx4Pyf4oI7Y0XELkLRxUEE/bUSveJF1i+OhD5gKqD0B0hAnhLhfWu/bER2bwkvSPQMQ0iVG7M1QqCiF7VlhvKIEogSiBKIE7lMC+maWvtOPa3mCSs+urq2hPzAZ4F+7ELCR0mlquolzow6Pmu5sC2dZrA0r+H3ssQR8G1PCMh6l2oxvn6XO6+y5oukM7VOiDf5OtSkfzsE6c6iKgtrGV+MpW+d/z3Lq77/ZQVnDONMiJzgEnRy22JsF/wz5BTOXU0IZ6nTqPaa9VpY38Z1AwUkXmnKWYvNKKKOi9JDoJq+y9JC/rw+XSMkeJCWqaRmdESWlLctLF951qKMdICnFLQsIStsrQ9FOLuPHP9sn9RV2qWurf9h5sIpPzQaA8KvPN93f/3bfPWWPnG32fDnFBHLKxkNn7IR8xpTfJQ1rk7kOO+rtghQ3PltnOgg/Etr1thCp+gTYqBW1xa1U3Z4LIiGmBN1WwD9odZg/jXxYWnR0B6uNprVqrM4S3wIqmgYSoBGQE7BUKH5kIPFWLwmG+kbDg1RZ7zqMqxyjhaPEQxcUoyXvoiFQJjBoQClhxdOGPxjRERzGO/K1bIXJTUSt+zZDuwHgWEc82DGUKQGpqPqYvuxZH0nj6bwYjxKIEogSiBK4FwnoW1kzBdpBv7K6xgrph2zZokVIcwMbI8lXPXAJbCRfmneHZ+6IXV4b+4AZlN0jVrk8Ykn2LsuPd7Go7GPJ0S686GP2IGkCbE7xOWHvGBSXtJlMSg92N9137Oj7Odvyc/A3y6bZCffgyv3x339yP7O3yQUOKvp1L5OTzjp6hIPyN1g2djmJs4zVQAoQXZZcppG8Ih4oM7JI9j/IKahf4pitULEW9z4XnoBq6zZ6UnoCNiwN1uZ0uo2OgI5MXwhWgEqrujygkn8LZWSl4JburQEta7L4QEmXQFGLKSo50ep8C/Gwwf4+Oj7gS/bI+eox+wFhhWrgg/KXH9+6H9hv5iUyO2Tar4GVQ1akJaZ5fvN0332+/h1Lz9lUiEucipb1Sf1KK2SfqWJ26VHZOr5AyEc0LbR0y/XVvUh8YaMHYEF2stpU4VHnZ0mosoDYYZUiA0rpagdGwIdAn8nRHJIZcepqDLXayQ41pVhTVjjY1Q7LOpfr4uLKwExFfj/Ux9hlViMR6iXWGI2jXmytCBOLkr0ZV9SY/hNauvpDWStvfAKILEwSlcF/lY1XlECUQJRAlMD7LwEZMmTfX1tdx0Wjzoasj83fU8cTBD07Ry/0W1zLiFG+OMUeHbGS6ZSDFFs4svILfn2FFTMsBZYT8SOmoXaxPMiHgm1fDNi8fgewwb9C+4hIG0nJ7WyusB3/Jr467HtC8lsdQsl+Nn9hSe8PPx6w74p+ucsXA9pMWS2V1lCE/pe9OiB9Br5IKSi0lTRW4SU1JsmEMMTThVGMZn1QSGkUKIYEWbrk3sFKG4SK1+4yU0WycPSEVnDs1SXTmMhrCkZ+KJuUExiro0QldME5bQVtlhGsKyUAlnyLHuAs/XCb3ZmxdulsKk3z/czhln/84S2rjXDU5ryjFtM9Alc6Jf0hMmtr5Q/NAi2st95q4wGEmBDIkJXDAIBZUbJSkdwkOOEwM73YmMi5VmPj5TeQrRWmXJLe1jQRFhaBIoGMFcxGy/RX00mi6aWajIPaob75zWAyrOHYvI4vkVbJSSZ6N2S90Wo7HYgqEFuGloTlrWAUylwJ3dQYQ91GNFMseTCWQxXaEjvix/OUFFKiyoTLnq1kSIlhlECUQJRAlMA9SiB8I9uPaX7g65xCnVWpjWulrOcENl51mu5CEV0J2LDC6eR01RxpN7SsFiW3zd423335mTnAbgN0WKjCvib+CIWXABst8y6xWkZKSytw1jmqQOdIaSpLSvHkHMsOiv2UVTaNHjvjCk1oUk2rkrCULIPUdGtJtByJbPM4U5xSnqHro6RPvv3y13SHEAih1fH19AkLNp2ivWDkH+OPIcCvhl2Rd1mptYZC3tngQACcXQ3YAB4EWEwxig8BFhYtr3Psw2ccJbErHyOUJhvtAsq4YVpKXQaPKlNuGzhd77F53TqDpOMcjtV/ljM/f33mXnJ6eZPVVsz9ULYNKIAO7S4tr2A1wb9H/bemBTeRD2DRzsgCreh4A1lPOghf4EX5AyVP3CwblJHvik3vsDTfnHJ1SJVZXABzJguVpQKXynVJPGc68RywtbO5alapdV6sNS3XZmqwQhk5Dsuqp/1ibGM85px6LMnu9C7xveK0cZzE95hz3EIonAKR7Kvjj9pognQqnJiuIWe4rY/y5fHHOdALyViwXR3Xh3hL+FNK/gp9Vh8EWGnNpugM0KmikkSLAlY2ELB0fcQrSiBKIEogSuC+JWC6TjoP3aCtY+T2MND56B3puDkvkRZlbRaHIyso5YRpkhO209fUlAwWW+y29sVn++wyixVHK5codwwoODrlSAY2oJN/jnEGI9Ik8mHRMmWzdkBdOksndcvJVM6jaquMstUy5hX2atnjeINdlmLVsBAFpWV0oBdojOqcKTezJ9CIrBpJXOprcBMRDxIajaPI/aaCF+yW3Afs6ORq+Q49ZMM+oUUp9TK7/PY7bFxDCBxDuTfxk6m6r9jO/zGrwnR4o074BjKYVcNbbAAhiKDOlNYKzsOyBNnAYAWRzDT1pD1Z2hy3oOk/+fGsMK/3cH+PexeUWsPiJQ795adjxLeADLxisbHBR4byVYEkQIUecyuvhOlOmx9qR2PvPAylIARRTR4lBi8p1QV84Cv17uiMU785mR2rkXDQNoDv4e4SS9C3iK/ALfTZVFG3TISczgkw65llZ4djDp7gU7WBb5X6f8lU4+EJu1pzaGYbS6D3P0IGjIGAlVjyl7dNGSAbJKr3yYPKaoB1hVDZuvSsfoebjlif1aF4RQlECUQJRAm8/xKQWtINp/Zdzne//wb3X/RzWmygZoSlZJdQdk38YQA1gJXD0yabti2xQkpHHbDjLPvX1LHWyJfiklU8rw8EbFj+zDRTn6VOdggne5rIP0UzKjoZW4pMU1NauqWTo+3cKY5R0Gndlg5IkpPt0yfbLIneolzYjseDI212p31arNcjh0hi0I3S5zaVbUrQiyfRfwhNHZXjsF+rc8HmcDryocPS66V1HVhZ4iiAFfcVK5la7QP34s0x1hGAHeYxnYtUZZ+VvW3OLvoK3yGOHthiE54yfbNWAB1djkhAszJIgBluOSljL6BNLX2vM3/IqihoaS8e+eLI0VjHRawuqc1H+Bg9sNVm2oBOQwsp6W0wBFYaAJFtUqg9ZESTvsibB+iF5UxTU0I6TAdiKpHlTP2UWa3fRZ4CRNzy1RHoMHmYxAQBtSkSS7Xh/eW7Y5ai190XrS0O5FzCcuPYSXgNoPsZvLxhB+VXfoqO3X/xlIFO005532Zvo8+Ydnz6+Tbzo/hmwfOb46776QWbHnKIak/88M5oN+YWh66yTQH9hwGGVZcfJUWSWGAwletfeF92AHSsCnUo79NUn9uQsVWOH1ECUQJRAlECH7AE5gc2qDwpYP3Tqib5R5xjVXh3TX+MBQAAQABJREFUcuUecdK0DoisMkW0xU69pozIv2CZ9+t3rOy5QKnKZqG5KZStlHof52E76Zut8Lfwx1lmOmObU8O/0G69HHa5xdyNds7VkQFaXfXF4018d/CExlqhlVb6Ra9L/GiTHnMO9UnFnzJrYDnAlEB++k6KkyRQoykXAxzw2AawHB6cutc4RB9sbrNqy/uTPMJi8wet4sIa84BDLuUjUgJ8ab+ZJXxu/uabXfflYy13xxeHf0EHa4pIU1w9LEF9pmyuOBD0jI38rho6gkC+RNrBedl9h4NwGxlfsqxc6dok8PGDTff90233OQ7aG8iGVegGzwSA5OGi+TodXyCFXQJAdrplmzJstrGh4IxbY/5LU2Tyafqbbz7jrCi2+2OjO53c3oYf7dKrvZC9H5CXiaxwhn2gqbHXBntv2UTv5SH3EZ7oyz18icruIaez97/cxDLVYVoNC0xyKKg41OZ/u/hH7fKOfAX/mziA6915w7ETv7w6tzOmjgDHXb0bICrbYFArzTzW84xYH5NxStIJYC4ZzpCmcpZhYhjQsDTL8/2QxPQ/XlECUQJRAlECH74E5gc2pvj5ZY2WBkagGKoAk757q033ztmJuCeFy1EAaMMOZTTrpD1vdNilzhMq11axGOCDgaKuahM5gAAuJe6AYxb2OZ15j+eHWEU28CF5vP4Vv/wf2/b4Wm69wy6861gHlgE57AHnscm0YyEFZkqMiihuPwWluG5dIaQY5WSp0f40mjJraZn6q7eckQSwYDn7Gnu4YDBiyXnN/afvt9y3nHJ9dLTHlv5YdKBTxwN6lQNBtST9AVYbNXuFFpcxSbdASpfnLpvidDpVlr+3WAV27k5YEdXkMMgl+iqQ+I9/99R9yQneJ1iKtCngCk7I8kX6bJ8psDVt0OcdkmWNqcrqAwCUJa1UWeXWEQxsGAj9E87carAjswCPTsFeBTj97fdPOFtqx3Yd7mIRe30AOD1scqr6CaV0NhcQhrETv+bHJHQjSwplWwC/o4uOe85S/L1XODQDYlYfMT44Pu98waGW+w/c3yGXYyx0x1hjBLp0PMQ2my3u7MibXeC35A44xf3FYdf9gJP0Dz+95OwrzgnjBHKtuKpywvgScsRwZw7TYRdpTTVqfOxWHF7MuoZ1Se9jWPWkOEnWth0PQVnb/4b0vkxRliuAo2s49vYYP6IEogSiBKIEPjgJzAlspFH0X4qByywfNfORePn2lJU9S+6osW0+F8xIAUgANYCZg6MrTqk+sJU+PUBN2IFWS4y0pPftwZn7s23RvwPY2cBnBX8UlNpjzhF6gD+GVt/oqrOcXI6rJxzFoE3ittnID89VczzVbEUbJWdb7qPkBUg03dXF1KA8XRgkODoAZZbkq0wPMNCVZQM7hRY3qYx2M+7Bm23ZX2a6jIMZL1G64vMvP721Tey67DmjgxylpFfha4eVSlop1NacEMq/xLRYh3Msnr865gRynIc52dyWjMNHj/ZKADxXgTYty1rz6vWJ+5mDNjdR+I9Yxr6JY62OGFjh6IRzpu/kz1STszAyv2I9/BGHhtbxZdESe/npSkK2eBygWcIKU2YqTKBTPjpv3p64V3vOvXxQc1uAjy0GZxeLT2WJ3ZIBUZxsRd91RARhi9Oy6a9t7McYCkB4mTBu8F1mRZPDIiP/p2N8pn769Zi3ARDF6eGPAZ5ylNaZWmvcO5tYorYBNtCX4+8qYEz3KaDo2ZuG++vzM/fXX0/dLy9O2AJAoIYGhaQoL9gs6xBDSr+YriS1jTWnw07P2JO89Uu+RAZskDm+Mnwy/rIiMo3FeOpkKFmFbFx9ERWjjoBMckM/XlECUQJRAlEC77sE9J2dvaQjdClHsTmBjUj4X8Vl/YxXnM9LlNKL18duf2/FvcMXBX2J0mQVEVrl6AL/Glb4/PrsNdMdKKaOQIc0puqjEplqef7ywB0dvIEWyomDE58+qLL0WatsUN6cC4X2BSRBj4MWD46v3Ku3h4AFftnjo7GEskfHm3Juohil/OSf0RdoYtv9DuClSb4UdJsmuyhOnTWk6S0pfpXpYuVoUw6vF0IUIYW1Il4HOUqJy1Iht5RjVmr98c/P3eX5Jc8cGfAUf58HnOMEENNSdylNee5wioKdifXi3aX76ec3dkTEt99hgTDARHc4qLKyzGGZddFumUWr2zl0/85UU59pnt9/xxSWVkjRf+3KvMyqMfkf6dbhm7/+csTBn4CFrwFUACgZILQrMVVR7jwDPsIxCTqeoNO6cj8xVba9uYZTNwBpVTSZToO2+sxMIaDJsAE+NIwptPFXdhoqvTB44pg8BPRK1RXoM04I5Iyppp+evXHNizPXPF1zF/jN9J9WbUoRX2j8ocS/ACJE9KbApw4pf8X01Z9/vnT/9u+/uP/44TkAZI3sFXiWVYW3wFZ00T4yN/8rmKhA5Iqxbei0cngE0yBrgA2hnIBtx2G4bfMOqIzK6mCNBnLROV2SjcZQwNgO+jSW+LOgPdvsT8/xihKIEogSiBJ4DyXA9zbuI8IIUiV8ckuxyMM0XH4GIzzNHoowikZ+KH1AR9v8Rcru11dX7v/+f9+4HwEcuJWwegaLDdrlR36V2465KCRZSQRqNGWgnXulaLryIUGD/fTi1FbFvHiJEkbxrqBAwS3Gvj9nioMWmbc6PDlH6Zfdc3bkrTEtpKkRnRb+hk39LnUIJWcQKHyDFemP1YZrnGtKSdackvvLrzg7c4J4CzTU53ynMxYyPcd6UPvToZ0cLauHLCQ/P7/gPCyWejOVYwtnpCDRjsesjCq9plL5LSuDztlXx7FKCsWLFNUyTdguyQI3b9+dmyXmNVNJL0+1VFvOyM49e37lXmPFku+MzmnQSiX2LGRapkH8CCtX2/30+hS/IrKF66BtoAnFfK6l4K9OmXrCAnPcYg8cwAaA4N1Fyf34jhAZ6CgCG2w+NDZyFn4OPbX94k3Z/fAMHxb6KZ5l1WCmzf36ugtg5FyrS6xhLCv/l/84wG/qEjo6pbznfn7pTzQ3n2ccgtVj+Qld4Df1po9bMv5F5/TzFcvT1wCddo6UhjuRC4FZVLSF4Iu3Lfhow9MV8gfMYH3TlKTei3AJyL6CZy2HP3iFtY5pwIPjvnv5VueTCT6qLNRVTSFARmvOtDrvL8/e4c91yhjinwRCAwtD68Ick7WyTEvH9f5ZTQvVqiSmNF0mPR8tfE5lxWiUQJRAlECUwOwSCF+3RTX91/PwK1ll+FrW1zUTIszeyM9Vfrb64Uoiv171Y7v0n/+P/4LOQkGZMhnXQlGrIU0KAFWlZb38ppdzqzalq+ikaH5Ka5pJYKKFcmnakmUBDKlTLlMoCQJjdRSwgyXfmlli0z52qq0YOpMa1O1RmZyVTcHr5zp8V9nUReBKUxP6da+pLy3NFmDSaiztAlzD16SuaRlRES/4cLTwbbHt/wEUWnml9uRUWwMgiCP9qNeGfJr+UR8oxqUc8SLfFb+xYI2wQl3bN0ZSt1JeLVpJ7YMDMZ0NpV2Kgw4VXS3hlmy00aGnzYChxKusqBKYqyIHU76poTFpI4CuzBi0J37lNyJZdAAbTQ7h7Gi5tFkx1F/1Gk6gWxNdjrkQ77oNDBiVRH7y9zHZ+RVRS+wjIx7EtGTQZMVUhzkv8Sv5qrtBHnYquPEuudBf6qTYTknFy1cOzXJUVjckH5ANXcCyI7q6YFw7HNcFbLl1DojaAkcZjy1MSeZkbO+Sl5/BJiw9kt8S/RQfeullwdJBpQJKWnlnSMjQkHg0VKTE1JXlPNeRVLkponTNvztTlI1FogSiBKIEPhkJ8OWYufS9y40OsI1cTW/x/Y8/7eOnj906+8a9ffYfbtWduf/tf/0b949/wEcUPcZRiaaLegCANq4fQIibuuQLIXICMFg4ZPPXhTI0RsWsWWnQ1gFEpXSHKTOmhKRwdGq4LAymfDTHIMVDfalDf/nO+yfimoMSfbsUJm3SjvSlHHRlmblQulWijKGLAK4oA0jqggS0KdyQTiinvomubuULYPndfO0gR4RvyXyohM8nCAgm1AXE2JkSVkYf8KMykofJxJPpMKgdyjZMBml+BhWTiO9PkItZLyDXN58n5AXtAUYwHgBzCES317SBtsh5zo2wRSWbMmMp8JSMpfGq1mg38E7MAxEPzuRJ07QxCzKhQOYKbaoRbvpt9AyYJWlWXnmeTY2JvU+hKvkm6SC3jJzFG/KjeVkAB7yLplbAWR2148sNqio/XlECUQJRAlEC9yuB1Pd8mpFssn44YwTga1w/THXMTocd+dtYC9pYNm4I2EhRcAFcvNJT3FJGfITMwCrPlpTUN4ATqoYyUmajrkAvnZ9Lk1UqfUnjD7W+bz9TRQ/pBLXuObBP4zFwNAxDLN2Uj6dpXc8dtgWFYM2yYqMpBirZEqGdAHcoZUnJcwKgfF3VDOUDtfyz0kML5JnMVEbxUEdRe8N8gpFIZQ6KKS2dbgUHuYpkLRvkG/IQ7wLEmaKDvGxqUofx9kDb51rVpH7ejpStH5+iBKIEogSiBO5FAmn1MJIB/az1SMNWw2r2QsYUAE2bKRbdNwRs0hzktU86b5p4vn7+eRoaocy4uspL8guLpfIDuUyoEQgVFaafMwVnfAg0Q7X8c0ifN0zTS8cDvUlpyp9URrSKykhG497cUXlFtNTGpGtYb/bRSdUYkpnUYMyPEogSiBKIErhFCXhQg7sLv3VZjOzquKZo8Qfb8rIwCMsNrge3AGxusUc3SToqq5uU5j3SGgWGpmBp4juQpj2x8BQNxiJRAlECUQJRAgtJgK9leS6wnZttiqtzp0v4fNbxz+wAdLRdyKcLbBaSbKz8wUsg4pQPfghjB6IEogQ+RQmAZLSwhK6bnw0+oLZwB7CjNbHasy4Cm0/xvYh9jhKIEogSiBKIEvggJeB9bAzYmK+N1rzic8PqKK1CrkZg80GOamQ6SEAzRfNaXhapG9qPYZRAlECUQJTAvUgAAw2Ahi1RADLausT+sfJV/6LF5l6GJDZ6YxIQQAnXrCBnkbqhzRhGCUQJRAlECdy5BAzYsGrWg5v0xh6L7jx8512JDUYJRAlECUQJRAlECUQJ+O1BElsN4hj+UhXoiVeUQJRAlECUQJRAlECUwAcjAcEYgRpdQ0hjj3EqyoshfkYJRAlECUQJRAlECbz/EpDPgQ7X0fQTq6DsiTTtLJ9c0ccmSGJs6LHhsMhQgMO0GIsSiBKIEogSiBKIEphOAhP0qPCLFck7TwrE+CwDN/jZKNQuxOEC2AwfQuKnESKxcV3PyFwPE8p/GkJ7f3s5biwTrrPHNfjEwVlRmfHOdXMK2rka8TFKIEogSiBKYKQERnzhpr9rrUhISEILmIAaUT00NzxqOqTcaSguJ3B4q/xM2zblUmauW2XpkyY+5/uQvPNziU6vwKT605SZq/FYKUogSiBK4FOTwCi9m/0i9sdeB51AaL9CVVf72MhGM/qq6mTMcNCgD0cXvvmc29YYowQ4RU9Mxvn6+ecxdAamgDFlbiNrBhZHN599wTLlCuWSKTHhYQxtA7nj8keQnqVKkXyK0vI0rUySmM+bApzf1+vgJXaN4YEg/S+fdD5fGunHKfo2IHYrkQwzM7RQNKgzVL/3orHfsw1BHO/Z5HUzpf33xwKyV1V71f37XrIvH8U5EaqvtU2KC8SUzbYg+4JAjQc2vt0STHi7Q/IMjWQqisqeLgTu8rrNRn0n5+/NIvXVrwl9m5A9lu9xrInuuPyxhG8gc5F+TZLZDbBnTUwjH5UZ1ZdreROEPiH7Jro1Lw19kfRTc9Me1EwjoHlbnKXeqAGYhsZ7LPSJ7H+q/Z4omDEFPuTxHtOtiVn32e8b+p7Q9w9fPP67R/0Jt4ANt/IHIMfvOuytNj5uwEZKL/leVu1P23l4kemllDIofPcSIRfmKXFS/qiKqjfqGpc3qs5Np8/brzwfejunvSb1e558tV9UL/A1bT+LaFzr11SFrtUaJgSmhim3F1uU1zxnd8l7uu2b7kea9jTx2O9ppHRzZT7V8ZYEb6vvi9DV+5+/oack061JnppQVJc1x0M6bZARLM1+AgtgY6ULCluNj/gj6fdt9vDaAOQam5SfKx6GKp/83j3P2q98B8KLnE+/jedRr0FIH8fLov3M9Cc0mEmc4WEco2PI5Jsd26dQOIRj6E6VNSfPU9GeptBN9WOattJlJvV77CCkCc0Zf1/7PWd3pq72KfZbfb7Nfs9DO7z/ClOuMMZnoBfK8Kz5rpBsUeWFW4OvTE1PycIjK46movp+/srsQKGyyn7sl+SyaH9H1Q9jIhkWlZmUP43si+iGeuPyQpnbCBftV6g/L/+T6k3I9/PFXjDeLEo81Mnzln+eJM808XzZQCufPsvzSPqTiV8rEfo8aD+VsIiVc0AvFRnJdyhzjbuQMSEMPIcwV3xesjkycz+O7fcizIX+hjDH4SKkc6Rmf4SnEWx5WjfB3IgGboL07B1Oany8/Z5HrMMRonZJByJoGkqUhEV8bp+/D38rW2l+Kz6bleJsKI68tJI+xyhQhjD54q6W+m1LUJYKfzxX6PKoHnkBjsqdmG7VRwyr8kzA4/IntjC6wCTWJ+WPprxYjvV7MRIL1Z7U7wn58+vsCYT1Jzi2yNjMySIZOy0a3sEQ5skpPZ0nXgI/+VB1Q5riN3BN5D3N2yztpftRVO+G+1HUxLi02O8C6eTfxYIiI5MmjLeA5Lyv0sg2Z8i4r/G+1X4j0zn+jGRR8XhD8tNTGHcBG27xrJtoSbeyMcCUdKuKriL9mmQK3FTLvQumtGqUFKgZVFPVD/tKUN7oTswxIhli42SlvDH5Y7IyTYx7mMT+pPxxtOfNW7Rfi9YX3+P6PS5vXJ/zfOWfre68xAPTi9QXQ4VM+V7N9KUqPlK8ZNBeLs9TX+BzAt+iPJb3MU1n+C4qd9N9KWpjVFoYqxAWlPso+61+Thjz2O+Cl2FMkr1Cqb/Xa0Vv+z2H/rjmr/GjBDEtvCFrDfcApABcQDKy1Mgh2Aw4BmyAPr0aaW1uhQn4oWF7m6w+pFLfgdUne8t8d1SSIh+hxcYGXp3OXzOPRp4Az8XEPWUTeUGdJKm46ujy6ZxxrJO3COl0M/PE5/1eGrQ1L/PjZCLiC8rFyOd5GzyHxkM46M0gMig6SElHRtdLlxodH03dr3gane/flnS+eEnzI6e87PNoPubJSbedqs+L5FsdkZ8qWhxNamd4z5dM9yufd9vPI/oFS8nX9ZwMfKD9preT39VxIon9Hi2d23nPbXLISM9KX+8+U0m20ikYVEhjiknLuD1daPZIk0IhvVKru+21iluqO1cr6y+ky+3bFbVwBxlU/8e//8J1LV/FlP2xXOqU73hxj8ibt7uJvIrpKtWLeaySX6jtMS2P6/LoajeaM7bfk1q6J7kU6b98P/LPw/cnCD2EuU6SPLFbRQzkyBQ+WpPjqE/4u7ZOpeuL2WE//JfH8Nn+ptLFC5maMvGaQLP1FlXw4YsvSzX1lOpnKvX2oxPG7Nb7re/FmxrDWaR16/0WM+l3Nc/c+9lvDcYiuvf63+jd9FtGFZsyGivzPC961svHrb//9HeA/h65wwiW+xVKVYAwGF5KVVdeXXWNbscd1Xqu3Oq6siw7Rs4+FePZx6v/6ft91+0FYsMCVuqD/gjiCWGuM4t2dQRZ3wqv2sA8lmuXx7FVrxe/ljKJ9fv6vhaj6ff0GuMTEu5bLmm55ftx7TnTl8B5CDOZ9jBpzJK/x+sVJ6WMbjKpqZbHtc67mqLhX9tUgr2t6ecJ5Cbxm87PkU1nDXkex3u2RvYpEA9hNtee5iVdQGqmpDEsfbr9lgQnvauTpCzBjhHuezned9Dv0MQk8c2azxeH/+4YI/NCmgF+kJn5YoVe8iWsocJOwxvhgU0bkHNZLruDs0v3crnv2m0sNpTNvjHDAa7+/su1zBdbIR8xcSYJTBrmCX9+E9vKDub14sPhvZ53mymT+j2p7fuWS1pu+b6kn2flc9J4mVzSjU8SVDo/zVg6fYZ4+LXoWZiC4Ly85nmaoql8lRt9vql+zMrUffdb/N5H32O/Z31Tbq78LYy3QI2ZRGYcV/14CuykII6nlfRY+ZqY0t0B/LR4PuyW3NJhyf2w4tzJuV8XFejkBVXdW5fjcLxuWgLjxlp56V/Js7StgRxjDBq8MLPQvMmy4/o9qZ37lEvRH0i+L+ln/0c9qUc+P/2HPF2NWCpKIEogSuD9l8As34OhN+nvw/T3bvh+NR1H4eB90yajwd3t9N3RVcnVqlod5VdIpesH+gqr8kvWFYj5p/i5iAQ0QGGQiuhY3qgRKapQkDau+n2N5aR+F3Qjk3TfcgkyzY9dvl/z8BloZzocH6IEogSiBD5QCczzPThNV/VdKVATgE0nQU+apdLuNbYqqtdNrAMqLU6y37DsY+MtANlkys14jatvApiR3izFx7U9ms4sXM3WgihPoj4pfzTf+SG8XnI2bq/XnzdF7S7SL7W7SP1x/R6Xp3bt70CR5NLUb+ClqF8hL5QfF05qe9jSOCqT8ia3MonCzeXfrHRujq80pdvg8TZopnm+ifht8HgbNG+ir2kat8XjtHTv6+9zWv4kq1l49HRnoZ4eDYtn/GuSXPnNQNRADexoqoqTul2VtIqeCfs9Vk4J2PANLY6z01mejgGbsnIX4hDianHcVdSJceVnyZMwZilvZcXvBJ4TsU0ud73xUlF/EybV6uz8ZtsYW39St7KkbvRp3DRZpqE0jzctlzTtTKOjH8TCuFd4IG8ixeM3utFB3ZHNq+7o+iOrWYZxPl39ondyPPHxQhlbd5o+TZaMb2LacoGhaWR5k/yFdhXeIN1Zx2vcCzxgMcgmhIOMVGRWeavqDfZ75m/HcX0J3QplQhjS8+Gsfb/hfk9iL83uVOOtCjfJY2BA3jWzMBvqJWF4t0OoZPUH64ytESMqwCJ9UuNDK8Orfvm263V7rtvtUlSb3FhFI5rmZngIpgqkc6zodB+TlNkCpCcyMKnt8QRMKuOLzJGrAZEoR1EflT5HU/MO2TxNTa4zZceKio2T1+SGhyWKaA9zR8esXqpyKjq60oScNI10fEK1ObInS2/OP214CW/zHGyN/AsYT0u8Zvmd3L9RFCX30bIfnTOkN02ZYWkfm6dOngYysC/66WlNX1JtTSo9Kf86v5NpFtXxY32T4z2+d5P6NSm/qA/z1LlOxwOF2WhNLh0kO6nkpPwhv4GiH+/h07BEOlaUP64tfd/oGtZTzO6kmj82AaQDKBK2YVG31QkYSWWrAgaDZgYREZ7lCk2PquOR16jcxdIntT2Kujo7d4dHER2kp+U6cyvqUvoqIBB6XZB1m91KczV3XDynAWm+u3MTTiqmZb8Irbxsx8p8xLtkfV2EianrjpeifV3kOzQ17XkqTlMnSHQSI9PQCjSyNEPNEIZS/o/keuowf97YNDSzPI5qabYxC+MfwtFUfc40fI6iUZQ+Db3p+j3fF9iw3+LkOjchJYRFfZgnbRp60/V7tvEOvA77HVKyYeAvhNnceZ9kVzHLSoGkA83RFh140Ze0WM+wpXTSBFgA9b4FnIZJ0sFPYBjLL7GhcLnM3jaU62LFqVgG+R7rGNmhxUaV5rrygs0/G6cjKGd6NaLMuOR8W/nnRemPa3t8Xmg5hNdL53m9XmJ0iv0JDLJnpzR7jUFj2TdxmDxlzNuyrhceLad02UVLLdbv6VpP85v7u81m3fHTqL7P06vbZ11cZTnOPk3DQehZCKep8/6VmaXf05Z9/ySy2Hj7fodehfD6WI7OuV72vlKmHUPxN23Zm+33kJq+zUfzoHLFuT7VLC9yDE50SrYstZOGhFt0J7VIp11ATafjXKsFB/jclDDbsBrcQJDKLghsAivpMMShHjhTdEQXs2Ws4IwfoT2FIS4SiVRmpHYTxdXy+NbzvM7Sqiirvgc36R5PR2WRtkML43sXSuVD/RkUAZvZqM1WesjDzfR73tYzr+aQKR+bm2ie0KTnEW9LsOFOqn4b+QV9Tyd5jkfwPYYf0UjTKSw6O9lCMnMlTmROVG+JwVsiO5UcCvqdTvKszc9gmtY1fuYne43UzAljGQvUbonBRciO4FvJIhvC0INpw6AHBlpM30H8N5xTQERtpe8e5dsAm2YLfxsQjsCNVk9paXiXvAWBjThQc/dxhW7eR9v32ab6rdcpXh+NBO5zSO/rz/ejGbzYkSiBT1MC84KakdIa8T2o5OzXlP+JbECID9yIDdi0cSq2G+vNDQCbkWzGjCiBKIEogSiBKIEogSiBG5OA7P7mo6Pl3GzE18cJp8e/LudIdTpdLDmdCGxuTNqRUJRAlECUQJRAlECUwEACN2nVSVttelhlNA3VaHSdzk6oco7U8sqSW5b1BpATLTaDIYiRKIEogSiBKIEogSiBm5TAwuAGRGO+N0nY56HLfdXsustGz62xe1+tXnEryzVXJ6xhxRkAGzU+zZVGTdfLT0tlWHP2GsO6WV4WoTSkeX+xhP9spzw7Sst0L/NwoyznKRexc6MNRmJRAlECUQJRAh+oBMKi7CL2g4uwTR4N/GSCjgmhKbfhgxHKPWaJa1WUfGtQTm2chht4EVeZllopVzkjioMztZlfusZYYqmC45XdtFS8rp6+dIoBosU8zEstS/vun8Q3d3GnPDvKu6Pu5ZsZx9bdyyq2GCUQJRAlECXwPkjA64q8xvCcDZeCjyoFKNJ+NjNfHtjYyijQTanfdjWADWd/uwrWGlHMAJuZ6ccKNysBjcgoFDHP+N8sd5FalECUQJRAlECUwMISGKiznL4bpNNCXh2Gon5ayoObfqnMzsMcjUnhkC/mIrBZeIhumEB+NEU+Pdo33FwkFyUQJRAlECUQJXBXEpA6K1JpRWniSYDFQEuIEPqozvoG2GD1sQ38UgSYjYpXlECUQJRAlECUQJRAlMD7LQEDNAHAEMpSI5ik9GEY97ExccSPKIEogSiBKIEogSiB91cC3krjIUxfDsTyz1GY2H+SHDrwyQGbAPWE7Ybx9FB64aRTiuPFtdNlh5SGsZAfhiI832WY5vw6Z3fJSWwrSiBKIEogSiBKIC0B00pj1FTQnio31GDZCh+sj00AJkPP67RoiuLqeLrz+adhnaGwhmlFMaMWCmdIZ0WuuqGY4pmiSrjzSxykOZqWgfvnfFpOP6hy9ynWeV+FD0rAkdmPXQJ6je/zz+hjl+9d90/aqXg8farATdCyIR5qKGcOYBPwUuhqtvk80AgAJJROh+PyBuXS+jfblBVJ08i3HTqqgulykkgBqYSeFU6p/cBACK2YxwV+gi9JSAUcua4CvkYIQ74fkDwHGX4yD6HeMMxxMsxIYhOqjy1VVDebln2axEuWuWzdbN40T4vUX6SueFuw/tjqYzOnEcwCZWj73pqf3HC6RP5dS+fNLgBqL0Zg9iYHNe6tYTh4f/udl8rNjrfv+mAI7jSS79mdNn5H73l+tO6mWQ9qEp0KCxZj2dTMwMYPUeiEnoaDdl2FC04M82ceztDMiIpp2vm2PV/Ztu0p0AxhnjaFQi1PUwXD7QsrvxRATZ6OMrUezcDNEN54GoFyADdDej42/We+2VDTeAsPE8PAz+iC40qM4mE0NeWMozi+5uK599n2JO7fZ94m8b5I/uh+F+Xk37miMotwc3d1P1zOF5PR+H7nc+N4Lybtu6mtUcqPlG85P54ZfoqrZIpMevAto08DLUvQWql4FUpA0MPDDy86Xyik6cmnB3kWErHEMLQKQzyUDmn59JAfwyiBKIEogSiBKIH3VQKTNeBYzheonrYtKK4l3+Ge2WIzlskPIVMYQsIM4RieA9zwsh9OwRngkUd2MiiB3BC3hJqBeP45pCscl5cuF+NRAlECUQJRAlEC75sEEkU4L1sDBTqBQFCVCpO4gRtbGSV1HPazmWMqakLT7212RvQSCgnCJoVXStBWJP8cKpE5pOGJBRQpyWfaDHUy4SgGMoXiQ5RAlECUQJRAlMDHK4GUjh3XyaF+pZTUJ3dIk7Wma1r3EwI2ElYaaBggySSoBJel6SO5CcbCD8v0Eg61jE78iBKIEogSiBKIEogSmE4CUqBjlK2ywzWIJ+UFbpRmOxATvr9TUQPOQ1cIQ9qYzqdKT45m6CTELY24P5BiSCPAwlDHkJEewj0sqljiO5xNDE9UCV0JSTGMEogSiBKIEogSiBIYL4GgOxUW3QI3VcsJyno8vSlzRSw0PWWVfLG5qy/admg4hGnGckIyoKM07lRWiIZQoggrtvy01TRTVOl2s3FxVsRdtlR8ihL4uCWgv6/B39jH3dXYuzjW8R3ISSDowbQu9N8J/rNqAblTf0kMnUoKXrc8lfxzjjs9pjnLZ+fzArmQHp6tXuaBlOxzHk6kl4oPmVAd4T0uqx5oDMN+WFdmti+ohKyCKn2R6gnWiGEeymVXsuPVeUwu5YTuhLRx4Sxlx9EZm5duJNW/sXWSzHHFx+VNQzuW+bQlkH5/0vFPWyofb+/TY5yOf7w9jj2TMjSdmoRpVTRKOhzubXVUD/WKQi37qajZX5pJNSblJyxOw/Wo3oxMH922wI1vUt7TIZ4HFqrvS4V1UD70dC1HH8nUlFI17RQAzrXWh+R8i6CdEoWzwCq0OLJTd5fhuz5XeyaLuWrGSlEC00ng2t/XdNViqQ9UAnG8P9CBW4TtlD6dRGagrnhRBGowHVCl9B772Ezq0Zz5EkQPq0tXoUENwZ3w5+NDPVs5KyPQMbT3WNmkuAIJU2FFce4ky1x0KjxUDcQoveK6gJpev0u5iqsM0qnENRgg/xg/owSiBKIEogSiBKIERkggrTOldwd6uJRYbEbUu/9kcZrmfkGOAkARqOlAuG2h4r4ZZo0AHiUASN+1Ol3X7nVdDwCiGaVQ10Lye11SKS+AUgPd1JhmqhIKyFRBOBXidfhf4q4arBGQEm11yoOgEN5gF412/IgSiBKIEogSiBL4ICWAipRO9JpyQg8GylO7Dev2td7fVVGhP1P1LhQeHZqlhWyBlC402wikiRCueG4SbxG2ACxtUE8TUHN2eeUuWi2ADeICrBigsbDsOp2ea161XB8kVK9W3TL3Sl1hhbvsVmtlt7bk3CoAZw26S9SrE2q+qo+1hsAsRrLy6Ep3cTBOPit+RglECUQJRAlECXwaEkAZSgcmv/+n6nMJvS13kDK3dKrcPN5/YDNV1wQ7PDwIwCAdKh5uWWl0n3b67oT7CqFckSlQ0wSotLqEAJuLZtc1ADA9wEkANhKZBN6lXlPoqIelhrQ69ZeATEvUrYOQVmslt4YZyIANxVYqZbdSrrgaYRXLjkCOrDlB+EQT7ochSXaJ73hFCUQJRAlECUQJRAkUSSCYLbz+lD4NurWo9AeQFtS+D9PgRimyzvhpJG8hAXd4ywww5y3A5eVlxzVIawjQ9HpYa7oAm57rAHI0BdUvVy0U6vCikxcNFhzWkpXLwBNQjug3ye3gO3PV7rgy01e1Zg/g0ndLFNdU1BrWnLV6nbvm1rnXmKZaI0/gRnwKZWogNCC6iy6Vi1eUQJRAlECUQJTApy0BaUOvkZO5FBNHWnfeKLBJE55K8Kowl8YOlXwHszS8VUU5Ah3BQnMJqrngvgS4XGGJeYeZ5l1DlhqV8b4vHZaJdbHC4Fnjl2UL3ABybIm3VjMR91QFoYJI1R5ACGDj7GaairIVmKrKogONc+otA5pWsOasVLpue6nqdrjXQTQbeBjXoCpRlCmnW6umbL4qGTy16kWlz/GXys5zDSj7hqYiMagzVelYKEogSiBKIErgQ5PAOJ0ySQcU1R1ZZ2SGl1jIVmjaV7rSdKRvRYuB5D8r80MW2ISans5cnzOTGFchL5VMWWUCXeicXVhP+n3gBGV0C9QEYHNJmbcAmjetnju+6rgTLDWtXhXrDPsTIgXwh4WK9yveCcmVJCJuOQljhSlh0dGN7DzQUaMCPhXQCRYYSVP1FResYbbKtfHPaZFxRQPlBuuiem1X7nbc/vqyu9ysuIeYbKpMDGqqS1Wr1gZtQrNEXX95ZBo+PcRJskYEiURG5I5Ophf+GkRCwuhwhqKjicScKIEogSiBKIH3TgLSJaP0ib77lTdKB4R6IUx3blBnEEnnjo6bPw2tekCj5TiKS9N7fS+trfaGOw/P2IAI3c8F2wZmxH4QmZjn5r+6KFDRJMQggy9Nxx21Ou4An5d3eAyfMQV1hsVGjr+qLqcjgRFZSYRPSiSUARv4AbOyCR9rnGxKAKYKVhizqFBcFVVNAKoLANGqKk1fqd0udAWNMPlgxfG4SA7JMuaUYa4EyKliRipdcVwXabDnduplt43Tsaam6rQpz+4Aa/z0mh9Ialm74uA2LvUJFuIVJRAlECUQJRAlMFYC0+gLlclfIU0TE3mFZnkjlJB0tWUpRN/aKiibSRHAkW70elkYwHYezjf8QTwbuIFTkw5dBBBIKMGP5oKHU8q8bXbcq/Mrd4qz7xmWlCYFtBpKYpA/TJl6FRAKhhp/I70K90qNFU44AVdLVVu+TZQl3ZQhDHIXOtRUVgNEI/+aBgimyd0rCRXVXVurp3BE7mKJ6dJuhfRKpcp0GLxiOWpT+byK+Wy95moAmz5gSOBKS8h1eXCjXulZ4e1daeqhf7fXWqQcJRAlECUQJfCpSiDom0TVmRiUFtJHyUWaW/rJQI6BG2+1CeVD/exUVMh9X8JCfR7ULmqfjllHkI6BDPjW8m35tMhK87bZckcAm6N2D+tNxbVADW0QXhdAU8e2U8ffZYlpH90rdQGZClaTEs8lgE2ZpdveiiOwEW5ZdMQBk0XWtpaNt7DwNGGnBThpQYcJJ9dhFdRFE/8aGMM4A19MZ0G7TFuastLy8gso9DDrVOCxBV9bOBlvsnR8nfxVGtHgqB3fklr1gxoGj4R4RQlECUQJRAlECdybBO5cH6HfBYFsBkX6k2cZJmTaQHWiJb3uvDeBTNWwuLx2eSVvAuVDU0JyEr4kfkIndb8C1Lw4OcdhmGkprC49WURYbt1n7qfXa9kGetpzZh0gsVGruq2Vstta1mqlii3TJmpLudW02rHV3cSYQDLh1Q1kMLtHOdvEDxAka5E2/tNKq0vyjwAyh52SO9UUFL46PdBRn1vuMz2MOi2sRV3mp5qNtjto9NzDtRX3YBXfG+rCmhmjNFAB0KjX4iVeUQJRAlECUQJRAvctgfvSR37vmgTUCNygYz248TMd77fFZsSoCcjoklA1nyZrjfaiEaA5ZEroLRvrHTTb7hzU0WL6p8e0EFmAGpZiU6uOZWaXVUl7tjIJcIMVZQM/lw2ksQJtgRpwhyFAWUvS7SiuS4ILQENpfZgSH7q1xFt06jjNrLCuex0rDv7CTEExZcUgyDrTZnqqI2dkqAtxamVUGcuNDGv1ZTb7W4IDEU54ET+61KauwId/ip9RAlECUQJRAlECH58EpPPCPdR8GAhM8ZJDGPRiCD9IYKOhk6VEAEeOu/JzuQAcCNi8a7fd64sLd4YJpynfaECNqwAbWI3UB/CAMWyX4Edry+7J+pJbg4amfVaxrqxwa/M8CSUs8y6VgBpIMLjvCopIjGZJoV0DTEkoi41uMJJZcVZodoN7kxVYZ5hoDpiTenfZdj0AVqPTNnAjgFPF76amPXMaHOOAX44A1iab4GjiSYMnp2L++zat/fgRJRAlECUQJRAl8GlIQPrPLvShdKJ0o32GOGDAp/liHxywoR9mpRHAEKjRcQjyqzlstd3ziyv3jimokxYb7fVrgAsmjAAUEsQS3V7GMrO7XHF7y2Wz2OwwLSTrDMYUm3YyqwnxgACH+8l4YKEs+bzYkxhJLvCQt6AQSrgCXUoTPbsAOtrPpgpYWQbAvGPaqYf/TZPVVmX40+SWzpDSzsdlgM3rC9Z0sTT84TLnMtQ8FciFlo2knue5UmzPUz3WiRKIEogSiBKIEvj/2XvT77iO6+y3uhvzzHnQYFKS5VieIifOeO+bxGtl3X85n5KVeGXFtnwVW7YsS7IGauAgkiCIuYHuxvv8dp3dXd1oDAQIgBR3kQfnnBp3Paf77Kd37aoyBA7SQyehb1geBf06JivF5PSo9Lf0qmb3sA7dmvxA2nL7eO6IDWgCFkM+OO4ypRtnYQjNl48epyWtVdOSlaYmf5r6yKiNvdVlFZmSQ/A5kYSXNczzqswoDBdhnYE2MOPJWGD1FDjVAU9nSEcejHKbjSKJr/KSh4DfjF17hOIAtybCwkwqhqYmRWzmscTIr2Z9pyWSJBlFbrbUEY2gmWNzR8Tmzvpm2pAZihlbE/L/gUwhZ9Vkbkf3Rw1ez1HL71vuoMoLfPatJxIDgUAgEAgEnnkE9nqlH6QKjtOxmowSY9Kl09NjWvRWulb6WqozbWx00pZcOp47YgNYWGsgNlhs1jSs842sNYvqDDOf2jbrSPtpM7VaFpAJdXhSi9Jclmnm6mSSX41Ynp4EpIY9ntg4i2ElezjVE4INGovwe93mQISOyuzl5Mai+nNYfVavsuNDg8yUJu68yEprajw9FAlblHWJad44FUtcWW7kfKwL1tr5ZkODaRAsbcMwbgQn+/6AAYH6IgQCgUAgEAgEAi8OAtnIYMYHlKAUYkfGiy0ttbIlCwHHc0dseHg+DMVMqDWZne6vy1l4s6XZTzgKQxK0NaXMUlhq2HF7Ts7Cl0RsXtY8avxpGH4aVSUQG/nx9kiM4vGnsWDspiQPIKggUpOPnEbuqoQl+x9yZ4dfpVqd2H7kmyO5zkueUcnV6WymVVmabFaViM2WCA2zqiS2+fjc1w7ieH/PyHIzr9lb+NoMtldJ5c3GORAIBAKBQCAQ+NYigE5EE6KiGVfBH7bNPo/bW6kpI8f2M0FskPFA7UwmQl7RBS7ClOpHOj8UGXgk68a6CMeOhp7qRjxkqZEpZlb1QmiuykRzXqxAHivG5LCaiEfAHqq289m4TEVolJpZhF0UAlL/kICE1rTO/Tn8TkNSSmPYa0YZ2SSzrVlZjdpE+kZOwywkuKMhKrioxtHM52ZdDPSxJrI/GmvanlINkRtWQyZQq9dsEfEnEAgEAoFAIBD41iOgmcTSn5Na3Fbzf9IIelykoKGRj3FNxNnW7J2ztdjABgicD9TSOTOKn5lHm+rMIx0PdLOklX/X8djVcI1tIsmGkyI2C+rdFSw1mvo0KSaDnwodtiEiGrU2qTezv54MhTCDRCaLoTJVIGt1lElFDVWGbMEhHsvLtArVtSAfQ0yt9npahtiIVLXlkMPKxR0tnLOhNXfYX2qpidVJ1ib1YULEhjoyvdFFhEAgEAgEAoFA4IVAIOvrumYry102ycXGXD3YIokJOi2NhLTktzpiVoZKC1en04UHOWlY50EO4SYnFD6EhgO/GluMT74199eqISiRGtuOQOlYRSAv8yICL0+PpEtyMIIQYCkhnvRMbHShYH3mj10Qszc96SYNydtXhSrzWvrje20TP6l8bTHPSxPafkF9vL+5ldoiOKxc3IbAyALV1macy5rC/lAL9UwzLVxxeRZXlrQrCqIfIpT5XcZDFPtWZMFkaTPdzrA3z4IMZ9j9aDoQCAQCgWMhkLVr1l5cM73HtKEUO/qNURsZc46mII8l2WDhQsP2kxspIikjCA1+KD4Tqqm4VW2T8GClqa0TtNidFL6mEMkcBbHZ0YwnbSopYnNNq/jOyecGZ2HITHn4nCdDYlAeA6qkAMrgMnajq4jufcGNivIk++HNcI8sEBTkuKghqR0xzW1ZmtbwuVFcW/1lJ076vNJqpjFNEZ+fbKcp9Z29pCBpRw207905ah3PazmIBeFJCM7TIiPe9tOq73l9BiF3IBAIBAJHRwBGgO7snSE3NjNZupG9H4+jH48u16FKZgUE0cGnhp2zsdSs6oaduhd1syl6YFsdkEEet+YsrPG1S1Nj6Ryr94rssH4NjsIQCUIGJF/nO7+WsiexCt1LLhClG+HXOcL+Fmlcltk9yc9KtgBdw6ubBzClhueV4ZxmdG1oaOqhZkptahhqR8NS7Cu1qaGpdT21JRG3KQHBosQTOAlliHKFgw3k2D3/7pV9r/g9KxpMOHYFgxU+nXvIRHkwlR5y4wTH0wbj8LYnbTD/UaXCZGptVjhRt8tw1DpPupxjU+Jw0m1G/YFAIPBsILDfK/2oafRsv7L791wlpTOhNRz2TzoSlcg1uwA8w8Sm13PpAhuCYuPIdd0sykrzSGu/NEVXcK3pqCN1WTuSyMDE2JgW4RtNC7KCMNXb1qqBAJQkANRAlcOCwOhee1QVQbnBNLIMxJW35XVV28Apr4zDY9HEdA1JmbFJPkEiMBpqWmVRG/nWtLVvVUfMZkukZl0L+y2rizOaBbZg8eqS94kG95JzoOXy9mA5y9zfjmuUM2SF0BCR7AbhZySDB1sAQ17PD7khHJmIVG1Y/f7sugIMuTjCMx1Sy1OJcgwMI32vIgQCgcC3H4HjftOPW344woO14nfqPxh5Rz9jxIb3uL/vYV4ElHdHf3AY1n6SWp23o+GabR3afgD9JKU/IgVlHtEiPVNSPrPakHJK/bOF98hTVkylZVCdu0jNQHp5O+waSWkiSzwsh8dlQkNuVrZhYwYeCXJO6MyeVXNaRHBSw1G24JDiYKQMS23rzF5T65oBts2GnrrfFRBiMAzJNpjlRbh3MlJaXjzO+i+c6tgyB4LnJxql7qGvrEfucaacl2VhKa4hCtTtZKksavn1WfZPSylDme+0rumry2n9FgzeHz6GT4LFackc7QQCgcCLhACKTkf1in7mLDbIhYi9IP8a3bCrdkspWxAbzVVf13BNC0Uk60VdB7ttT2o69LSsHjMawtGuCeYo3FdXTy91Gymjem0++VVfO3sUz21lhZWVVo7hIeBvw87iM7qhH2MiOThE02epQK1KrFlSskpttHStbRj035/hHq1V0TRxGOH2r+VbkYoC3ksJD4snDoXuRKSrzCs0hpXZE6jqOVDG6+srXzwn0u2onjDXfXn3bOTkEpzY0ILLx/VZy4UMEQKBQOBFRqBScGahyNfPDrEZqnwVqf+2m5IUAgRnSy/5DQ3VNLXGy84oA0160XbaZuGY1eyiWTmgTIkQQHQscKouc0Txd6/4IsvTvcwNQmpYsYZADHYCs9qIrEzrYlrTwKda4/pV305txuH0nzMrKm6qwLY21WyDisvPOVeni4FrT/O8OUf83QeBkki44naCQ1oZPL2MG7w262NlDCI/dXm5LklQtVhziLc05ccfx9NLmQbrP+n7YW0jK8H7cdIyRP2BQCAQCBwWgWeD2LjS9XNX+qxE7GWvy5aUSlPDMVsajmnJcoO3kPSAxqo6aVSzn2blWzMr52EcawvviR6xKXWSt+XnbpsnfcHwkkQWpfGm0Xkc7Ao+yTCaHIintCyyNiOXhYp5UXk4jp3At+QtDQ7EQmyoy+rhT9k/3VrwDH72+Bf0vCVQNzc30/r6uh2zs7OJY0RWMg4nEuRpNpuWh1UtZ2Zm0uTkpJGS0noBjAcqdz2b3tPm49qxlTJXVlbS8vKy1UvdE+MT2v8kk3X7zNuHOz8o5DpUWzn7U/vreGxryQHwWF1dlStbK01NTaWJiYk0Pj5uuD21BqOiQCAQCASOicDZExvTyr1ecNuL4mXOkXe/3tBMqA052nQ0ZNPQdG4W5EMBdPTSHdWCfHMaz5nW6neQmv56FEHoVZzvhzKBKumETnkICkGgMpnk0BQxbHbJ4n0TUrCa2GWO0iPib5AY/IxsGrjy2L1k5z6rO5X3Cz9T6VkHk4U/FfDV6SzFun//fvriiy/SH//4x/T++++nv/mbv7Hj/PnzaWFhwT5PKO47d+6kzz//PP3pT39KEJC//uu/Tn/xF39heVDoTjS8LweSmyoj5TY2NqzOd955J/36179O3//+963ua9eupcuXL3fJk1uJvG4/e5tPeqbtJ62D/ODx6NGj9NVXX6X//d//TUtLS+nNN99Mr732WnrllVfS/Pz8k4ryTOY/Cj7eEf88PCm+Xj7OgUAg8PQQOFtig6KrFHGh/qreQQF6/3Ae3pC38KamO7Myb62hKbiy0njQDuZpRsM4U+oRncq0IacOq/tsdaz/fu+XApltlpT6Na39pJab7P4t4laxFnOglnLCgZqD6ew4GXetUxWWjslJnXmJY8VAQaPkUHxjmo3Gr/jp6WnxTZ5A7lv+K8GwPlQPwpUA8rkiIA5rwNramllUqB+FiaVkVA7VfTOYjtEx2rh9+3b63e9+l/7jP/7D5P3ud79rsnu1tE2/bt26ZYr8wYMHRjhQ4siDzMhb9qPsi9czePb8WI3o5yeffJJ+8YtfWD2QKixHly5d6hajHW+rG3nMC2RwzKnKZfJqPa2MBw/kvXv3bnrvvffSN998Y89jbm4uXblyxYs+V+eyf95nOjCIj3eKeHBwSx4WLIgnzwyrVVmHl4lzIBAInA0CZ0ts6HOl77js6WWudFQRtjifXixNDUFt6uDeth+QcieLfIXlo6K9oHTmYOsE4pzcuC9KXqFQiZRSevWHi1MLUBqatub1t+qitU8crgusUzMpS82Idujc0QrLdIZ8bQiNprmvSDGu6MlNSOGPMn/fSld1KmNfnbmh/rgq/1FPEBmGcj799NP0P//zP2Z9wNLw2s3X0ltvvZUWREjqNkwoyfRcBgNKwmcFuUKgzs8++8wsJF9++aUpUqwpP/zhD9O5c+eMgAzWc5R72nNLCMqJdlFYyOPKjrNfkx9SxXnwANT8NLMkXmY/uTyP14UstI0sBG+La8/LNWHwPscC8W6MPe2gM3XSPmFQJn9G5PG2kQ+iybBdKetB7Txr6d5v8Hf8OJd99Xji+IzwmcdqBTGG7GK5+8lPfpKuX79ueFBXhEAgEDh7BDAQnGlwJeznfrXMy7xS6sqwrRcMhxEbSc3wDKl0Qa4pec0aXeOIW1ptSM+1oIm8JWLPJtBynnnf3z76SSNqJr92gtC1FA5KR+SFTtLflhxKm/K72dSLdltr3qCSOLpWG6r0LlaXrveIflq9RukxRAO54Zc8QzkdyfTKyy+nmekp2/qhRmcICCDZaZyTKw/OBOqCYHz99ddmEUB5YNV4/fXXLd4Vr2U+5h9X3q6sqJvDZaJ68mB9wnqCDJwhbigylLnloTOAyXHI4P317C4L997HQeVIGVewXu4o58G23c8IqxvXWMfc14i8jgttIxNWCaxKN27cMKKJMqcMJOd5DPQRskIoMfe+02+u+RyC0ePHjxPDmB9//HGCeGP5u3jxYrp586ZZrfxz8TxiETIHAs8/AuiS3sv4TC02PtC0F6iI6g6y+JNkSw2L8lGyCrz4ITc683sJPxWNUtm1/X7SddY/XEASVKeVJtZ/YfUA8WpP8uytDZ5pU+/TLC99MJG5sBQDQ3cmvS1MqGuGpyB1xHt95D6pwMseRYCzK4oNpc+wDb9gITi88LdFUkbHZJ5XPvL35MLqIVkVx+EBBYNjKooDcoM1wMkEyhSletIBeUpygeKmbSdXKDH6y5AboUs2ep07lIhlvw9V4Clmom2X++HDhzbUdu/ePRtawvLwox/9yJ4tz9fz0TzPA+IKsbtw4YIpe7BhKAoC+DwGnjWfOycw3l+P5wzZ5jOJv9WHH35opIbhSYblGILjMxEhEAgEzhqBSiu60UKk4cyITU+tOSges1tTVGKbs2wHZSmNz1RYD5AaSqH/u4eSvZ9WI38gRBUpsiEEU6672/N6B8/eYq/E7pjBMoP3lKWUyaab/rryHX/zFf3SoQK5JWLpg2J1ZCfibLGh31avzkNDrnBo0pNGogT4pc4v/KtXryZXjiiBh4sP06XLl4z4mKVJGLtCNRFgNgMBiwHkCN8N6rpx40Z66aWXzDKA4uTXsNcxUCHBx3YAAEAASURBVPREbukffYPI0L+hbe/uxuFk4SHlh3m4/E85F33hWFxcNB8fiCSKGyKHMucgnQDBcZLDc4DMQmgIYORpFvGc/UF+P1x0+u3+T3yW+TxyQNghNFhqGIaCEPHZKINjVsbFdSAQCJwGAv5C9fMZERuadxFyt3fH9FR7zmtDLnoZtbVGTUeWF7PkqFitusg7gefaIAJGHKpG9CrPEYrM/8hHnF5uVZ5ccu+/ZCuzQjgGY/YunVNcF/bLpjSTi9r0T/2p9IqRGytTNZxlzaQG6xWYOLkpZTtIjqeRjlLDUfhlDT3xsmf20KJmzqAkL1+6LAV4Tr/08zBFV4FUAJhS1HPkjEJgyjPlIDUoXGYfoWixCNAOeVC4J6lIkQUCVSp2V1akEfy8H35eZr88Z5WG/PQPxcwsJ5Q1ljaGWbCYIbtj7Xggq/e7jCvjz6o/x2mXZ01//PC68KPhc4hT929+8xuzzkB2+CziOA6hwR/qeR2C837GORD4NiNwZhYbVEW/MvYYYisNWOUQjdG/rNBzqf50v/MH1a3XLwYzWH3ZyuNlnuScqy3L79nQ/tWqGDqT0l1SU5XIcSVGdGJXR3bV75J4gunkg4t59ic6M0SE7wnDRgxTbEk58guXYY7rsrjw8qd9s45VNaM4uYekEFC0WGvwq4HgEHAWhtigSJzYWMIJ/nEFVyr2QSJF2vMa6J/3jSEW/EbAG0WO4ibO0zmTvwzPc9/Lfvg1/RvmFwNpARMINlYbyDufcabiMwzpn9dhZb3uOAcCgcDZInAmxKZ8ZWZVQUxWeK7KTdErNpMaj1VE+cL1iojza/DUNTqoG2VWnaIO8hwzuIrrtmH0hEp7MUOboKAfQ7J6UnnO7IDMIgMy20AMsN5UMd0WKUNcCZFun3qgfYYCIS6QEIgNQxQoy4cPHpoVYF1+CBMT4zb1m13KrYwENAUpIVm5FiWBQkWJYOZHwVIP/gsQG5SKEw46Mahsn3bHXLG774XtHQWgCshaKneTq4u8MlT5LDO3J/0QvKEnOCMT/UB500cCffKDOF+k0Pvr5M767h+wos1nsZ+FeIe6pG/0g7P3G8sM/lXMynvjjTfss4izPD5kEJ+G1tKKEAgEAs8gAnoXnwmx6UJhyrnQCJXS5v2ZD/72wg7Tn6VQLU3FfDjKhqmUzYdluGe6d5+ysWb44wTKInR/9NAvHfV4TH/ddlcleQ6TrcpGXHl4f2wBPg3Z6Kel3FX0ItUaPuZRI4/hmhQUTtK8XrF9UBWpXFTVcmc3Fp/vnsrfTDq1M3ljJM3NzpkTJb9o79y+Y6QGUz5KwNagYU0bCQBB9YAS4UCR4l/DcAgWG34F41vDL2QIE1YglI1bGLDsYGVAuVCO8qSjjPEBQRlBjDj4de1WIW93r3OpnP3a2llZTfe+uWdt4WuDsyjtUDdErQzIAbGj35Tl4B6yhhz0Db+dhfmFTC5aPXJR1jPs2jDQdhoMGT1e1qEzDqzUDQbUj/UMIghuOPjiD2MWM8nJ89pYl2yrK4YzCxR+8MEHNoQIlsjJgoXUAZb0jzroL2fqJc/jpcfpq6+/Mjx4RqSBeencjaweeG7IiLwMfTkpgDwQHBfq8GfHkI8/A8O4gJlyPHcsKdRF4HkgJ/iCOZ8RDvLRPv3hc8RnAmz4TFKGNkpZ/Zq85zSMygKE9O97b34vvfLqKyYrn+vpqWkjNS6jCRF/AoFvMQK9b/TuThZfz92JijlO2aEV7hU5IMjZERv12F5c3Z4jmV54XQG7CTlKL8yddnZuNEZTvbB5ReYNMrX9gGCUQd0caykNJwBZqnQ6UzSwP+oqc5jQk9Jze0y3I1kGRVeGo64I3BMo4Qf31iel2SwwLdZX095RRmygbigO4VDXYoUjo1Lqyge5oSrqIFAv94Rum/n2qf5FaTRGGqYAWLwOZXP7q+yMipJxpUijHSmZmvpSlwJypYDSQ0GjqHBiJb8TG5QpygplRh6GuFDGTLfFN4QyKFsUEkocCw/KiHV0+JWNIqMdb6vsuMf7uUyjTcgC9TMTBl8LFNq//uu/2grFEDiUXxmQoaNnggL/85//bAdyUg4lS50oU375s8ow/UTJong9DJOTNOIh8xubG7bOz4cffZg++ugjs3BRN74x1M+spVdffdX6/1d/9Vfm9Ew85IHyEIvPb31u/fn3f/93I2CUxXqDHBAyfEroC4Topz/9aXr77bfTj3/8Y+svbYHHv/3bv9mz+Id/+AdLp09ObCibf3jkT+LmhpzCHy+ZvCzsB6HCH4s2yUs5ju9973t28OwgHrwXDA8MlNUn2TDWZwGMWf2YNY/Iw/NgvSPqARd8vSBpPD8+N9SHRRG/LfoCRjw/w0UyDAbIJ+kXLl4wOfkcUjcyU2av5zRYT9wHAt8GBPiG7P6W5J65znFdM9hfL+fnwXTu9yo7LO+BcUVlZ0NsvKd+7krskpFQvdx0SWxdL7EGe0Dpht+gKHhy8RcigIrYUoTWrxMhyA+DdBUrngw3BKU4q8gRh/rbV1W3BK0MC7ktb9FymEBV3iqhV5qeZIdg+sJu3jhK78jkzbTp3JH8mh+RjWZUaSxC5KSGWr1L9LlXb9XeUz6ZJBKL4Rpe/gwffS2ry8dSJgwtcfCrnl/irhBQCqVi4Fc1ChOlyxlyhOKBlECaIDWQJScLKDPIAkrGLRKQEPLR3h/+8AdLQzFRDwTCrCv2IegBUMpAbHnvsqL0kQnChTWJa1fInh9lS/soW5yfWdMHpcosGogCaShK8kMyqANy4Ns3oHyRnXr2CrT5zb1v0hdffpF+//vfm0JHYYMPOEFKaIczxIH6CJAFSAeEyofU6BvPCkXv8iAbBwQAvAhghuUEjGkH+ZCDZwEekBNIJHLQdl/QZ29jbSM9WnqUvvziS5t5hZUHTBjC4dkgE+1TJwdEFWwgw3wWIKlXLl/RkgF5IUCvn75BhslDfS4XOEDGPtcWGHwOkJl+kt7cbFr9tIO89IF0+ocs/iy9DdI4SONLBGZ8M+nnYF4vE+dA4EVEgLdWn34bAsLeb7YhmQ8VlVuk3u5BVNEQl2dDbMoOFALpzdFNyQb0rM+Z+QShGdPLUMaLVG/nX3xMea5p+AqFznouTb3TITf6gdrtNBXmWqmxrL/b1KEuKFmK2l9oMCXnRvn3Wuwv0X9HeV6fkLSa9aGpqHa1MB8zpWi8rhc1RGZMQ0Bjdb301X9bA4/k3CTZ7Oiv/+ne2Qu+6hjX/KJFWaLEt7aaGrJYkgPxg65ytyERPbtBxYDFBUWEUkPhoIyYZUU9BJQ1afxCf/fdd214gbbYo4j2uIaAMJSFUsdKQj0oZNqiPpQUStQD8YOHp+11Jj8Kjnq49uCKFiX7q1/9yrZpwKoEMbhx44YRCyxQ5EOpkw9yhj8RMkKG6KOTEa+3PEP+sNKAAaQJwgSpwCoFQUIu4ug/e19BnMCU9iAqYD82OmbtMWSDFQYrB3JCBFH2PAcsNH/5l39pfUR+8OWAABw2OK7LK8vp448+Tr9+59fpv//7v41g0DbEFVx8OAg8IEpsLUHf6APy/9M//ZN9Bqbr+fmV7UNWwAuiwcGzZ3sMxwFcrR/6QUDfPv3sU8MFcgz29BUixOeM4cUIgUAg8Gwj4DqNsylUXsE67L4SHf1HtIezJzYuSSmVxUEKZPrVNdsMNGpSoJo9PKEfiA0xmJr9gtL6JvYv7/zNPlJNOZ60VcDBwMnWryE2DoYpK2MDLsBB55IWeV6v2e/97K1wX3RMl8VdlTnX4SUgZU2ZbDa0s3d7B5OI5FdcTasNczTUv/ER+VSM5n2iBEtfGLzvS3wKN+CGciG4kufXLUoQq82ChlhIv3v3nn55PzDLCYoy//JVGRXt4CulPJAWrCEoG+pgeAYrD7/oCa7wUYTuTIwyRymRF9LCL/GV5RWzDFEP9yhKyBGKC8VO3bTvgbYHD0/b60x5r4OyBEgVM8BQyAyBoGTBAfl+8IMfmMwodPKTF2sTGGGp4UBelC8yHxToA3ta0WeIHYQJaxhkCxIDHuCF9QOLCtYjsB3XQokQHHYOd0sYZAUyBKnAmsNzBCsIE8+KMlNaPZrnAFE4KDiW9IM+Qdze+/17Jgd10GeG4MAFUkWdtMOzfun6S0aeyIdMPDvy07cbN24Yht6+t0M/IXxunQEDyuDsC95Ye0ZGR8y6c/7CeesH9brFD4wgvZTxz7C34WfePrxbIgQCgcD+CJzGt6Rsg2u/z9coQb6tnLOOP3tiM6CYM4Q5kr+oI14ycs/Q3kgVsdkRu5GSNzMFilZ5tIWUdv7WC09OJ20d+Kf4iv5kgMOYM67ykl+/vRWnmrk5dBhCbrz8ropIyNKrKQvVKd8o2axNksar4GzERuNp6zLZtHZkaUAhV/2F2MilRcSmJiy0wznyq4yXhwCeRhhUBihdlNR1KalrV69JQS2bUkP5otBRZJQxWfUHxYSlAlLwuYYPUFIoXRQwismVKfkgJjdv3jTCwC9+0rHUQDLc2oFyhvC0tlvpo48/sjohQwzHcEaJWvuSAeVIva4ky/Ne2FF2kNgQh9xYXVCYEAlkxd+DVXxR5D4M5W2TH8WPLwt7bCEHw1hgtFdAaUNEwABFDEbUC0aQHOqmHogNuHD/uTCFbKHAwfXceaVphhr5IS2UJT/KnbYhJOQz0jExmYmgvnC0Tb8Z/jkoIAN9g7CBBRYmAn4zWFB+9rOfmdzIQAB3PitYXRg2hFT953/+p2GD1YZ8yAeh9fz+7GgLMgdxIx+4QMzwLeKaGUvgwAeO8t/5znfMt4hnBXkCF/JTXxmsTBUxmFbmi+tAIBDICPR/g04fFfsK67ue5UDDcJzVUBRtI4mfkWRoQBn6VglS6Mo/rvsRKfp6pyXiosX6jDxkH5tNsQKGo/CzaSsvih6+QTP8hUK41SYD0RNjaPP7RQ68FFVxL+QGdU972echt0Qmz5iv+Yvzs+wxuAbLV0hDUVL6m9vyHRGxwWplL1ksVCI2dTkQsewdm346kUEU6uFdftoB2VB+KNVz5zDxvySlmn1esGCsSpHwaxwlqc6YcymKFGXJL25XTigfrB0oMwgCSsaVGwSJMpAXiIrVpY5CbAi0P7+g7R204vGdu3dMqaNkSUdxogjJQ0BeP/zeEqo/hnUR4Xn97EnUibUFqwfKHPKEssRJFYsKshJHPvqCzGBE/yBokDosOMSXCtXr97Mrbvp9/pz6PyuipqElnLYp52WxcGARgdRANJEXjDms/1hmtIna+M64PQdkoW0OsAFz4jjGxntE0OXY7+zYOB4MMUHiILsQlps3bxqRQi7kJb/hwgdC/yEftAkZA0/I1ufqB1hSJzgiJ8HLck28W3Zu3LhhpBecyMMXgjOkkP7xGYL00E/IDfJZPipScBzzXfwNBAKBZx0BdB4vELSsvUjs3r76Z+hjoxfagDylbCZizgK5YShKLzKdjdgwJKOjhdKo5nXjY7MpDgG5Qd1BEozY6OxNZVLTT25IO3LgBdoNVU3emM601CU2ZtGB5PQOSnNgSYLQQG5aImtb8iHakvWh08i/wJnajYXKhqKUzm9eDmtKFfhUavpXSaHUkw+uGFAKKGCUyCsvv6IhpsfpthQUxGZZSmRe1gCsBORHoUFSUCwQGxQZSsn9ZiBB1MeB4nJyQ1k/6JkrY5eBvFgdIA7eDvn8mvOg8vKynP0gj8dT3kOZThyECX8ehl3oB23fUD9w2MXygTw8DfunOgnI7ESFoSqGR8jnStsyDfxBEaP4XaZufXxwiocNacCaBTnEokO9lAFvn6mEZQtCNKZ/yOE412WdQTYjOdX1gBgH3tIWJAQ8IHrUjXWJ4TMsM1hRyONtln2em8+OvAwlQfaoA8Jrnx85FPuQG+W9T8hLPIQF6xhl3dJHGs+n1daeZcIP6xSkhucCaYL0DrOS7fXsD+x8ZAgEAoFTRcC9SHgN8iLMr8N8JuZsh6L0Yta7qhtM9xcvaxK45eD3NpaKCbGVKQ3DTIrAMPtpS+e2KtnSsab0Ff2we9zRL1HlwwU1D0Hls24VUA1QgCpwUcjg0cPPg5l17x2gIZL1Qs/7UUFgiILciKSk7e6xI4sTcdtSOpCzVNcvex36bapjRDt3y1eEFzOURfE1WaeY1j0j5TUzPpJGq1+vVXOySnG1O3jsobu3u4r9Y+ir+o9CQFFBKq5cu5pu6Zd3c7s3ewXCg7JtyO+B6d4MI/g+PCgvhoywYpCH+giuAFFSXDuRQHlyUAcKyg+UKUMMDAtBNDwPJMrr2q8zrjT9DCEoD5eJM3moFxnwE0JJojwhFqXFycroc0j7HugPJASlDC5YGLCSeD/J5xhwTVlICLJABmlzdWU1ra1np1/u19cUJ5JlTrtyoMYaRDmGucABy5XVmY1WVGv3RnrUFyM+nP3Qd6obJDrxjkU3j+etzqTzLHietGkWJlmt6OPEpHycRJjsm6f8JR60A+mBgPD8IUMQG5cdbN0yRzkOPmtgRt3g7hg6WfJ+gan1mzZUBrKHbMgJXuDJswBfD9TvZTwuzoFAIDAcgd6bbXh68SYZnuFIsbTaa5nJNVnb8q7KpoPeN/pIDRyvEJ3u08mK6Cc3TkAYkMnEZlKKYmZMMx7UA5sFpfVD2jqaqmhVzsPLcqxdUpqM8WlaLynrMC9n2qrE5QVLcHiU7RChzISgSJSVgTVCR1Bi+ic1YFG0nokNpEZDI0mLhu1oYTmtuNPe2RKBkeVCSqcxqrU7NANkdWdMh4hNZ1PEhjrUjvpSl6KBzMxMTaS5yVGt5ltoKEmhZq1vpYRcc3ifdXkyAfB0INGUiM1l/TKe07AQO3wvasrv7Tu300UNEV2T1cFmcUnZoIxxcOXXOUoYJQWxgRRAYFxBlQI7saEMv+YZ7oDAoEipg2umAbvC4kw7hyU2tIVCNMUmvAcVOOmkEchHvShIhjVQvE5sUJQoVA/ltZdHiWOZor8o80FiQ1naJ7+Xof8sskdfb39924bcnBwyHXzx0aLJgjwcKHEwAQcsF94fr9uVP+dhh8vPCtFlGc9b1ufpEAWeB7g46aCP3j/7QCozZT1Y//gIqR0sLhA+0ukDz8+H0rwMeEJEwBkcyc81nxnqIh9YcU0c8nJPoCz1sdAgDufISV0lsSGf1cOLqCcm0RECgUBgCAL5DbE74WS/PrSaW3ZSw+8xfd3lwiF3ld3inHyMd1jqo2qsgkYn3nke65JADlAVCDumF+C01reY1NhTo8nwTP7FJ2O6SFJDpKCRHm3KsqNKJrWA3aRecFh6dDIYqIfWqhZ1dZyApKIfbMpJjfrP71LiIDXbsrw02/pluPU4retYXnuYHq8uKr8Gy+pakwNCpqM+qpkno1NpQ8RmTT4Qj1rjekBaR6OjNVAa8k+paXp3Tet/yOIxKf8KeA2t0LofujzzMCplypAMlgv8K1AYd0VEXpaC3W5tp0Yr+0lAQBiCIuAXgm+KWztcQaGQUDxYRLDE4H8BmeHeA4rKLR8MwaD0cRClbhQcB/VAPLxej+dMGDx73QDraZ7PlTqKEmKDkkSZUz9EgsOJDGWNQOtBWT2qr63hRMpykM+Uuip35etpHs89GEDksGJ8Lr8TiB1WDMq4Usa3CB8j5IHsgBf99fq6fSouvA2XkXs7+GTx4VIgzdLz7Z5/6Z/j7LJBNiAqYOLYD6vAMaZt8kOIICxg6gf98HzgRn0cBMfR+zOsjb646rlSnx996XETCAQCJ45A9YrJ7eRXsV33xe8hBdl5fbfEZJqaMNQyN41s4GgrjuNMiA3y9vriV9AXhaE9y5YbXGnH9WKbloKfUocaG5omq0KNERSKuiL/k00djzTJZEK/uGY1fsPMIyodIV9Vt5Mbmjt+yK6/HWsn15aJmIYr2ivpcVOrz67m4+69L2XB+EJkRbLI6rStB8AuCTsj8hwa1SaS8iDarmlBtZlLqT6pZeJH10WUZqXAJkToNBNmRNNv1REsHw4Tvcs9PH5PjlMDMqDEIBqQDPwZWHANRYvlACKAIkZJ+TRvlNONG3lKL8QGheYKC6XGsAEkhdkyv/71r03BUw/WHQgRvicQKBx1XalTB1YDDyVpGPxl7srSz15mrzP5XIE7sUGR0yfaHSQ21JN3n8/khVlbWxqio28E6qNsKSP3YIDCJh8Yst7ML3/5S1vLB0sX5BEyePPmTTuDuVtFGIoDX/pKvRx7BSMD+iAZoeEzpYMPVh9JGEj3vNRZ5nNceA5cgwUylc90UI4Sd+qCDDmxAYdBYkOekth430o5BuUabDPuA4FA4GwR0Culq78KItCLK8RDrwwLxGvxfREbGT30nuxIL9j7Qu8NRnBOndggUM9Sk+96gtPlMkARcte4ws9kTMeUTBbT+Nlotb4NTYHa1gsPBoevzaY6hZPtlBTDotJ3IDfVKnaceHdDbAhwEe6PFpCL4QLqQHkw3LSlv820vilT9+qj9GhNSl2kZq2JxWY5remoTzWtT5TA8RmHznaNGVBbklO/busyN23rF/nOI9U3mdqy2NTH5lNNZGd8ti4LlPwRavLJkBVHNVRHJje6sXDkLnkFRzyzQjKKDEUL+UDJYmWB3DAkgiLjgHhgfUBBMxsKYkI5Ah9OFBWEgTwsOoeFh7zMsIHIcDD0wzCHHxAAlB5EiPK0wxmSgJLnzD0H+YYdTqosTT4hTjC496AasnKVX4jXTTpEh6NUtuT1byt5cNzVQGI3nyt2l5P6XAYIgvsNsVUA1zjJ/t3f/Z05wkIewQ0iAIGgLqxHkEEnOfS7lJ0+kG/wQGY/SCv7MLSMCLnX0cWlwhpCQ3+6eOj7SF7ihgVvizz0GQsVAZJDXfYMbNg3y05+PiMQHyeFxFHew37teZ44BwKBwPOHgH3L7V3Cu1yvV72a8QKBJ7T1HtjWbGLcIE6V2GQq4GD6Xe+FlFOGvQCx2FSr7qojU+rNtEjLpIakxrXYW1texJAas35UL+klKYmJbSkT5R0XAiOV5YaTuQ0MNutiHepcyQ6hMXGhKXJy3FmRr89yerj+Vbr94LN0/9Gd9PDxNxpu0nCFSM+ISNbIlIbMWiIysjhBBEakINs7EBkelFYTro+m9vZSajc1lb3NzBX5Esh6kxrraaw9I98hrcZqA17Yr/qxQqr+mEN15qllYtsLlCnEhrVJIDUMnXDgM+EBYsNwiRMbSArl/Bc6zqQshQ+xYUVaHElR4j//+c9t5Vz3S0GxEVB+kCd8MnAkRYmi7JwwOLEhrxEM5edcHqZAFUfA38PTPN4VM2ebXaQ6qBdCRhyyo8yHKVUrqwcjbw4ru1nLG3i6Uqctl5H2qMuJDeSQ2VMMs7FGzt///d+btQo8XDZkhhBAABmKgxAQvE5kOuxRkgTKIFtZlnRfYJF4fS2t/+RDHvDgGmLq1iyck/PsRROr+4fy/pzIQ595huDFsBR1eR/5rHv+ktS4bFRq8hTnbkNxEQgEAs89ApXW5ZWTFR2KvFJ4vIoYgmpJJ/AePlVisxtZF9VTspSVrB5pZ+Kc3LBH0oRengsTY9CJtLWOUpG5X8NQO+osL8MN/VJ8sLouIiF/nGmt2aGXJZ1FdVmni0aKS2vroD9IzctdUOolrPblR7Oy9U16uHo73V/6Mj1a/SY9XnugtWhWtVig1suoYZ6XqUwldjoQFpnORG7q9oua4Rn8cTS0pllR9Zo222OtGvWlJpJTFxNrtBZTU7zg3h0pwI31NHr+pl78F2XRkVK1TRbw7MkI7Sc7+OXwpD3er9Zemil9PRfIBdNwsSpgPcCKgI8IhARli/WGvFgbyEd+AgqRgOJCKZIPhY1Vhum6KHOu3bpjhMFKZEsPeTn8F72fXfl5fr+naKkMufY8VbVdpe7KlDzIyT5GWBVwAkZOiBtWI5SzK2vqcPLFNXVDmtjQEgsMQ3SQNmQmn8tCPq5R8tTL5xkSiKUKTGnTsXKZObuM9NvTqatLDnRNPPfl4QSojENegslc1UE6ee1oyAomAsrHjjw8E+TimTIURr/ceZm1d9yKlGvNf1027kSXrK8QVAKzoyDI9ryFtZNNyhDor/cFebgmzftNHs/L9UmH02zrpPsS9QcCZ4mAaSlXUa6y+gTih6sWSJXLyboGOEalUxvSlZOT2mxYMzBZGuWMiQ3SlpJznXvEX+48hnsUsxOTSQ0VLEzU04b4xfKqTNiygNgWBHrBtiE26ty2NuMb1/jTnAjQmF56LPBHh8sWc2uKPHTA6KVfmvrHlG39vtbMptW0uH47ffXg4/TZV39KK5uPRHmacgrW8Nm4iIzIT0fOs9YfrEuavt1mjY0GTsaY0HCUFEmqc4i2qU+yKSgdQqa2xNqaW5vpfnNdDtPr6eKEFIiWyE+1SREfrXVTUbZBC07ZJdrhcHzLtONc+3OyOirFAlHB/wUljPJHQeP865YWiABKEsWFLw7xBFdOMO6m9pyiHEqffNSFckfREUyxyRrHmQNCQb2QKBQ75AJFz5l0D57f6yjP5fVgPuqxuoQhU5dR5PQNeVCsEBCUOcNBtEv/CJTxQP84kBFrFlYYynmZQTl9aIm6IAwoew5IAnGljLTpVhL67+koXK4dW87cIzN94Mx9eZCnDE4YyjwMq4EDgXTqwsrCM8JqRN+MuC0/Nsdm0snH4cHvHVuIIdY94p3YQJYoi0zeB++39wW5PI2yXO8Zes3vmSUSAoFA4GwR6GqqPgVTyaTRjS6x0ci1+Ix8T+WaotXVx0f1btaPx5HuO/9Uv/Cm4iVltnpkZcvLqCeE5yCup5K5ymp8UlkXVEQjNmlNQzziBppRRI047eoCD105265qltRdsZ82rEYW+jYvViWjdmiRMwfB2qwUJZLkFy8p3HGC0pAPWpOdhllab31rJd1Z/CJ9s/J12qytps6ofC2YKaWKcz6VYzCQsoiGcpGPEL9CsfzovSzihaLQS1l5GOqoyWIjpqZ0ESI5ne7I4tPUeUnyf/1wWvVvpXMz2ndnbEHya7or1h4RHGqopLX28jVSe/DrMpenPdmZGqitrybJNyJFxNRv9o26fPWKdfrWF7ekkJmiO2KEBQsMZIVhKAgCAYVl5KH6UKKsjeTIeoOSh7ygtD3wWWAq81ZzyxSib6RIHlfarvC8fld8+dlmReuK0IZM9Ew8r8tCXneGdesAZwgcTrxYKLA0MHTGDCaIBwreFTLlCchFP8jz29/+1giAy+FtggFxyET/6TMYEOcWKdrm8DLkoX38kdjsEYIHEfK6OXvgGiJAf3y4hzaRDWLk9Xp+PyMLB6GLF8+J/9XzgqCy0CKEBizwd2J7BHCAoAzWDb7UibyQQnDBOZrPhH8+nDjSLu04PoN9G+yj112WQW47RMg4D9ZBG91gXeP7zie81zYfdr63bkHyOr2ubvm4CAS+JQj03h67O3TUtN01PUGMGoUJyBYgnSg9uyW/TOn2iXH9QFM1Nfmk2NuRr+5+Aj5Bk0+QlVYhNhzeeqX8q1rIkQ9Pz4qfARjtPmTDNNsiA6taKn6rrVkk2kdhUwXyonciDjKXr6r69ga16Fe0XmYdyIPOeCFkT4RMcGjI2tI4nb2ovUm109UL5DFyIwVsDr8iMPKPWZVz8L3Ht9PDtbupWVtL7VFZDJSv2y36U1WCDoDYVPpTbbHcv37x8rKs8ig1ExuDBw9vhJESMKtEO915pMc2ooEoLdbHZn+QJoakMrGhsYGmLcZ6V6Rw3+2k5TjKn2E1oMAmpcggNih+foV/oaEofHAYvkDJYalhJhTWGFd44I5CIoAFz4kAGeDXvB/kN8Uk+Tebm12lyB5FtEUd/ive8nWx71eM1F22Y0oTTzQFV4gWp/K06USFOrmG2NAPLBT4waCYkQHSQDkUPde0wT0KnD4wLAcBwSfG5LTn12uX/H4gC8of4kFZypR9gtRg9YEQQCLwXQIv2i7roB6Cx0G+kB9/J4gT1jHIBen0FXkJyMd1SWzI48HyVR8lSMiNGzdMFvJgtUEm4rHAIBN1uwzIDpnimfk0fUgRM94gSHw+nPTyTF0myoPBfoG8ZRnyeruGn75vJY6klcEJDXHU5Qf3ZT1ex2B58kUIBJ53BPq/FU/em+OWH95iNnbIe0OOwvqei+FgoalpuRR0TE06PP/sG176FGLp9uCRY4xlVBIgrKtlixJpoBQKvy3TU3N6QsNP8lMRq8Fyw/5RGG1E5MxwU5PieLjJS1TOiZOaUq1xuFlVMKeXG7//OcR3Mtvjhad6qT+H3Db3WefxyjPGITIlHwj51iw278o1eF2rB2uIiWEm/bMK/GXJmSPrCtVU3VctEE/9nt6R8OyDNdYY05jhZLqoPZhGpRAePNCKutr2e3n1oXw8tBv2eflbpDnhIJ8LFeegHqtL5xwcuW7jnnBiZ172yHtOVosb37lhChmFz3RnyCUrDftsKCcpCOPKg/IoXkgRQ1oo7d///vemiFCCxGNt2NzQ8NyD+13rAGSDX/tYNggoYydKrui4dyXtis/a1ZeB+1JBuQLjDLGAAHgZ6oeg0Q/IBkNtnP/rv/7LZoOxxD/+Q/jFUAaZyAMBguAQTxzDUvjrkMc+B2oLeWgTnyLq8Nll7777rhEQV/rgBNmhXkgVw1vIiVzg433mPBjIA3HguYDvBx98YESH9rCWuJUIOakLeWgPOWnDZNQnDcsFHzgwBX+scPT97bffNgLHVHXIE+0wU476qY/nC/HxmV8QMvDg2bINww9/+EPrv2NRyo8cLgvy+OEkjDIcWD75tvKPYPE8Z96Iiiqfb1k/19TvbXt99oyqjMR5u372+gbrivtAIBAYggBfS45+hTUkY38U2p9DryQ7TDGrHvQfepwJw88AsRmijnnpSEj6TDDjhyIcA9LM5ESiflG2NNOoKV+aFfnVNPXC2RIxYIbUtq6t53qPbUuprrRY/VfER2W2NWUcCsOaMPjfmAVHFXfXiKGo8lIFDUNquGSoC2Kj37Ca7bQuK80d+dd8o60dRGw02RtSgzUHMmUV6I+vpaPiVofHc1+zBqoUXdvMcbaE0NOZGNNwzty59JL22pmUn5C6pzbva/q4HEpXH6SV5mKab+tXbeOctZEfN3UNBiQ/nQA6vOBRMvPaA+iVV19Jn372qSngTSkulA1kpiQ2SIaiILgC5Zc6pAaliMJGcRNQhjdv3rShFqwMDMGgNPn1j/UHCwDKslQ8pWJCCTnh8Xjqtae6AyXOCs3ieB58exRKYsM98ShoLDYMRSEDhOVjbWmA9QEZmBmGMiegtCE1f/rTn6xfkBPkpz9samlBTVEvMnLGyoH1gmEtyIu3gWUFAgDGWGs+17CPW1vADdKCpYhAXY4tZ+8PVhQniGAGsSANeWiTAPmgPreakO6k0Oqs5CUv7fBcIZY8W3b0BjPkpk6eH8+NKftYbqjTLTWkQa4oByniAB8nF9RP8H4gBwf3tOuH9497vmhGunRmiNHLM/RLun9OqWdYKNvwsmW+sm2uOSIEAoHAERDgqzP8a9hfmeXpZaRY/tbpfUAVUtI1fb9P3Xm4JxJXJaFBJft9ry+WX5Lbu0dnf3eQ04IyjOtiWt2aE9OZl6MuTsNrW1JQvPzkx7Kjjm5obvuo2NGYhm2W9Kt7Sw6NK/p1uaQp47NSALMMKyj/lNqA6XFodCs1QE1nTvL5tZehKUAnNltr2jZAs1uWNANK5v+2CJWy6chAdwXO1ehv1Redq6qNMBlxqxqR943knEpTWrvm4gX5oZzXmi3TmtqrX8YzM+tpuinLQVqWZagtZbaYphsP0+TcRSmyGSHIxosmMk2derCXPR8sgvCcmJg0ywQWAJQ0exrxXLACQFpQcK4UUDYoE//VjeK7efNmd1iHYROGKSAOKEKUN8oZpY91AEWOlYGhD/J0yUtliWEIrFRitIOFobQYIbYrSZQyh99Tn9+TD7lRvCh/yMu//Mu/2Bk/FxQ2ihpC9rvf/c4IF3Li9/Lzn//csAAPrC2sUYMc43J8QxYC9dIfLDYo5X/8h380wgBJAAMsN7QLBtRJPrACT7D51a9+ZfXwp1TQyMw99SMP5OEnP/mJESzqBTtIGeQEcsGGngSwIjimjgn1EajTZeeeXch/9KMfdYfqGHpzPCB8BMpSL+XAAiuNExrIoofymSE3B2W9be69T56XM99T8risnJGfOAgPZ++P1+XlvW0vz3MneLrn93xxDgQCgWMi4ArxgGoqTwF9f/mxqWNbbhz6scysZ6nl1Fprpi1t5ZPfpAdU9jSTUbx6RVRH7o3TAUsq/yjZcpJNIW/2WN3kKLPcjCmqgRISuWity2aiKWA7UhYN+aAwJMXcduNNUm6tdlOzljRwJPP/cms0nRcYm2qlKWC2BBBr3mDBmRR7GqNxladF1DVHvsZeo72CWuvp0Yq2SVh5JEuKVqAlhw1lqTDIW2epoKpI5XeFyhRkS+Jo+Emvem12qc395i6nKxdeShcWLssig9Le0gJvk5plJUdhTRfGafbR0qLkfJguTGpK9Khe2mJIyEewpvPlqf01bOi3AtRuXOQEpcXwA4qLvY6Qi1/mWAsgJq48UDwoOg7iUFgoOJQ1hAUFyHAJihtCAJEkDivNj3/048SUYoaCyEseyBOKnzwVzTTFBGGAJJF+8+ZNGzrB8gK5INA2B/lom3zIAoEgD9ceUHTkIw/9ZBiGurDKQK6w5HBQH+XpD0MstA9xg0QwzMSWCBAN6iIvAblpnzjaYQds2od8YJ1hCAtLC3VhYblx44bJQD0QKvCE8IABMnu/qJtrykGOWPSP8N5775n1B6sTihxrEzLSJs+EM88Lkoo8kB/SHQ8/UxfPwknn9WvX0x8/+KMRPPqL9YZnh+yOGbK/9dZb1gdIomNAOxz0hTjaAA8nc8Tx/OkH+TyQz8sQRxp5kJl4ZKMOl5l6yvKUcRm8nrIOPrs8G7D2tgfLU0eEQCAQeAIEePX1vsa7CuY3Y47WV1Y/TPghqiL6vuu/bmRRxnDxeOX0iU2/tOqFBHTF42lD+2bkgBc0Lyrl1B+iNMs7rWv14Tv3ltJ7H95KD7WeTZqeT5PnNTVYG0aOaMipri0XNLXICA5t8YttVQ5HDFnhVb2yIQWhoZ8ZTbWe0Qt8RqRnRnpuSrTP1SIEKU/Olv+OhJa7ZVpus5owe0GxAJ/8DjQcxvCWUSAjLCpE4FRd2r39oe+SRfE1PZCa5uLXOnIGbkwamXnp2o10bkqWGN0/WrufHq7cT/e12N/K6rL6oU00Ndb28NF9rUS8kNoXtW4J1dk/pOwp3157J3+VH4v9NcsMfjYo+h/84AemxHb0KWQoCgWPUkBhuuJw6VyhuKJAcdy4ccMUGKSA4RsUL2WpG8V28cJFc6KGWOA3grJGcUOoFuYXjCSgxMCHPNRJmb/66V/ZUBnyMBxEHtpFeUIWqAMSxjASdV2+lMkSsrqcWIIoBxFB4f3sZz8zEgf5QHnTP+SkLvqMcoUkkP9v//Zvc70iRsgFCYGY0TcOZCHvhYsXzA+HstTvliPapV7KoqjpF23RDvKRRhnru+45m+yyAnndEAmUNNaSf/7nf7bPKW1Dtty5mz5eOH/BniN18gzAg3Zpz7Ggzu61PpDTU3m4C2uU45gtm9n6BTGiPDIiM3K4jMjp9VGn10s/f/rTn5q84ABJQU4jsGrfy1AP1973G/oMTehHAc7mWGogaJQFX/IRvA2u/XNJeQ7DRP39P//n/5iVi88I8kJqqYM8EQKBQOB0EOArK1Wi7y7alveD2tU1y1CM82NQyp017Uwx6nT6YZfC74lgwlbpyOZZOTM0BIdZlDPtl4/W028/+Sr99+8+SmuyecxcvprmrmrGjY4xLc43MsEieJABmXLk3FsTyamJqdR1MEnaLDRa9XdSxGZOymF2XC8tjXFNi9xAbDDEixyqfWw2cg7ekdJqf5HuL36YPvn0t7LY3BGATTkqi2CwKZVJ6tJym+PsxenReiJ1yIzmhNflU1Pf0XBEYzrNTM6n129+L70sYtPoaAFC/B8efqKZUF+llTVZKrbWVR2KQeRKs71ePv9m+vsf/n/p+vk35B+kDTPVIya96RWvhgk0iNweiPc0P3va8c70z1tiyAnFw95IKA4UA6QG52HuOVAerkBo2ZXIoKJBEZXproDIx7X7UNAtr7sbr7hhSocy5LH8+gL4vUPTVw/Pr3pu5rchYbxNvyd/GVxGj/N0b5N477/3G7zoK0oavDxYX8CWnycK5Kc+x4W8Xr+X8TN5qJcy1Es/8DMhv5fh7G2U/STe2lQZ76e36Zh6P10mv+/WKZz9uSBTN96xL9omjcOD1zWIE+mk0S8C/XJ5LGLgD3mtLp5h9RkZyLLr1tu0z21BWlymUs5dhSMiEHhhEOBLxXGEYD/+e993q0G3ViPf06rKTUWs67gvnffZ/ZX0b//2bvry1sP08398O/3ojVfSuJZCmZe+vnZOMz21wG1blvtTHYoa2n2kV4J3wuHRu0gvIw5+aeZekidTC3VUF4/V0U/uL6XfvP9x+uSr+2lZQx0tDdt0Hi2lljJv6aU+c34+zZ7Xmh7mMCOFoF+f2cko198SuLTD4n4GoKZSLeplPLYlPxtZYOpKpF29GnWWgpClZqd1X6Tiy7S6fDetbcppWIpiRC+/utai6TkDU6oK5hGsgSrl68g3Bsfi/I+VhfXrvT6lhQS1JsplWQUuahr03AVNX9MsqOV7WslYWxIs3daeU5qWq+GuVptl+9V5MTs2/6xpEcCtnfXU7KxJ4+Ul+3Whhov2XY4TPAtCGaCkmABTTYMXC7iN1XBizQorP8ae8kI5lAppULFxz/NHuXB2ZeLxdMfiih/LZR6DgUxDguWTnJImp3JdKFW/9nNZhcXRJp1W2DNPTu77W+bl2gkBmfy6xIR4L+Pxg/fk2StQxq0Zlqfqc7ffVUGvswdHxoV4nqWHQRm83OCZ/BZXPRtP78Z7+pAzeQiUyd//Hhn2eM5G1Kp83O8Vum37oy6e815l6CflumWrjIP3e5WP+EAgEDgCAqgPvqfVuffmKeoiXQcWm7zcm/znKKLhj5o2lx6Z06Kp1Xe9KHWyl8ME9Y4MtsxLjfxWRoJyFpcxUvNAlpovllbT+1/cTX/47Mv0zaIWxpMS3RFx2JafgJa0Ud7sIMgQyJiWJxzVIn0jrGNjv3BVmRreEbGRDYeBJHunb2Cm3xaB0Y9BFLEyZAl00laHYoKaSqwF+baXtWP16mNNKccikZVuHdKkMg0RDJZ45ldf/lWpypCf/oiTYM0gb13kRV49aWr8XJqbuiSfGvmeXLomC05bwx9r2mfqXrr7SNOIVzTNmz0V6tC6/Mu9LkvPiEgcqxU35evT3NZeUppFJWaR5TW06ADBOpIvu389rRtx5Atv0Sqwh8lVxqTR6HFnWixbHaY4rI7ijysSP3tSeV9eezrnveItjwQplft+eUlz5d6Xjzq6/S1bPtw1ZcvyThqGlS7zebrH+dnjyzNpg/Xulf8w8YN5Bu/LtrneK30wfvDe6/F4P5fxg3GeNuz8JHkpT/4nLTOs3YgLBAKBJ0RACuXA16revZAaKVFNgpKeVxmIjZSiFuTXKM0TNnki2VGMrntd8XHGUmPWKl2j0mFlm7p4tLWTPr+/nH71x49kqbknHxQNM8nyIfOFEZX2lqwiWuOkJgLT3t5Mq5q1NDs/k+bPzWhF3Mk0NjUh/a9fZFhrRPuwNJjjrRrVOn8wj4EXm+4lJGvLaA9lWWy0SSOkRQSE8T3zyFYxLDEjanNyXLOaJublJNlMjzUDC6VYY/sEtWeHhoogNTUNP2nFl3Ru/mK6dvlGOi+H4TFtk3B/9av04LEOWYRWNx7LUrMh+US2NDrBA2cYDcsI6pY9qDY317T67qYMNgz16MEqPiNW/VzWnUrZ33z26yoqTodGAHJKCKV3aMgiYyAQCAQC/Qjk12h/3CHvKGrFpcacH7j+tioUf6bEJvet18OuukVaBWNtuoTU4E/TVNbFzW2RmpX0wa176aPPtWLp4pIsNay+ixOgzqh1KR/ITVNOjlvaToE9nVJzQ7tjb6dZmZgX5mZECOQ/IKYEWdJ8KrPYsEM4u2xTR41hJQ2lZCKgs+JtWEpkZEcWmbYIRAdztYiMLlROvhGN0TQr58r5KW3gN3U5La+sashKM65aOPyyLYLyi8o0JOuodu0e1xTtyTHtAbQgR81zl2Q+a6T15qoNQd1e/FLX2ntoWysZ72AVwik4S8NiN9SDpPjbbMtq1FbfjHwpT/XYq3O3lKVUNVTXcQoEAoFAIBAIBJ4hBKSynBX4eZh0pGViM5ALA8OwAicVh4r1YEJJfGgH8dhCeulOKHIHITYy0mgW0k76amktvfP+p+mjW3c1RKOVYLW5Ar4l1ABZ4Zf0iAiJKXxZbaAuNSl/ucykTZGL6XOz6TtzU9oVVHs86WjKD6cphrOpPO08TqSyIjV4VmPNUb2ZDEAj1AaOuRryaoxqNdYxtb2jfY625fvS2tbMlfF05fK1dHn2lXR+9JX0YORRam2NpEXtIbWs6bn0kIX3Ruvj8qmZSlfOKe/F6+ncrGZojI6nRe0I/mDlGzkK35LF5q7ys3Emw1jMJoLE5EMCSQZqEzIMTykdq1CmgP6Qe2iSP4dhcZ4W50AgEAgEAoFA4AwRkIoyblCpKruWOB5nNg/S+lSZUvWfH/ZiADqLAzydLtDssAAZ2DuQltOzWkZohENoT3OfmkcbstQsrqQPv/wm/VnH7YcrGn6S+HX51TgtEqlh9obtOiySwp4RSYSlrplQ5+RU9J0Frfkxq9ViNQ18XXnX1M6GnHFwRF4XKdrQ8JLW+5HjMZRBZEGkx0xcIjNQQ1Y1xGqDrYR1mzuyvLQVDx+yMXnFM1tmRPFTWovm/NyorDXy4NEwUqstvx85/yLP3ORCWpBV58r5q+myDuZdbWxpH6BVOQpr9tPS6n2RLs3F1+ganE3iKI/qpjsVuakQM1lwomSaG7IiN47Ju4MqiRAIBAKBQCAQCDxHCDgX2EtkNBtMo6fhngKxcQXbq7TXPALlJntxw6+K0rqknLgCtgrzqVnSGNQXD9fTO3/4NP3p1h0N1WjdGBGL2ojmeMmqwiZYtMPsGVbobTCbSfH4r9RFVnDGfeOlC+n/ffsvtPDdTJqVA/GCnIlbWql4XURhTXnWjNzsGLnZFKFZa8p3ZaspsiDCYMQGOqNdo2VFqcnywyQrLWis/alkERKZGdUqxtvai+runbtptD2b5idetjU6Xr78qvZNUuWaDr6xvqzp2+taTfhaeuXKq2lWBGdmbFY+NffNUnPvkbZn0Cyojc1VtSlrDUNd5u9D2zrUJlapFv1VlRBBLECTE5pVpWnqHVlv2NLBh6kykoJmKNEhPkIgEAgEAoFAIHDKCKDyM0E4QsMUzEQmExquc1yu7JjEBlKDjcBDQU88yprjpuwD1gcCf1HZBKtJmczIoijpb5EM1qnZTp/cWUoffnE//fkr7Ru0KEdZxXdkyvCSMqNYDVaLiAqb3I1IyY+LfVxc0GqpCxfTW69eTTevaLVUWTcwU+Efg+RTOmZUhg3AcUzeFMkxYkP7IhXZGpSHo+Qdo38aohqZEumYT2vtmXR/mV3FRWwgWCI8y8tL6X7jbpqe+CxdmLuSZqfOpfPzFyTr61otdlmLm62kS/OXFXfJCNnK+lJ6uHRXvkJaUXf9kRyBl4UBa+LoYWmIKZOSCj0sUkKMFU5qsgqN1eWnI1mmRrU428i0+e6QnpHViVAVzTfV3wxcX9Rxbvaubu+U47R3FmWxyLnj8Fm0f1JtHuQE/W3t90nhGfUGAoHAERGQujB1dUi1QTZUv02kkQ7vBiUceSiqR2pQvtzlkEmLS6i46tLTq2yKznYF7kmjlpZYTQcBRSiw1qyIMNxZ2Ui/+eDT9P6fb4tIyGNGa7dgocHRd0dOs8ycalR7QrVYDE7DTpoLlRQl60otvaYVRv/x7e+ly5oVNSnlNK5y4yqDjYc2AID4WTXL2jdtEZ6WJsE3NcOITTT7DVzQHPnYKO+OnHUf1JfT1v3PtBklDJGp5fLZ0XLx9xe/lkOvLDRXb6TvvPxdrYA8l+bHvp82tNfT6saKVjzVYnyyNt1f/lrT1LWnkI5vHt3V0Bo+Q9vqkxyRjcSoHY1zgQ9o2ZCXZmY1NPw2Wp/UyshzaXpsQeeFNFHXkvs1kRvkU34LFERWzlVQtX28x+OPe+622a1od0w36Tm9OIgEnHS3jtr+Uct5f45b3uuJcyAQCAQCQxGQujB1NURtVGqsP12R6GEOX2vOivJHB/rYfDis1JBKhwmRSY0K9gXuvYLd1x7jOcqipEEg2KqANWUgHWtb2+njO4ua/XQ/ffr1A5EALUAnZ11mJNn8dWlrc6AVgakzLiRLC74sI5pWDXG5JkvNq5cW0ve/czXduHJezrlS+WIGY7KC0Om8QF42WRk1k2DI0ZHmR5aWWXR6hC3LSzmCHIZ3tNfM9EK6P6UtDbY160lrydgyQap/S7t+L61+k8aXRtOE5tRfnnk1XZyaTyNTY2lidFrpj9OS1sF5+JhtEu7IsXhR69CsmZVGyw1bv9QF85kxYmUES9LhzwM4Enhcy7jPTJ5Ls9MX0phZa8YlG1YsJFQGZzMZXN0r2ursPSXFRAgEAoFAIBAIBJ5pBFyNIWSlyipSk/VZb2Hc3A1boA/Wg9J7+oGKc8BCQxNlMy4sxILDrCVSyDKApAfav+l/P/gsvfvHW2m5KZdYLXgnzS/drsEryIy6x7oukBpmZTNss6PrSfnZzE+OpTe/cz39/Y9eT9c1C2pGw09j6mSDw2gLBIXF8TRlW+12pVS7fp1lK6VVRivLmQYn0paGgC7OXJDfjIaT1tdEimQpkpMyiLc6TZGXBzYstnNJa9uMau+qEfn3TMyk27LOfPXwM82WuicCJFKjdWqMnEHQVHWmUz1JnNwgHFablvx6JgXC7NT5NK/2RxoTSoLQDIReFTmBe48byBq3gUAgEAgEAoHAM4sA+rlQyVzCXTj6gjhEdyiqyN+XZ9hNpiiuI3NJj8v5q9qKSrMdREJYhvy3o6EnhpTaspJwsKXBijxyb919aFskfPr1orYS0BotIjU7WiOmxhQhHGrpnUwXTOm2xWhUx6iIzbisMtdEZF67djH9xavX0ssXFrT305hIjYqJEfhy/2JBJgd4QAcGccl9GPYXuTmwjGgDv9H5dGH+qqxLy2llS1O7NeupLt+ejpBm1eFNrDir2p6h8YXy17X/1LyGjqY1nftz+dR8mTaa2vtJlhosPfVRqFqetp0XDMztI5vJp2aRmn8QMnxr5mWtmZs+r2E37W5sPUG2InB7+M4VBeMyEAgEAoFAIBA4BQRcbfn5OE2KC/Drv0tsnrSuTA3Qm7j/Zu2Z5ao0aSFkmZ7ZFXnYYE9zf+To25bJpaWZSsxQeqitEt55/1b63/c/kxOv6h7FvVf0gxV1ITc46e5osTvNXOpo7RiW7oNMjI2OpAWRmDe08eU//Pi7chieTVNazn9EbTRUN17JbZENiBFbKiB3JekTdh0qBGwssDefzp+7rp3CH6cHq7e1+q9WCNaKObaYnqwvbW22uSGidmfxVnok683M5LTtePxY14vaqXtHFp4dEbKG+s8U9bZkZIsH5DLZJLZdi4g5VWU/qtHRCU0nn00LstYwdZx1cRhaKyDP/Guwg2Toy6T7CIFAIBAIBAKBwFkg4PrIz08gQ9aNlY4syx2H2FCPk5velWtSPw/o0a4dqVLe6gxbi7N2zJocgj/WrCfWqbmlWVDLMt8wMwqfFxsuUpW2A7OIABtJ7shRV9t1m0/NtNZwwVLz5vVLNvvpZYafNP0ZpyK2O9DgkHiBCIlIAcQo22nowZMGR58aa7KUTImsXBDBuJzmZy+pH80cCHfwAABAAElEQVS0LpLT0U7i9CuvOdOS5WYtbWtrhy2tZbPeGrctELaZ+aTqOOgnWDIExUaZBhP9NfFIUQbbAkJzsjTsNK99pS4sXE3TsgCNSQYNtInWZJn6e6QarBFqskb4GyEQCAQCgUAgEDhbBFBGWckdWQ4rTj3Sc3YtnY/ePbLFxiXpkRuP8bN5hujGJbfWTUHbSBK3OMdovhazk1blLPzeR7fS/7z7iSw4k6khi0Rra0uzi5Ra7X/E8A61maVGs5/qGooaH62luYkxOQhfkE/NG+nVC/NpTtYbjezYkJXpdaQQoWHzSe5NyXM6Uqj6IYrQkJxTE9rAcprp21e12N9aWn+s4Sft36TFi9WmQOaQhYm4jvqzpV24melUG1FPqEpymtOx2BszwiA2mdnwrOiEMuEtDbHpiNhoH6qLrFh84SVtnimHZFmO1NuC2DjeqtvMY3oO1mnaU120GSEQCAQCgUAgEHgeEUAlVofpM9dvUnFSobau3LGJzf64oNTJAaFAo+rQfyb2bCt+TZxlZbuTPr2j1YS//iZ98uWDtKx1a2oiJhgg2Bmb3bqZ/USos9IwQcqfVWgmxV6ua2NLZj69peOqVhaeGdc+TMoiKmB6nOwEWu+L8DjijxJMJNlJ5EQ8PXFeKwjfkJ8Q6/7W1IcHGoJ6bENRQlntCgcRuIx/7ktNZA0fobaG4ixeMnBmO4gsrRioTDkcdfaWEoma1MyqC9PX0lW1dXH2Za3Jo5lZVW+p1fq4qy9KQYZu6vBcu4pFRCAQCAQCgUAg8IwiYORG6lJbMNpvf7Qca9jVtPn08YlN1tM9vdkFIZMazEKZ1Kj1SoOzTYImOqUlsZtvtDjNOx98mX792w/Mp6at4aIOhEZDU5Aaiaxi+NfI4gI5QEHLN4VZTnNa7fc7FxfS3/3gNS2+d0Gzn1zNDxGnK1e+OI56tyEm+cNAn+paU2Zq/Hy6ckFeOxoSg9jUH8lnaJk1dcijPqgxZmzRJhAIGYvblp9QS4fcfuxg5eQR+QMxeIavjS0wLD+jEa3dMzk6q4X9XtKQ2w2RudfTuamrWusG/6MxatWxR6hIYX/qPvn7M8ZdIBAIBAKBQCDwzCCAVi1JDfrTJ9x0pE9rGxtPgdhU3aWxHKzZrhLPSpfxrzwGRiqkZlXs5uMv7qb3P7+rWVCLmhE1orVjZKbRwXYIlDNfFVk1cP6tY3VobYoYsMBeO12Zn5KV5rJmP12V9WJaqwznVVyY+cSQDqq7To9PIGRylQkK/aHl8fpMmpPvy7XzLTkVj8pJeCKtbS5p5tNq2tImmVsahvKhobb6hJ8QNGyUYTYRNiM3elo7WiUQKw0OylOaQTU5Ln8hTeuem76Uzs1cTedksZkaOy9SM63yzIaCm/Y7Qu+mLb2nY8AYJrtzWXT8CQQCgUAgEAgEzgABtFKhrUwC4vwgIufJk4FY9V/q04gORgMW7NXsmqdDbBCkFIaGc8hDUE5qMBVhg9mUJWNV1poPP/s6/ecv30s78hupTUznURsp9YbWnUHIFuvXSPCGVtthd+u2pk/jkTKptWKuX5hOf6N1al7X1O5RNV5XnfAiIzawNlXgR5blKf6VbGaFEhGxlZLVFkNSs+MXRGrG0+zMdFqYm9XMp3u299PyqrZJEMHBR4inwGaYbeuXLDTiJZAa+rsjM1pHhA+/6IaGn2Y0nfvi+evaW+pl7XF1VSsMn0uT9YU0XmMISruL6/Fh3fHAM+hh77Ee6U8pk8b8xIbmLgrGZSAQCAQCgUAgcMIISD11tRG6sGiOeNNa5PEEndGhLelMX2UYTsOox45mRx97KAqTUBaDFjmgLzkwZJMVP5pbREXRW8rCOjV/vKXZT/cepqYqyOvSaLozRIGiyoOjb13MC7KS5HjLJgszYzvp0tx0elNr1LBOzXX51Exr+KkhwjCiHjPhGcKBpWaQ1GTp+NsLyo1YxwyqU3Iz3VrrDIuQaIVjraczNiXH4vqFdE6bYa5rG4W1Dc2IErlZ35SD8Va+Zro3bG5U09jH1NcxbbMwqllPHBNaTfic9ppixtWsZl5NjczbNgojIlBaxUaYydJjPa7ELzrS30vSy5hszTpmp6N4IBAIBAKBQCDw9BGQuuKH/kEBjtCQrm9oYg2kxvQ5BaVPj0VsUJc9lckVtIQDqTSkImKDc6z0r3xktJu2Yps6Prt9P/33u3+0DS5ZfM88hY3UMFylsrqmYnxLUN5tOQPVOltaabeRblyeSf/Pj19Pb750TZYLBmxYp6YiNarJ2lZbgwG/FnntdKMBARZIQNrjBMpnkqEp5rVJkRII14V0fnI7tc9t2XYJDEktLmkX70ffpKX1RbW9mLbVp5ZI2+SISJCGneZmNMNKB7t+s6rw3NhFbXB5Tn2cUP6xrvSC1QLs1WTnD3E6c+pRl3yXY63Isfuaa4m/gUAgEAgEAoHA00fAdFqlz6jd7geacQPGSEVsGrhzkNGIjdavM9VXlRxWwUB93VvK5bBbeXoKjTe0SF5HPjPkWl1vpodrzfRo6XFa107X2zAdrB0adqlpkT2Gk8w/puJHnRaznzSlW6Uvzc+mv3zjuvxqrsinZlIjOtuyXMgfR0RqR9fkrIskHcYGgyz01c+6fKIASYK0GYXAsVlt56A4yW717sjaZL5C8r9R/0ZEXBpz2ol77Fy6vL2emq0NIzUtLTA42tCmliJx49oLa1wLEo5rPynI0XhjJltn9JfQJ7MaOfh5eYks3WFKeM44BwKBQCAQCAQCzyICaFy5sqYJWTdG22ICTM4R30D3stAtThpZER+sJbv9ozBH/tu7s6hC3bIOC0MzBNYIXteqwvcfrqTl5dW0qaGZjhQ+pGZEzsD1EREUfExgBhLMiIOcTVgjeGq8rk0t59JP33wtvXXjqkjNlsxPcipWRyA2La1pQ1t1OSAXzVu7J/VHFMyqZiVgJ1O2E7fkyovYKF59Y3+qEVFJdoOY0k7c5+Y0W8rKsnpNS//kD2RC86g4RtTnMTuEnmL6rU99jwno+yJMpIE/ZPCMXB9YYKB83AYCgUAgEAgEAmeHQJ/WkjrDMKNJ0TIGyNO0JV9VVKciRR1SS0aH7lAUqu/JQ19zA8VJq9IRRMeYzEZzcvy9ujCV3rh2IW1K2zchPrJWpBFZWxBCFhymSePpjEqf1ro0r15dSDevnU8vn59LE/SowwaW1M5f0QFNuTZyQJoC1RCq1vNNlZs04snP2fNWmQ51ynXktnP5PPhj7dEfdSTXTkNlCxAVpmdnkxSzqWTPUt7cmyxZ9tbxuNyWipTVuJRlB6vrbruex3rpGTmX191McREIBAKBQCAQCPQhMEztlBlcm5Rx5fVe5Q8qV9bBNQMkTCze2GByDbXq0H/8akfkesIw1Ia2MNDSuJqAo7iKC1g9ZH/ysJeIRbwqZrb2hFqfGx+xHbe3Xr4kYtNIm7K02HJ7EgTrB6rfSI3KjCn9/OxU+v7rL6VXr5yTpwn2DGhB5mPMgDJLjQgTAaVOHziK1kmq7ntkpkwn/5MFlTbgvGR1VhzmsN2BdMgOciMrxAa/oCwXUuVS/OXopVjN+rOr1jKivLYaBiL6SpM2mK6oCIFAIBAIBAKBwAAClXYbiO3d7qVNstbr5fOrvfJ7+rBzJjY72o6ImVDoUh1qAGIzKmJDnRus+iujCPFdi82wyg4fN0xUNY1DMBKpWRbUndbWByxANzJyTdsCzBqpkVuw2SxYugXxOFDrnEdFEia1CvEF+dRoQpQRHlhL1wii+qmdg8C+Ui6JxxFPnMf7fZlO3NECtVJTWfuwmnJ6lo5resjD8dJleb/mnK+HciWl7h+8nsFce8UP5ov7QCAQCAQCgUDgbBFA/5U6EA3GocEfO+qaFc2Kw2057bJAHy4hWiGmRwyOJz41laEiHdL7LKrXkLVmUtYajtmZyXT9ykWb+i3rktkvsGEw9GSHqsrkJp+x9kBmbCVfznSras53w/aOQzM8cF1KVV6Tp8zrZZ78PFjrXjXkfD3qlfMdtvRete4ff7K17992pAYCgUAgEAgEAkdEoFDgaLJSmzH0pFVVNMFG8bLSsOBtu71t2zBBcsx5uCxwRBGqYmVNUuG6ZWIQsYMkwoiLEpjsnQdmemSG/KRzpiBGHxt2Um8sTn/K+pzUkH0w9OUbTDzGvclxjPJRNBAIBAKBQCAQCAQKBIYo7N26FjcO7UAgUjOlTbCZfbyj2dfbmhnVamketaw2T2koqhCsj1eJkFRSDZHXGieZNA6undBYvCUUJc1sQ525UhvlUpmDgtd9UL4nTc9SPGmpyB8IBAKBQCAQCAQCfQgUqr4vXjelruWa8SBmQo3LtaUhYlPTWZOj5FgMsWFazimEUihvLguXiYzxFxM2d4A04joaK8NcY+vBKNK2JFAKyyZnc5Byyc8mQiAQCAQCgUAgEAi8CAhI77va19mWfRHJYT4xdKAjxnMqxAaoXY4S9jIOItN3b+YYWwpPHCY72mrrSBuWYo0btwSRhp9NWbZs4ySuaes02zuJPkSdgUAgEAgEAoHAs46A69uezoUtcOSAvw3OwuzwbRsvKrpLbHqFPPtRz5CQXJvX6efhNWYBB/M4maGu7Iasc9fHpirTtdZwr/ReX3NTRaXFpaUN3g+XLWIDgUAgEAgEAoFA4EwQyKp9SNPwDI3eKAViw7RvglOCLrEh8ukp+540+9fpTMTPSNELVrZbgTpCD6qALQfKQ8h/VYf3qors5bZsu/4clL6rQEQEAoFAIBAIBAKBwLEQ6DGEJ62GktL9jNroiiMTG2LNvKG/EJ0TCzQzGLJQWQRP9/Ng3rgPBAKBQCAQCAQCgW8TAq7x7XxC1oUTJDY8Cu9C+ViGxZXp+Trn2q/X+6Xtri9iAoFAIBAIBAKBQODsEehjAU+sylXAnWzVFerqq0/3tkAf3Xziuik0NOxXU07LRqShhbuRJmhVlfvO+DlnGtJOX4Yh6d3a4yIQCAQCgUAgEAgEni8Ehuv1zBd6aeZj07s9jS7m1noMq/++XxZy9cccXsLjlD18K5EzEAgEAoFAIBAIBI6JAKq+Rwx2V1ZRAQwj7mFDdi/iZwr2OQ/vrulkYkqq4oKVQtFqmedkpIhaA4FAIBAIBAKBQODMETiI1JQCdglOj9SUyVyfCbGh4bIfgySG+8E4yjxJ8NWJn6RM5A0EAoFAIBAIBAKBHgL76eKjpnntGDT2q8PzcTbjx2EyK+MJEJvD216QEaPSsM715Fdq76bop0f6uUiKy0AgEAgEAoFAIBA4FgLH1a77lUfvO1vYM9+eCblbJPtBZV7nCRCbJ8Exd2tv2b3bw+ok7YQndQ1rNuICgUAgEAgEAoFA4KkhgDbfiweQ5kzAzzTshGZXOWUKZgBCEQKBQCAQCAQCgUDg1BFw4mKkZRdLqcRRPOvvet6DhDxji81B4h2UblAclGmP9L0Q3CN7RAcCgUAgEAgEAoHAySKAah5Q7QO31v6wOBfsFIjNfs27GEc9H7fuIDdHRT7KBQKBQCAQCAQCJ4LAAar5IM0fQ1En8lSi0kAgEAgEAoFAIBA4MgIHkJv96g1isx86kRYIBAKBQCAQCAQCzxUCpzAUdRw8BinbQQao47QVZQOBQCAQCAQCgUDgmUAAdT9IAQ4pWI/YPC3OcERBhsv7VCsb3kTEBgKBQCAQCAQCgcCzgYBzkX3UP0n7JMd072fjSYYUgUAgEAgEAoHAi4nAfiQFRNjf2g6uDwFRz2JziMyRJRAIBAKBQCAQCAQCgaeFQJ/1xa01ReUlkSmviyy7LsN5eBckEREIBAKBQCAQCAQCzwoChyI0nknnIDbPypMLOQKBQCAQCAQCgUDgyAj46sRBbI4MYRQMBAKBQCAQCAQCgWcBAUax7AiLzbPwOEKGQCAQCAQCgUAgEDgQAZyIlclHncr8XWKjyOw8TMzTCLgtW/DzsOYP29CwssR53XvVc1C6lxtWv6fFORAIBAKBQCAQeLEROEibHqRFj1ve1P1gI6p0h6OzkzocekT1Wi1vkqm8tDlyIE8YfK6DjQym76rwwAK7atg/Yq/66A5HhEAgEAgEAoFAIBB4GggcpFWPqpEpt1fZYXIP5s3kJmv9jnR/p5GM5EB0Yrr3MAQjLhAIBAKBQCAQCAROB4GD2NOgFMovY01qt3fSVrsl6007NXXe0rnV6QSxGcQr7gOBQCAQCAQCgUDglBE4iNwU6VzuyDTTErHZ2W6l1vZWWttqps3t7dRstYPYnPKji+YCgUAgEAgEAoFA4BgIQGy22ylttXZSQ+Sm0+6YBWenci2OoahjgBtFA4FAIBAIBAKBQOB0EcC/ZluEprndSaOMScF0avVUrzfSyEgtLDan+ziitUAgEAgEAoFAIBA4KgJwGLjMlkw2TR11rcY3NjqaphrjcBvzSA6LzVHRjXKBQCAQCAQCgUAgcDIImBVGVXPuC5rarfttDT81W3IUHtlJoyP1NDExnsbGGqlRPwGLzaAMg1O0+uQ78Zv9Wt8v7cQFiwYCgUAgEAgEAoFAYBgCJakZoqpJ7sifpiXTzUZzWzt/19LE5KhIzUjSkjZPdyiKxkpiM0SeYV04oThaP1sJTqhjUW0gEAgEAoFAIPDtRKAkEUN6mHlGLRMb3XQ0K6oBmxH7kLHGOEgMRQ0BLqICgUAgEAgEAoFA4FlEIBstdkRmOhAaOdZkspNlJVV2G/09gCE9i10LmQKBQCAQCAQCgUDgW4bAITgJ07o5Oil7C3coU43QGLExTmORHj0AUpCeAUDiNhAIBAKBQCAQCARODIGKk1Rcpb8Zs9KwN5QsNX4oR9dqowvoThhs+mGLu0AgEAgEAoFAIBA4TQSczHibfj94VrpZbERwGI6SZ41isgWHomQPHxuQiBAIBAKBQCAQCBwRga61QOVRrKjZvUwGvjouOQg5f75+Yf8CggNySBD6Ea51cTwRYrNbvieU1sQ7ZM92Zdvd+q4sEREIBAKBQCAQCDwlBPoVLJV6zN66L5Obfl2O9nqeAvLuJ7On7Y1C7r/nO6jvVs8+mUny42CLzT4VDQriWf3c/9gGcx9036vloJw53fP7+XClIlcgEAgEAoFAIHAUBAYpTE/7eMqwWnOuYTl65YeVO/045DmOTPuVL/u/ZxvDEqq4mirgyCFfeHsHExsvd2pnBEQ8P59aw9FQIBAIBAKBQCDwxAh09WtRMg9HEeGprnb9vsj8gl/up+1Jc8S61w6lUrJ3TT47jOY87DfPzrnsxrMjVUgSCAQCgUAgEAjshUBX8e5SxZ6yYyl+t1c9L1K8Y8F5T/OQiIwWF+6i2sVHcU5susUV12exsYq7JfKF8pxRQJqza/2MOh3NBgKBQCAQCDwHCLhCzqKW2rOjKE/1c5kLckMe129+zqV6d7nMC/cXAEo4y9sBcGwoqspbFusSm4F6DEvPOFDXC4dzdDgQCAQCgUAgEHAE+unKYCzEJecoZ0d5mZzmxMa1a2/gito81mt+4c6HAWAIaSEKZLvEZhhwZDpM/cPKRlwgEAgEAoFAIPBtQ8D1Kbqxd81VeXhaqUG5zvdlbInPXvFlnhfm+gAw9krmKexLbF4YAKOjgUAgEAgEAoHAAQjs7GQqU7OF4XqZ+5Ws32GFIX/vnhJ+1yudr4jfK20wb9z3I+DYOX59xMYjyyLD4sr05/3aPqj5s2pdyR/EXq/4ANuHmA+0/c+ZPb6XM64CgWcPAT7f3Zcxr03+81Ku4gc/x/59GPweHKVn1D0YhsUN5on7QOBZQ6D8vrhs/Z9uvlNSEfxBUVR6gzxVjBXzMvnM3953kXwWU5W1As/FH+/VUxbWAdmjWpIHQ0a0sNh4xGDGM70fJnkp0DHx9A/rTqfXEC/0/OHMDTUaDX3Yqg+f8nU6GsFTu8TvF+IFvh86kXZaCPBZbrVaRmbq2lelVu8RdT7L9briCgJi3wl9zge/B0eRl7o5/HtGO2VbR6kzygQCp40An1++K/594TPtoaeCso7otLMuqTX0vUJRVBmM76gQXzWiLK2qxOuHGfl3ZPB7SVbyDQtn+52qOjhMsOPE0dVDVF0iknHN+0T1WWyOI8fzVtY/JPYB0+cUcsM/7nn5l8Hjd+SCfbYfolKquA4EDoeAvyztrM9397NfEBqvyT7fvLf1xnhan3X7jukr9bTqc1njHAicJgL2/RnynUG54rDaUVpHpIfrrJX1ya80rytg7nvkxjKazqlbZNY7/j2BSPFdLYlULvHt+9uncR2sopuGG/FD0jLW/UkvLLHpYiZE9bsytWttIzd1MW3/ILkCIC8fNn7xZvozFN1ulXERCDwrCEAqzFLD5xfrSfVmsM9z8cvT5fWXd/nZ97Qjn/mO6bsTIRB43hDw74HrhGHyow1aOiA2O7LkMwDAPfEcKG0/dGlkx+/5Voyo3GidkYEcvE23EhG7X/tVsef25FhYBwBsIDguRPfltXx6wwm/HIR/leeFJTaAwQdoe3s7NZvNtLy8nNbW1tLk5KQd09PTdgYw8pUKgbgemNxFCASeUQT0nbfhJ70S/DOMpP753draShyPHz9OKysr9gL1NH/BHrVnY2NjaWJiIk1NTaWZmRlr0+ukDW/nqPVHuUDgpBHgM+qf2bIti1Ma1hlIzFZ1buvMsU1caydt6mJ7S3pmi2HfWhpp1NL4GEdK47ofF7MZV14IDketGm4q3SMU/cKHHnWpoCgIkF9yfuGJDfDwoXVS89VXX6X79++nubm5dP78+XTt2rUusSk/3F0lUX0AK5jjFAg8kwjw2eXgG+/Exu4raf3zf+vWrcR3AN+xg/zHDttRfhzwXbp8+bJ9l6i33W6bPFyjHEpZDltv5AsEThOBYZ9RPrsdHS19tyA14i75rG+ZkRrdr4nYLK3tpJXVTlpbael7VU9TE400O1NP8zO1NDu2k2bxeVN5PDZHVB9nc4vQNd9Zbzu+KwJmIAgew8ijuecAzxfWYnP37t10586d9Oc//zl98skn9ot1dXXVXsALCwvprbfeSt/97nfT9evX07lz5+wDZh9mnIcBD2UR4UQQAGfCQRgfNt+JCPmcVGoY+be9wPTevXvp9u3b6bPPPkuffvppWlxcTEtLS13Mwf4g/A+CAGLDd+mVV15Jr732mv1YgORgySEct/6D2o/0QOBJEMhvnVzC3+5lHCnmS2PnmiwzO6mpd9WKWM295Xa6u7ie7j5YTCsbTbk26EezGM/6ZjttNnfSVrOTGiIxY6P1NDlRy0ejk6Z0XJ6bTFcWptPc5HianRhPU5MjaWp8xL4fNnisuvDBQSY/kEW/DOxkf5T+woWq+9Zz9d/R4P6FJTa81H/zm9+kX/ziF+mXv/xl19zIWCZWG4jPxsZGGh8fN2LjHxrGPQnkO8qLOZSxI7n/+TA4kecoz2D/lr9lqfq285nF0liO00Pq33nnnfSrX/3KDvJgTQFTx9XzHxVjhnX5Lr3++usJIvX222+bBQdic9Q6v2VPJ7rzjCCAUnTF6CI5VSCea84+1JSHn0ReFPtQpOXje1vp/T8/Sn/445/Tg8VlFRjR904Wne1W5h9GTtAbss5Ux0itlUZrW+mNVy6lN29cTtcuzNtx+cJUqk+OmXIeUcMMUdF2oysgk1y48QiXVFEvQii7bv31p9Pr/OGIzRPg51m9iQMhZ2erPUMvDTN6qez8xegv4tLMvp+j4tdff52++PKL9O7//256991304MHD9L8/Hy6ePGi/brEaoPPAWZ5SA8vfMz1L730kuXjZd9tU0rAX/5lF1y2Mi6uD4+APWc+SL3Hb4WdVDq+5Cvjhj0Lb9XL+P239WzYVZ2zPgtDw6XCEj8yfGk+/PBDIzRYbDY3N9OVK1dsyIip4WDKUBHljoMb3yWsQFiEaHd0dDRdvXrVDiw5x6n72/r8ol+nj4DrLL4iOP7y05UhodIIYsNLSljTdO6lDVlnHm6ke4tr6f7SanqwvJUerNbT/Uf/t73zeI/kONJ+AuiGB2YGGG9IgKQoUqRIinIrac1FenYv+1/ucU972T2sHl0+ic9ql5TozdCJM8OxAMbA2+/9RVZ0ZxequhtuBqYSqM6qNJFZUZkZb0VGZq1IW9Mv8DOm3FodxVKePqBQdFrjFOGIxq0N0VkXsFkTfLn1UBqd7+bDt/eWw+jQTLh8cSJcvjARrpwbEtAZCgOqGHY4dR01KKh/Ml2FhY/VEeRj8KcJdQjB7bWPOW8ite2/2bCyPSIL2Wt+Y1hJIQQ3DjHCk+F3BjZpzTj33FnFU4/oNHmbpDGbgZoOqTxahF2I5W0ACDewobS2AqS3/E3+5q2b4U/vvBP+8t5fwvt//asZNU5OToZXXnklPP/88zY9BfhheoqjVqvZgIwBJADIG4rbCnAjHhZvqvrdDw7wPHtoH9nzt+erMHx//pzz7Dl4BjyrMnBj9NKRaj8qechocI+49F6tbXofUhwAA+0JwAaNzeLiohnQnzt3Lrz++uu25w3gBl5y7MUBmtB8zszMhBs3bpjmkynefF/aSxlV3ooDe+GAyyy6CAddiK1oWMRneIEwHdjQLAhMPFjeCjcfroWPv34cPv/qQfjmuzth7vFy6KmPhJ6+AX2BWtOsfYNZLo1hkkUQjX0TX5pRCpGP/ocJrduPtsK9hXkFrWrMWw1Xr6yE569uhbfCZKiPD4RxGRxLsPGf2eAo74aMkQFOps6JQn3LxjfuounSsaAZurMzldLWtZbYTEq+dnnJV5a3SaX4zPOan4Eaxjqnt7eRq7jMfQnlgWxsSI2nxuRvjr7W3wWZAwrinYE8W8LJj3FXylou799/ED777DMzFKaib775ZvjVr35lb6wYOvogjNaGdExZAXAAPl4e+Vy4cu6NB5+K4POHM2bDcCqWXdtJ9VPKAeMZvdhbaZbSeekZuebZN9qHzk+qo08AtnGAe/ZcSp3zDu0jK6CYZiUPmhqA/a9//evwy1/+MvabDCiSZy/uk08+sTphmIxmFA0OoAo7m3wf3ks5Vd6KA3vlQKO3ZMPOOhoVxnONQxgI31/aCrcfroZPvrkbvrr5UBqbtXB/diUsLGmrkK2h0NczpPFKoKZHRvFWGf2S3/ohIc0jygZevnXWo5dyDVubjHcyP97cWhNQ0svazTlNY62Ee/cehufPjofnJkfDlVP1MDmkZeFaGs7guKV+ShnxBZD8e+uvIvDsHOzp4Ozu0nQ6h71My8W4ZuShBTY8sI31jbCpwRoQ0VdDNR4bDQM4A6MBCBpPgdsEGfPg5QxwZGnu3L0Trl+/HuafzBvY+OEPfxj+5V/+xWxpeEPljZZpqQ8++CAwMPPGiSodwMPbrQ/2TtN9wq0+AmL4lE+9a33xzZf6e96sKpVXwgHjU9ZHjZd6ji64ieM5wVvO08PJ+TPx6+Pue7tzYNPDG55cygf4BADMAxs0NWhRfv7zn4d//Md/tHy899B+97rkFONhAA1TXRgn039YechUGM8zfTmwgqufigPPkANIEp9EYKpoQ6uaNmXksqzxHOPg67eXwv9+dDt8ev1OWNsaCGsb9bC+IZDRW9c4NCgMpMki9TNzyCWkrvtMcHHJjyfB14GmxY7efvW5tfBofi08nn+oPvM4/O1GPTx88VLYmO4Lw6rLaQEbXlxYOm79U+QiwYyoFX5Ef+xe2tTd42Gh+AqggaO9jXNdESRWHF5go4ddq2tGEQGmh8jAjAbGB2ami1Cnz83NRU4kz5WbowHZgG93qranQR0a77//vs371yUcMWxEK/Nv//ZvNsiSBjU8e9qgpXF7A8r47//+bwM6rp5n/xvoQ9PLQSDwDx0OhMbVq1dtZRWrq1wYt3l0VVTCAfjK8wZc8qaPD//feusts3nypNXbvzihdtfHm1zW/vDp9wZQsj5AW0UTieaE9gsvMfBlipX9ZnDwnDy0ZfrdXhyG99jSsIeN9xvoV67iwGHjAK/Aeie1/mN1U9vf0AvCI0093ZtfD+9/8SB89PVMuC1NzVrPiOTSQOhV/6nZu7NkCzLKwAviln7jB3KIRDZn1Ay3aOVRn4wAiBzIOuqhPAL+S0trYXN9LXx1a0aUN7Wa8HyoD/aHCRncjEpy86Jvwh0NrVX6JP3ojhmn4K20XnDfBrzs99ACGx54nxqOOxtwpalB0PH2B6j5/e9/H7799tuovckSpqs/UtABqOBwNfyQlnADbLADQIPjjjQISjQ0OGjwhsnqERyDNY56+FsnPoICR36MJFn58fLLL9tKEM5R+RNXuXIOuNCzzq5kvJHwts9UxkcffWRL87HPACxizE06eE8+Dgev5SUc3xg6tt8/fcDbJFocDtok7Q+wjlaS9so1gAbg4SuVyMdh4JxRdg8OmmNjY2ZTQ1lpf9wD2SprxYF95wB4m4lcmzmSzy7Ca7p4IFDz9e3F8NFX98MH1++FVbQ0PcPqO/3qI1qSDaLIxh/lggI9sQFuIuBQP9oy6hZPmsZhfYx8HAAVHDKoNyyvb2r80/RUmNNGf2thbHwoDI+PhN7TtTCoGYC6gSmRBhtZvlianR7rH2M6AkL3zYGCoXnDxDaRQzP8UJ8xSKPS5s0TkMHgiUYFoMEDZpBm3xkGchd85OGcgzdH3lD7AR91qf5o0XIuIBnQCSMdQoCBH1qEkd/BCeWSlmvqk74FA5gQwPi8sXJO3sqVcwD+uhCG987npcUlAzXvyOCbZ4yBN+nc+fPi+kTzWM0LIMifILwBc0A7bRPeojGcnp5utHPaNqAR3/lGutTlr9O4bs6h68/SgFKmyfTyuqFRpak48DQ5sKYusK5+tKD31LlFNDW3wl8+uxNuPpCmZqMm8wbJApZybwFq4iaTCFh1MvW8zNlQz4+P+R6Dz6Fw2eKk0ZsqE3CDBsLICRz1CjxJyGjc04u29sj59Ms7YVNyr+fl82HgyngYr2s/nIyMl+Ylitixd/Feo36Mm40cjLd95ICN3YAaEaAGLQjTRnMP58KSBmkEHm+IhDO/z2BKGIO3Ox9oN2VVjv2OD7j+psqgy8Ggnh7k9zh8zwc9nyZB8CKQATIsa2X3Yux1AFukPwkOnsGfnTgXoDwDnpfzCn7Ozs2GLz7/wsANU3sAG3c7LcfzHTcfPsBDn0LiHNuWv2rVH4CbvsK8/LWr12K6jM+8HKQgEb6Q14+98pf8PEv6BD7Xfhy3Z1DdzxHnAEOWJCMropaFU2YXN8LNmeXwydf3wvuf3gjrveM6NAVlC65ZdC1EIavfOM2UjXfqO2rgIqQD3wx2nC9oZFyzgK2o0hqyif3NLgml/1lSprd4Oe/TS/xyWNOS8m++mwmryythYkx7q43LpmdcK3axPRUl5gJc26TT4+GcRSV3g7ILW6NePQfGlU3xW2ZRupbGxh6JTswvIfDMgrmxzGlItMERkIBwQxPy0ksvhY8//lgNoNemKRCCTFH87ne/s5UXnpfGwooqBlcnyf1C0wdaAzpqUXG5eBQUaX6ELi4doD3+L3/5S/hWU2I46sZKK4wxmTLJAxvq4o6yj5Pj3uAT9wWfduoQgM4TVu1gtP3hBx+Gu/fumnAEKE5NTRlopSzSUp5rHVyAUm7KZ66dLufH1XGP3Df8AGy/++679hzYII+B1G1mnDc8I2/PzhNopIeH79bn+VCetweAlPel3dKs8lUcOAgOqOmbIGSkv3FvPrz/1cNw95HATt+4pqZY9cROMoxRGts0jDdGcjtRZh/O/drkC0CFl2g+qRDNK9Qd9EKhUnRCUlZH9bA6imsi6YMRqigNswQyf5A9zao2+5t9tBQ+//ZuqPeth96XzoXBgVHtc0P6WLxXQZdNZ/XJLgsTNJMemjNjjGqT1j2pHICmv96nHZw186JpO3i7uiF5sBzBo+33c1TulcGRqSEOtDK4AZ1//e03UtXNhMdPHtvSVYxLn3vuObWPKGAd1GBstbkpmwM1tD7RMmNL0Wg0qIyZPrBbAVm8D8apIGCQxlYBrRFvxQgUtAp8iuEXv/hFy47FTus4+/ARPjn/8AnD78bBWw74yjQJUykfffyRTaswHehb8wNu3aVlAmzMZZ0hLTs997zHyXee0wbRdAFsvvjiC9Ngwrf0/ovasuffT55QJgfO2wBle/n7WVZFq+LAXjnAKAWoWdW00K37C9LWzGrzPU2R944qPNPS2BRS9oKctW0gxfYRrhlS10cv+6XZr0sQ98n8YWV5PSwuyEZToEUSSgd9xI+MFmDFuo6/JPZpKmxDq6VWwje3ZjXFuxEunhsNkxP6uKyGPRZCZqNfezZAs1m19mmfVazdd/vCESl8nmKgX3wVsGFlFGauq2vaPV1xR3IqKr3lQX1b47zABJoRVs0waGJXwOAOAEIDA4jhYcZ9bTTvjzV5Jmx9oDVNjcI2BHwYjNO3f9IicFNHGhfAqPR9EHd6PqCnedJzLz8NOw7n6X1zDj+K+Je/V9KSztNyjXBGa4PxNqt30DywnxC2S+54LoAed5TnDlpeB9JxfZwd94imi72X7t271zIFe5zvu7q3igO75YDDCc+/qO86zcxvhHt89+me9ntaw65GYjLOe8RkGptMoBjycAryLZyoNGwjnD03GF58aUwvvzI8XusN39+cDd9+9dhATW99QGOkZInZ2MTxz0AO5JQC0GMrroRe2ONmXfLp4ZPlcPtBTRv7rYWLi1uhLmXSoOxtKPUkOOOJeKxZOAFGaYNlZL0lQLMqH/DHHkSygBIrnhVH9lC2NR01JGxcxsdP2ZspAo43VlZ98MY/NDgkQBIbi92i0pvgRODxp2sHIuz94YKPcI7UeVwa5mUBpKBDXQBTvsIkTXtSzuETgA/eAEgw7IYnvqQYzVYRL50/zns0YdiJ8E0jBDYaOrRwTO81NDPKRDkIc545zwHeYzw+ODBoex+ldP38OPrwlMO1NazqgzeVqzhQcaA9BxjpeR3CvubRwqq0NUvafG8hPHosw3vsamTEC8RouiyHiQjPDQXOlQ6VgVEkbF3yaUTARtseDA+EjRUJ4y1t7DfXH+Zlx7OyzqZ8Sr+pA/CUTXMZLchAU/1ab+jy+wSAesPC8lqYebIavtcGgRe1aeB4X12GxF3payB4+B33bbwtq6rAjBLU9fEsfSsUjYU+OiozElaeSfZsCOAI78gZAxteK7W2BbQm3dVVVvZO8zJvuW7oTDfDM+fhy/nU0PKStrk+E8NpXsTGnYvhmf7EDAcvnpf8/maP386RB00NS89ZQg4tNAnY+DAdlWoR2tE5TnHwBNABwIAvGK+ymgmevP3222Z/xHkKTPL3Dx8Rzhi9AooALdhSMb0IXz0vQJJnxDQgy/WZdmELAIDPb3/723Dl8pUwqK3NqZM/03xZx/GaNsn3meBfqr06jvda3VPFgb1yAPEW4Ydkh85v3X8UPv78fngwtyCMIamJ3Z8OE4ONH078cEBjkQpHGOncLhUnLYs2WQhDEifnhoOWa2sl08apMCR1w5dfabPYL29JLmNDo0iTOcgdaOBBRNqITAOEBmdL4GZL49rKRn+4eXc+nBmZDZeHzoQLw0OxSOXY5hr1gWh0XluumqFZ5GHwvFLut9QJTmzqA6IyRRG7tAeubkJmKrXesKZVa2sCiQQZQwrztxA7fBcIwT7dFauQmKpAgCEUbWDXtzfiEjrdGdoXgI+OxcWFMK+3e4yFAUesniK/OwQhdH06C+GAMCUN2gDicKTjjRjBihDBoZlAW3CSVkHZjSc/8AdQw74zfDX9D3/4gxlTT09Pm9bF+ZdkaTlF20N+PkIKsCE9mhp2x4W3/nycjgNZ9rrh20fkY8t+6AByvF2Q7yQ47htwA1/g0WG5b+rihz2HdGQ9CQ+musdDywGaIqtplvSye3fmSbj+7R1N96jvaNxHZvAiHLUwpOTAAWgALhmwMfDhY4y/FOulW8BmTbMHT7SL8NmhsTA6MWgftxzsHwzrywth5m5dH85U2fRXIIbMJKLmBloqC68n296CMQxgI6i0stob7j5YDJMjj8LiNWyA2gAbo6O8XnWRxHEJ+UPjqExaR69ciw+XosamJp73a6ZFa8fEMuyYtMGudDlaV3t0bWwYsNk9eEyGpFe0R4drSZiCYgoDLcra2qrASN3sbOIT3DL7g8/0Zg+w0Uhrm+hhu4FzIQBgQUBis4OQALCw2R5lEMcAjUYGIQKQIo3nBwid1DdleAM/2LX5P//zP02LwvMA6LH83T8i2k7gQoP8//d//2dGwwAT9mBhtRngkrzOa86JB8AwZQXwwbbkP/7jP8z/53/+ZyuX5+fP1jIf0x/4AbgHgB+m6VB/Zs52ri3s0I2sXsPKPykcoAly2EcuhR9mniyG2/ekKd5EgzJkY/mmQId9n0lagfh+RI4IatAcRAoGSxAi8VpTIxH0rIXZmYfhw/eXw8qTc6H28uUwPtofrpzVtPH0RNiUzc1Xf3sQvr6h3YUBSSK9Zauv3G4QkJQtyNBLPDNSm4yzS3qpfrQoOVcPK2vrsRYqOxserQ6OB3Rx+F3Gtm4rCpsxMxGWMaNpZmP469W0HjDQNDbdEusmXb5+NIGDYDCCimNYgu2sAAdCDc0Kb6poUJjCYEmdDaBZBajLHRmkMkVCEN9x4gOADmz8/qCBASbfioIOU0zYeABs0kEaIewaG85ds9NJkB4nIetCCqCIXQfL3t977z371hYgB9CBxgUtCtoxT++8TnkBD9GUQQPeY6NDHgzDyQ9fye/PHhoD/QP2XJjioiymo5iaAvAQBujEJy82ULiUBufu0rp42FHznTfuU//0vtLwsnvrJk1Z3nx4yt9tcRrFGYwqV3HgWXGA3g80WVjV+CWblzm+06QVS1t1fWIE61RNa0SNDeMO8sTlWQZklJfl2oZI3NdV1PAgYmXzqZVMN1YXZRMizf/QaJi6PBquXhgIl86NSCj3a0XTZlhdWQ6PtCHgE80osLR8C1sb9Y0tCWr/yCV72vj0FLKNTy7ML66EpVVpaVXUgKKtJlkdEf4H6SDfrgiPo05ljjhPV5bGw41OUij3F1c8C9DoHD4JAto6s87ApttS21SQhlPkkjoWRW8L48acSZ4XzcmpsfEwOjJqwAJtCZqUptYkuwHLqI3L7t0Pn3z0sQk6NvMDBNmKKGtEkTrABg0A35FCuCJYf/KTn5iAcOHI4I/g5qN+aIhcswMA4ivhpEsFyrabOaIBLqi4N8454Be8gF9oS9hbiOlAlr3zYcWf/vSnxhO0CDieDfkAgi5EuYYG+dCWAW54jgBWnhMAh2ft6aFjNDT4EM8eN6yY4jk4MP2v//ovA1vUAVDqwAq6lM0zggb1OS52ONyb84B7c37hu0vD/DyN806W5vH4yq84cJw4wIiPfHqkTyfcuKcv3y9K466N8cyWRTKhRy+/bAtCX7L+1OgcyqQuZX3E+hZUWFGLD1UdygP1New5pdT/XkvIN8L3YW31bBjUd59ODfaFV68NyBbwrLQ4g+GT6zfCp1/dtHzsbMzaHvQRkNnCuJj6CNz0srZbmtnNzSX1dYEh7Sg4r9VcQwOaxQCL0e+V2oQ9J3tw7bK3i/Miu0kDl0rTlUbEErC75uXInoMu2JyPx9EZ2HgNd+B7Xagwx0E4o80D1F2Y6j0Tegg109hoK35saGgVNEgcPhoBwIjvhbK2umZCzTlLGoQDgAbAgkbGbXcoi3OnRzo0Oky3cE49XBAjOI+7AxDAP8DI7Tu3za6GzQqZBmTq6bXXXjNQMz093bB1ccBpDTHHIGxqbty4Ycu84TtgBW0PPLXdc8X7fD6eB7wGfL766qs2VcjzYKn4p59+as+LKSy+4v7CCy+0TNH4c8xV40hfck/wmPa4l/tjsNgvRz3Sw8b8AxsZ9qvWFZ2TwgGkw7Lmoh4t6NtMmhraktEwwEbQwAAEm+VtaYM9ppYQmqbDyQBMH3vT6OWqr4+xiTxSndiUkkkoncNF+pK+PaWoGRkl37vfH+6ND4ShCyPai2YoPC9/ZEgrptbmJZ8ea9fjWpiTNgatj+11Q/9p9Bf1TOxwCBM99m15ou8/PNZxSi9qA6oHRcbey69VoOnrBjxEgV25SKurpIWJyvJTD6+r+0UEPB1xfu6+hfFQFICHwz8QYBPJH+yvDdoawBnE7bABPX40ETsLhC1TGzagCjHjrHlkg2yjdmKCCcuMKY3wLk7Ix1u/a3Hw0Qq4wWoXJI5ckhRYIDwXpDr97sZ3ZrjLFB+ABK3Vr371K1sJBZjAtobn4KAGMMKBIxya0GL6D20PgBJeTk9Pm+Ex2hbX7qQMS+tCGQAbt33iK+6Amw8//NDo/dM//ZPVg6lHgI4DVGgcZxBq/SRl2lM+T8vn3A56os5tlHrK9amKqzhQxAF0HBjlRk1N1JSYES/gBmdgRZpdAzDSUku7zNRUvaaFK7KZGRyqa+yREBHa4HtPdlg+mnmk26M9aHo3VsOyFq/cuaGPWvZo/7Xh/jDe3xsmLtRlO3MhDAwNhw++1Gaz3zwURBJYAqJk/SZOQyHLFIqqQvEScdqYVprux0tadTUcRrRMyD4zQNl5maapsigJdw5uIHdQLtYpUgeUFI4LsIEjqwS+Hxbhd8Z0oNK1ABvPlOU1j3IO0hWVWVZempZ6cY2AqtfqsrXoN0DB2zrCFYFrxlgQ88Rk0JEKRDvf5U26TQhaIM6hhWBFKKdlUIXj5hBMTB25lgWbGIAEwAHtCFN3GFwzLYcmi/TOE3wOE25iDFMn7EPDTsMAEWgCEKempgysQMOBSBkfKQOtDhqeFX1PBU0a04mAJGxu2H2X+rG/DbRxaX3K6Fbhe+eAP2en5Nc+zHp45VcceBYcYPiPAEJn+u6QHQZoADVN4QCQQVmC6Q07CY/oC5SXLo9rjBuWaYOAjSxZNUGkHErHeMfNmNDS5nqymdkChayvSLOyFSa1wvuU8rOqZ0Q7E49oGuna+dGwJZvBmYX1cGtuRdobbTarPWuSKkBRNAEmEdzofVBj3WpY1LG2IRtERWto3ZbF8mU/VqU0YM/nu6XY5G1LFQjOkUwvG+c6EZvzSe3eG8CmkTgpwemXFJ+k3N1pUZldU9LTQ9gZiBjq0dTSWDhz+pQectx1eFVClzt2Idqgu483g2BHO4Tw5ByNxLbyGgUfnxMEE/cKeGBaj+kjt4lhWTY2NWhP0Nz4FBJ37wLNAYWHAQwxPAaAoGnhuaKlAdgAjtCA4cjnNCyg4GfizER4/fXXDSxBk+kodi8GLLHKjW+MMW2F+jitRwGpKqjiQMWBY84BxIEdkhVmnyFbFrQhW9oIbwutshnxZokkUHqVaEC2MeOSN5cvjoY3X50IVy/K/s9W6GC4in4GXQpLkiNtfoE7aHEAPMMqcEyRg9qJuF8aFsursDMjgkV6Mb56aSzcfLih8Uo7Hy8/MWo29iUUo5ZCpcjaYhXjYdnaxO1NvMymLwIH6JDie5HkcL/AlQSnKb1kZAJ/6XjeADZphvS8C/pp8qd3zs3o4GZY3cSnFbCb4c0du481LYHDEZ/eMIbCCE7CjCGi0c6lgjSfHi0N9jxoHDBg5XDNQlpmO/pHOY4pHPiNlgrewAfnB2Ec4r7doj8H56f7RKJhw2AYjQoABO0KByuh0s8npHnyfHP6ABabCpTK2O2fAGHUFZCFds+fjQFR6mf/0c/Tra4rDlQcOGkcQCPCixiyg3t3nzAWpiB3+mWciz2mNoqVnUuUKaSN8iTmb4ILrgE7rKDSa2FY1940m0JAvdqOhHFtnXkWXfNdKT7oGHfMt6JjHQScmGWhTpFqrCPnlO0yTZFZDaJv1SfwKLodVN7HdL/NUmDj7POEh823hiOBhcNqvSYhOqQ5RoTp4gob8GmuMwM1dtO6IZC4N4L0floEphFWrDUiLmhM0Y8X9mttC7sQpr4Qmhi6ui0IAjNtaFmOY+PBT+4PAAH4wFAYA1+mktiYj6kjvm5OGLzpk1FdvuHBUw8DzLDBHnZRhKHpYbdh7GZwxn8eQRcNHbDJNOTdO3dt6Td2O+QHdLIfzilp9Zgnx6XAxr8VZhHVT8WBigMnggMMK3ZobGHhEbjBRnv9+LgTlTZx8NnQ+LKmL0gvaZuZmdmtcP0b+TPLYVhGxP0CH73Y14iCaWtEAy2Q/u2HZd39vZthsEffMQwr4dKFs+HqlQF9GFPjo6anRDYsaWqJ6aeF+cWwto4MEyVexCMs2vZMWCHVPxCn4RmTs6KszFjjbVmOXUCUI015wg22AJuUEen5TjhhD3EnGfYjrSprhrsCNjUJUqY2sNlgemiDxiGjLrt5pTO8LEBijbagbOKJ46+TQzAiSGlQaBZcY9Mp31GO555x8BMQCfgA2ExNTZm2BrsWpqb+53/+x57DD1/+oWnSGs8gu3nyw2fA4XfffRfeffddAzaAIUDNG2+8YfY6jceQNcjYiDMi8uxZZXSgRdmAq3ffe9emyZh6woCZKTIAF2DMyzYqoqvW0RVoapZanVUcqDhwXDjASN9bE0AY5uvbGpcyrQqGwHx6J077MESw9FraFfaQAYU81Ecp1zSN/mDVViOxWVw0HJaQFU0bspQeoMNfTVqa/p71cH68Fq6cGZCWhgw9EdDIlOb7hyvh5uxy+O4239hb1EszYy2fc2RyC2rUxf5VjigKRFEfNDysysJRXV2eQNd60w1gQ3BrVMYbMarFFSaKKUiaT96Sdx8vrBpqFOZUKIBmWBblaG+YDnmi6Y3F+QVNj6wY6PGbYyO5dXZqzAT0bqpEI7V5WBq5gA2CkpU2NgUikENjw7mfLyMvnPPxh/Wa+3G+oYkxMClDXDQsGAwDKJn+YUqJnYd5DmixeKOo1WNTS+/dgSE7Df/xj380HqbLxFOjY7bMLnLUiYNpMLRn2NT8+7//u9nrUD5Lzv/1X//V6gcIA4z5c/E3nLRORWVUYRUHKg4cTw6YzEJ+yNZlaEx71siol6mi+BkDrardAJagodb4o2XgaE4EJwRsgl6ctyRnlm1KKq6CMmpilPucKrc0NYIcgihr+r7Ranh9+nx47tIFfZV7NNS0IuqxtDT3tNz805sL4YPrc+HWzUdh9sGCEIo2CezV3l8ZAGIazPfJ2dS5rJF1HafJGMP4iKdNk6E5UnWLR8zj9hy5UZ4Qzu847gB0ZO/UBRJAAyHI2zlaEwSuTUmgtdEKGaao7K08uVNngbHDAVIWHz8Tn2l5FOblQAM0vy5DrXl9i4opFMpxAQ+wQeB7+qS4llMEa6c0LRkO0UVab865XzQhaEQAKuwjxLQSmhsMgQETgAuMgFmNBLAwp0744L6+3q39b0gLIGI6j12gAUq+z5ClTR9Wwgv4iJYGzRxGzBgws6oKDRCg5Uev/siWi7/6igyZL7YaMjsZvx/3PbzyKw5UHDgZHACG9Mu2ZWysR3Z4zPwIugiMaHTROJ1pSzQlFMcINCOCPhmIMEtOjUNxHitqs+Gaf7iSDf4RL4CbM+Oauj87Ec5fndTy7vHQN9JvoOaGvtJ9/d5y+PLGfLh1R59JWNAXqrdkC7glWaLDHJXM7GsM4GjpuC0fF9ga1JbDg4NsJFgyUEYKx/Y3ynZjUOMeGxqbRshROVFr8ceIgAPYIGABN2yfD3JlOmpZW1X7Gzq3FhtZBC00VD/S2/awvE+BlLoiLRBaCVZEAWwo2zQ2gwI20hg1a5ZSPfrn8AMg4/zEJwzwwkokjHMBGYAUwAV70gD+MA7m2ZDXgI0NCpvh1ve3Ahv6AUrIiw0MAIhniHP+U46X5Vzk2oEUmppbt26FP/3pTwam2FyRb0v95je/CT/76c/Cteeu2fNxek6Da5z7Hl75FQcqDpwsDkipHMY1HTWEkqQPnY1sZVhyBLAxUMO0UQQ1OonMwTOwIS+Lct2BaRE09aTXYI0v+taU0p69MBFee+O58IPLw+HC+ZpK6A0za1vhqztL4b3PiIJyNwAAIlJJREFU5sI9fdRy9tGyZhSkcamzEpSx1mcAWHGrknVsCdSgrWGqjOmvYe2hM6z9cGqqPy4V8THEgk/Uz9EFNjwme8pR6DmwwdaFt3WWez+SMeriwqIJQISquyjIugc1ng+fvAhUBDgCFQ0F5fnGfGh7TAjT4I9hq+LenQ92oh94y8E00ltvvWX3D19YXs1SeFY8ATwAL6aJyYAN8djDABBxfNPpzTfftOkrrtHGOKCB7z51BJgknGvKYVk3ZTClxXTY9PR0eOPHb4SfvP2TMDU1ZVOE1I887hzMuO/hlV9xoOLAyeEAQzSYZFA/Y/JPDWr3+LHhsLDcq0UoGi8YxjX22FhO4sagrjiGEwsjPDoubZSxcM7Ww6nx/nD5/JnwgxcmwktXRsLE6XpYl4bojj6x8LdbT8Ln37AqVF/p1vSWhjM5rXLSeMXLuVbBZBR1zrIo29lYn4QR/aGRIb1UjuqTQv1hdIj93JSEum5zRWHbEh2+AG53l1U/2sAmexQILAc2TEXxcJeWl0xbgNYmFWjOqcLnX/BoixoK9BCoHC0aGzdMVdPm77hpbrhvPwAK8MZ5yzmb86G9QXvFNV/odo0MRr1obdDK4DbUYdF6uVYHOnzEEmDktAE28JdrQIyXB99JzzPHtsbBE1NghLE54M9/8XMDSRgjOyDyxwsdnPseXvkVByoOnCwOMBIwgzMgITqmceG0Pm0weXo8bGp6iNVJcaiIL8FNIYvE5QVPvglfEXBfoTbuQ1halR59JOrs6dHwxo+uhh9cGw3PndcLtgyUlxT/zf0n4c8f3tIL4Lxe7pakHNK4qYNVm6x2QjNjtjTQkmM3HCtXmhoNiWF8bDRMToyH02N1ARvIUk9LGqtjp1aRLLBBKF4f1l94icuqGy86/TbvE9lwJIGN32/zVqKQQoC5EEQgPpHxKFoVs2xP+IJA8yMJbjlN4/MCEIELYMI4lXIQ5gjsc+fPmVYizdtC9Bhc0Gg40NywRNobn2tysDfCRoZN+tBisRnec9ekftUHMQEZpINnaLyYomKqCkCEfQ08BJjgKMMBDvx0YEMcZRBPONOO5EXTwzX5mc5iKsq/Bk6ZxOHyvgVWPxUHKg6cSA4wKqDLZ8ct9u2dGBkMl8+Oazp9Lsw81PcG0ZCgKWG88cGu4StjFqeBRReGbuSnbiuMSB109VxdNjbsQBzCXRkGf3v3Sbj+9YymnyRHtMOwlu4qNzY1gi5oxRljmQpjSgza+se2JmxqhkBaoEEtET8/OR6unJvQDsYDYUDoDGGO9omatDoyt4bs7xUl7rSA1lq2Xm2vHXyxQ1HFaVvLP5LAhtsuujkaAAdCcF3LvM3GBmCjRuJtztqf8a0zuLFyMpouEAlDMANqOAA5aCiYRmEqBmGa1xBYccfkB17aITXpljZpgC9cwwccYGdyYtIOeMLS7TOnz9iGe2yeR6cF1DgwxB4G+5y/+7u/M4ACLX+OAJi8Iw7w4vUAPHEApjBgJg9Ak2fgWjUHu/i49Fnm6VfXFQcqDpwcDgAEIrAxCBEm9JXtK+fG9aHKJzLOlWZYkAdDYkmVqNoxwYM84SQTpkhcnMKifGGMbMYPyyD50kSPdivuCYuyqfmblnP/+f2bKmNBL3bLmm3SZn81wSq+6K18W1reFFc/AapUNnabKn5TGwFubWTARhv7XZw8Fa5ekJZchsO8DjqocQDQEJJZ9ayO+/3j91kkkEvLInEzQ8tVQV2bKdNcpcQtwiRHgxHt0xbGFtSjMF1ZYFrpsjT58HwekDQ7yo4IYAxi1i7huCDQwWobNn0zBJxlcoGIESsCEUGIUCYNB8IPDY9fU7YLQvISjhaIL1ijcWAqxNNYui4Y4vQs4xH7cdDGPfgfbbQlnDgd2Dvx7SbAHku+CYOH2NbwbSnsYnBoddCyMFXVrUt5yDn2Oxgdc95YeZURo25peuqQd2l8Pu6oXfv90VaxOWLKj/bKNTZOaLgAf7T12dlZ28iQKVy+o4WNmD1LsUjDa8dbd75530h9lt6zPxEbN9JneC60CV4EHGx2LKBKUHHggDlg4EZjGOs1J0cH9LXt0XDj+8EwrO8/rUkPop3KFKME6g70IQkI6xuIlB5NG+F7GO0/jotEKp/Ayi2tePr9Ozf0KQYt+BZouS0tzT2FLUhTs7khI2JWPmF9bCCBfIyfXiZaG0qI2hs2+RuS1J7Q5xeelwEyx+igwa6GxibLGeulnHaSdWWR3l9n9Pab6PYqNkvgzI/t6TyktldQ03no86K2+52rtz1PUQiDa78sp0YFVBzYoAlg19m5h3OZSi/mRKbROFNgwzUABYCDNoBr9rvBh7YLbRotafLAhnQ4H9R79Z0Ry9N8GrHwI/4LL1zrkd4KHbko3LUpaVrOeS7vvPOObaYHTfa6QbPjwCSfvuyavO4AqK7h4Tng/Ll5muPsc89+39ynX6MZSwE+wAZNmu8KjX0Smq2hbEUfAJS+4WC/E8/8GdAHyIM20/qPrjEM//Of/2zTjcRB122waC+et1MZVXzFgYPigI8gvOEznEzKEHdDoOKz00N6Ue4Pi+vSomxo7xrNIWHMu6WZABvvlZiXgD69NBnuAfXY1FHEJzY0AVQ0xfSdVj3duP1IJWiJNuksj0q0FU+CUwI2UcOjU/3F3YY9DJgCmBIp0QfYDMvweGK0N0ydj4dwjVUBzVPUSesk7/xGFZ6c5lPt4fpgqBZXiLL8KE7B8zzSDqHKf63OkuuRbAWMtDBqgAycNEY25OMaQXdZb6u/+MUvwtlzZ7W3yUXTFhDugIYBlzfKN958Q5+iHwwAJAQ0diAIC9LSsLEN4UAokAetBG+89nFFNfgDaj1H+lkh9OAXGpvPP//ceMsbPMKOA61L5XbGAQcw3jbZS4kpUdorQI9pP7Q1bg9GGNoZtGNM3wHS0Tx++tmntrqM9kt7ToENtMtACOFeBwc07rOMH40R/Ynnyw7QaOaoG/TJe5LA586ebJX6aXAA8YgDPuCGhTPOaAfiF69OhLnFnvDVd3Phhuxh9CqsQ+JSy797NTuAA7yAZaINJ5SgwksV5zrwMqixJbAEqCHWMpIWAoSapsYSE9twFoLmgY34NjUzsLEcBuobYfrKxfD6D85rB2O9yCsRtQHQ+D3EchtkTuTJkQc2PEQGSN4Ge0bY/Td+LwoBitviTZK3SA2kvUrHoP+zn/0sjGugPX0m+9KzBnIfYKHVo6+Fs6kc0yg+leXAhkGfgRxhQRzCmjCEsk+3nMiW1MVN80zQIDA18sUXX9i0BHxFUwPAqdzOOUBbdJBAboAN3+9CI0OfAFjQVgHogBhfcg+woS8AMllu/+WXX9ozoR/QBxzYOGghrJPztPiAG/JAj3Iw5mbzRTRz1NHBj/e7TrSr+IoDB8UBWjYHwGBYe8Gwy/D05Ql9zWlEfWdeU+bzAiSygemV/aSAf0+fdiBWBut7Gv/xbWdi6yNMRRl8iVQtDBAju0CFRCcZEwkoTKEGXojN9THC0dZsas+azRWZ2yyHIRkNT2uDv9devBrO6RPhvAq2gJpYwIn/PfrAJnuEphbU2+iIVO28ifrbIm+sNsDyLQ01pvMXzttg2y8ggkaGt1caJu0rw9OW3o2AEQTE89ZpjVHlcc1BHGUhSND4ePyJb1UlDEDAsp8Nmi54xRs8q6cQepXbGwesDYsEGhk0jLRXn5oDUDL9x/L76elpW33GJzAAF0xTcQB80Op4G06BjdfM4/y6kw+wol8AaH784x+btoZ+xYsAgKYCNZ04WMU/NQ6AIXDye6XlPzcicH+hLzx4blQvB6fD/ceb4eGCzBM0FYQxscGgTNNicETjGVjFnJ+4nwU3EyjA4shAwTosb6wEcqiHFVCy7glbmhHQRzMH+jc1ZT8Rpi+OhZevjoarZ3rCqCyG+cimTxB48cq4ZxdrUk7Gy2qma56V50pjmvAvDe3unLL8KM5xfICNGgoDJjYEFy9dtDdVBChvrAzgYBfAz+TkWVuxYw1JeVwgOFiJGsJojApwAfjgiIcOAz5aGnwGbVTsGL9yXrn2HOBZoCFAc4DwZQn4P/zDP9iKqfY5q9huOeDAhn7g4NyBDYa8xGNjMzU1ZYAcUAPo4UWAjQ5xtHUHNt2W66AHH8CCT/kArFdffdW+9s4zr1zFgUPLAWSlQA24ZWJY3//TpwpmtffM4or2wrqlz/NIa7K6rj3MZH9pq5cANr7lMDfl0t7O0wvikmvO7ZoCcVzLMxsdq4TENuBm1Y7+vvUwNtwrTY12Lp6WPeJlLQA4pa1NlFRffzAb5ZS8kdyHH69dGSm/o6gQ6JQ6peI507BuzynHj/I8xwPYGE8jYxk8r165GmZnZu1NlGmP69evh+enpgzwxLdEa0UNUCOsbQCcD1taG0taiQMfWIhARjBDD7pcs8JkdGTUljkDfNIBvpztJzOGaSeEHMKVaT7O0dYghBGkLhBPJnd2d9e0NztsZNR8u7Qk8BMtItM+tEnaKsCFVUquWbx27ZoBHNIzLcVnMDjcOZBnDLFBNukTngafdPQfXhrybZ/nzAF9XjqoS6WlSblXnR8WDrgI6aM/SbnPfjOseHr+/JjOpWGsP9GmefPh7txKePh4ReBGnzrQYd+SMiAf5U9EKNxVlCV+f/QR/qPjxC88XxYlcMP3pWxzPwGpet+GlnSfCVNXzoRXp8bDy5dlHzda1/QTwIdD+fI2Ok46I7kbrxOJGB/r3int9vJb7znmz6jgtUZvz94xJO7p0zHZoU5gD7bJCVZGMWjzrSJWOgFEPvvsMxtgx8bHbPqIwZYB2QblTDA07lGkCHfHuWtq0AABaqCHsOBNGI3O+Cl90EwDdych4DRPqu9GwqyCwoYJuxoO+Mvhz+Ok8me3920bJWaZaYduZ4NGjCkmVj659hLwQbuF30yjolEBCJHPgSVpeBZ26A3WnAYcBy6NenpfURx504O0nh7Q6hqgNLxBpzqpOHAIOEBLV7MNfHIJrFDTxeUJGegOD4a1Ta0U1NLtzc3ZsKJPe2+qD62z+rUmKxcyxcE/O+ca5z6nyTnh9B1Lo5+GvAHUCPxr+qlX35eq1zZsKffU5TPhxy9fCS9f6Q/PTWqbEmXvI0/jKFgLlRbn5ezQb08i1n73E0qNu1et2pfk1bZUyobfPkce2KRlOTX321PyVDvy2xUHoa6LTBrNmATlCy9MmzEkgyhqdpacMsBj48EHEdm6n4F2XYcPtD4IU64LWMIYrHmTZc8VDF5R57MHC2/AGEWieYAewoS31sp15gBTfBgM+/Sd8zl9Bp2plKfYLzrlJRyemNY3wVgv7h/tGLsx+3Jv9qvB3oxPWxAG2GFlGkbGPAsAOgcaHIA/LwUAIGjlD0pxHvuu3rR9+gDgFaCE5hSw5H2J80aebCD368PDzaomJ40DLoOwmokK+zixgiaE0Rzj3FPS3Lx8cdiWWQ9q7qdfkayUmtEHK1mYsqUl3T19OrSRnqMVo6uXB1yPZIgaf2z/8lnQwmKWBqCRloZ+1CfafX2iLzLDMhKeujKp47Q+xXAqTF/qD5MjfSrbJhdUjOihKVJfEkk5vxPO5XKXMTD53bOo8gLcT2jv5tTJmPYpIWD3Z6OcPY+iW42pW2+oORXlhBOaT+O0U7Gt1c3VqCAzGhuAxuXLl2zQZuUS+2kwmLOsFXBDY1zT8u+19Thw+5sq1BmI3RHOgIxRJWr8Dz/8MLz33ns2xYVwRt0/NTVlxpgDgwONgdvzV34xBwA0DmpI4YKzOHUV2pYDBR0EfgJWMBAG0PANLdoyYIb2j49tDQAdrQ0AHSDEgV0M4AYwD7ghn/cPByLp86K/EA8YwtaMqUWeLSCHvoNL06f34qAnDavOKw48bQ4w4iNPzde5gQX5giOhrsBRfbdpcKI/nBawYPdfqW2UGNmxHhZWesLKmoCKpo8yGAMFs9XRSXQIZzvLCiG/vgMVdxeOcX0CSwP6htRAf68+kSAQoxVPr714Xsu6L4ZLp3u1Akorf0UDgQ2tCMIi1TgfRaAOnPvxig7oZ02fNAXBzQTdnEEkX1g3+UrS5EFNQpuqOti08yRu+434t6K6qZszwtPumSklN7fH4JoG5eGRUdkX/CD87re/DX/961/DhwI2LGed0yDPVNIf//j/TFuzJoDDoOsDN0Uz2KKmd0ccxsIIBIQEPoCGJeNvv/222THwlsrAXrmKA8+CA7ThFJBzDrigXfK5CkA4wJwDzSNaTLQ3TE9hJ8Zyb6akfCUVgMQN5Gn/HD5ViO/nlEtaNDSAGj5pwT41PrX1LHhRlVlxYNccQKZFxIAgsIMtQnRi4SO13vDSpZEwNlKTucNo+P6hTB1mQ7h9fzHcuv0gPH4yr7QC8+xZY/l0qeymb5DRjmtq0LTUtWScj1xu6BMJgwN1vVAM6FtSQ2Hi1JC+AK6VhJcHw4XTI+GcjITHpTZiaQrGwhyQdvINcEJ9zVHfDq6LJB0oHPpophO7d/BuRxm6J71fKRloOZgi+vVvfqOvSMt4UgP3ojQ2AJMHWvnBwMw01PqGNsvOBm4vH6GQghsHPgAX3mQRFhhl/v3f/3144403bNdcBAJlkq/RoJ1g5VcceAocoN3R/tx5e0WDgk0TU05uT0Obd43M2uqanQPYCYeO04KehzmgwWca1+PQ8ABqADOkpQzCiE/r4/Wq/IoDh5EDiDXrPTqxFU92jTZFU0TWJ9jjRhu8TgyGiTP68O7GeLi/qCmp+1vhmxuPNGW1EO73a/d66VQ2BY60cEpyJr4ko5mx/oCWRn2HzWT7B+ivMkCWnc64djs+PT4czp2R0f/EmFY+DYdXnhsSmIlaGtfUoEEyrQU/OOpqoCvTCHn3T2V0AwHFLPv/2+Dc3klvI5UL0KXfYnbHpWUeWzXDqdOnwosvvWhvruyX4stZZwVsZgRwNkDLGqQZjDlw6YDugzeABUCDah31vi+VRc2P5oZBnPwM+OTnHL9yFQeeNge8/Xq5DKa0Xexd6APuA8iZon30UN87e/LYpmjLgIiDE2jnDzRBGH8z9fvKK6+EqakpA/4OgtL0XqfKrzhwWDnQEKPZ8M1uweYkTWnLcWJVIYo/remp/qEQxs/1hKva8f5Hl54LjxZX9ZHLnvBkaUN9ig/9Ltt2I5g88Imeem2osXgFuTKgD1mirTl/ZiBcnBgIIzrnmByvhWGVh3CmTNPUxGL1G8GWYBPVMBctUHSqPFY5j4jRWbhftPcdOHROlS+kfY72sXFsaWjL0sS6J+rEHAoH5yjVOtWzRoL9rGKk1qlYFXrAblBAhAMNyw+kYbmjVUzYFbBKioNPwm9mb6RFwIbBmUHdgQ1voryZTk9P2xJvDC1R97tAIH3lKg48aw4wADsYoS60bbcHQ2tz+fJl0zjOzcZPgszOzdqUlIMRb8/QwXk/gI4f9AnOAfWAfWiyAotzRhz6ltfB6Rix6qfiwBHhwFYmUOkFdAXzs7pzLlwThmTJe1rqlEuaK1qVca/wTHiiLx88ml/V7ACfKlmQfWY9rLKCSpoa+iFypKb+Q78Y1vTT6PBQuHCmrmknzQiIJmAGOMUBqMG3stWv8HFR1CNjXc56KotUAk9J6p07p1qeE/qk2ls5Tj8CswJaWZDfqfkKi9qagvROUH4ttddpnzTJZcSbbG3GQMFvGL/MeUnul6XrEN4mu3+h2wZgNabzFy/YrsRXtRQcuwJnEnOocR61tSxAD4MzRUCDN18aJoAG7Y3b1PjATRrO/bqVWnVVceDpcaCoDRJGG6b90o4BIVdXr4al5SXrD2Vtlz6QB+1OH4ADuEcTRJ9wUIRPf8B52qd391VJFQf2xgGTDRkJxn+TAYk41UhvgINX2Sak0Nivi3r/Vhgdq4ezmmpa09Ls9fVRLQvX9C2yRH2iJtuaPq0gZHqrptVWdZk4DAnRYENjGhoVxkwTOwoDnqDfqI9OqEszhJhMDscIT2Dh/uNRjbQeUeA3yiqIS4MiGCGEHGkJaaruzqOUjWkblBonsQTT2CjMAWeneprGhnoZncin9rWBuFKUJ4USse6XkbMSyyJ3HJ6vD9emkdHgC0Ieq8et5uMAruaS3UcRsHFa+Bh82bxmsgFZvnJlQiGfrrquOPCsOOBLQwekZQHYeJtlOpalp66FydcvBSv5c9IaHQ3Y5Mdp/JYD4Eefy/KeXh5D7spVHHhWHChrt7RYb7XuU0fOASID+tnS0TMIVIm70SOUpcyJclMdRPoaS0uexqECATEc9B2TOVm89SnrVzEAINAEFgozp3Jjp/OAFp9y3Dkpv96bn1LePaUifhPGwVZa8NCuVZzdp91redkR2Hh9ytN5CvMpoL2DEKnKCJaFt1LtXE4zvd1089JaR68GWwZeoyO/J7v2ZFYLj/dA+Wm55Oc28o2muztIiCanKf0kuDqtOHBgHPA+4AX4mw/tG1Bi7dwjE9/D3Qfc4Pj1dhwHWe9nFq3+gr+XXhLpVL8VBw6SA8023FqKt1z8eHhIa7p06zJP4TQ9JddmzKoT+p3R04/5Dfq6zgh4PPnJ22JTYvnpa67LgYDBIU50bHdpfdLz7SljSDGVstS7Dy+qC2XbPWdk/bypsVFExwpKG5YS9/OO+bq6l/2h4nXqVKQzoJGOVqKjEZ5ck8Zr14hPwho0LKGnjAxvidvDRbf3tYciqqwVB4o5QF/InAGW7Lq0TebTe14nIj/DO9bnkmA7LaebT1ldVxx4dhxo9opmHQjz8LJ2TLzbwxSlaYRlhPzaaVtwFkfJHs65pVVAEp2BI0LylMhR7DxlceyzC03rxTBj40h2s8SlB7VspCdNlo7whssyOJBshKcnRfnS+MNy7jdfVJ8GI4oiS8K6ue/d0C0prgquOPDMOLBv7bibTvPM7rIquOJAdxwoa8bt+onncb+spHY0PE8RDQtrici0o1mm7dNSTu3gfK9ON/dUWIssY/7eUpvfmI+EzTv0chuIp5B4piHzuEYmD9gnfz/o7paB7cpuF9fNre82/27vpZs6VWkqDuyUAzttx1X73SmHq/RHiQPeH6JIbdbcw5shzbOiuHw/IU0+rElhN2dFpRbT6T5lcf6i0F3TzDNB18abHEHgG0nxgTZEm+1Rw+goT6hZS9PYWAYj0IzYjzOvp/t7pVl2G06/KN7jispuF1eUPg0j717yF9U1pV+dVxx4GhzYbTve1n63BXRR+710oC7IV0kqDuyFA2nzfKb9pNNNpBUtSLvbuheQ2hYE0NiVy+XzW8hrbBzUYEXEfj69AjUxLF1Ltb0GBmy2BxeHeOHFsfnQWPPiPMWheQrptefI8aORxOMbAR1OdpK+KG1RWIciW6L3mr+FWHVRceApciDfdumT+bCuqqOMiflOV1mqRBUHjgoH8n1i1/2kixvOl5VmaReXpntq55kQB6DkHXqZZmgEMbZyWQmjtgY/hufzptddAxuY0z2DvGrup0Vm53loVpCkEZQV7OWXUfV48sU08TcNb9Ds8m7IW5y/SWmnZ/tNb6flV+krDuyVA9vbcFmvbFdSc+68XaoqruLAUeXA/vSTTnf/DPuR32C+++evS2+B9U7RZZNNdkF2J43fcigyLocXwPFEkUTjt7HzsGdsxOROmvm7qTFp2qRrE5Urdttlsx4xqowU6Zihy6dPCbaL83Tb0pQV6Bkqv+LAUeLAtgbeZeWTfgCJ+M2aLvN6MkannbzgeL7KrzjwtDmwX/3E7EP2t/Jtq9Y2spt6dCCQjAPtRH5xSWT2gxT5siJxQm1xuzYD2trQUu5a3CzX984iZ961LPfOk21J7DdgifyiJUV2kVY0iW/JwoWX5n6StsNpPkcL6SSvK7UK5wFFJE8nydr+NGmcVnZZBUqolKHMkuRVcMWBA+TAHjpC0g/ioLbDjmA9cKd5DpAVFemKA6Uc2EU/8aa9535SWilFIMW8oKJ0u6h3SsZIU0aZUwIv3v2WpGV5SazDhHN2zr3Aq0aVyRt3eSaZvlkd1vUtrv7+wdCj73Oxa3OZqymt1cu3+MknbFSLE8o31wj1gMwnQVlcLqldknYn6VtpeHXyfkyFtka0PbI1a+RnG4RRVit7M/V8om3kC5FTrsDk0upVVkCSrjqtOHDQHIjNcOeNcVs/2DmJ2D93ke+geVLRrziQ58Cu+oky2YaWqbzY9/aeTUO1oZulyN9Sd9fQLZGhkYASIP9Is60O2wIaZUaSxJsuphHuJ8THr6z32K7Da/r+3NLScljRMard0/u0qfPgAN8/L3a1VVGwzYUKUhDUEmwXLSE5qm3i2kTliHR9aTefpAbsEYbr9DDbVYe4snjfsdUKyX68zDSs3bnRLiugXcYqruLAPnOgXVtvV1TVD9pxp4o7ThzYbR+BB/vRT9rxsiFGGietqfdS9walEtqNeKRlxzTN1JyZ+a9NQ+ekZ0JnQ1EcJFvWdxUWFhfC0vyTMDY8EMYHh+0joiRPsjQKqf3vZ7fD8IC+v55WLivLM7jfhA2N/K0nnjBX19ZE+3PlRbgP1fS8m1IcSDfSJgS4Fb8djyc6SWIXLdeesAt/W9ld5KmSVBzYbw4UtfNOZVT9oBOHqvjjxoFn3U/a8dPkVF5YJRl2U/cku07bEN+FALTxQyRN69soKBJy8xGCDdhsbOojvUthYWkpzDxaC1urm+HKxEi4fHY0nB4ZMH1Pg0RyUvvD/34TTp85p0J6dTRvwM5aKm3VSbImp0ocK5RkSE6TlAWnlKSj2/T5pPnrpIQ4tVlM2L99kyS3U2rTri5GLZkzzV/n6RVdl5VdlLYKqzhwkBzYbVvMt/v8dTd13m3Z3dCu0lQc2E8O7Lat5vtFO5m0q/rqDdlkVlnmTvFl+baFU0qzpCgnM2hiN7ktQxLQzGeBuiTnlqaw4toBCJgOJ8MRdmlpNtY3wuyDe2H+8cNwZnwsXD5/Ojx/7lz44dRkGNTX0ZltylG3ImrrWm11f+ahiABsmO9qda2Z/A7cT9N6mPvFBaY5Gil2sDLCqCeVapbWStnCEwDSGqurDg88KaIla75h5q9bEpdeqDGWFVCap4qoOHAQHNhdW8y3+/x1dzXdXdnd0a5SVRzYTw7soq1KCEX5lP1GobSflRKtTvXqFN+pOi6o3M/Sx1vSDfpJOzrkbeY3OASoUSjgJnIpAhvnGJExh8J762Fy8myYvnRKx+lwXhqboXqffVi0lXKzDrXBgYFw9/6c6PTpaAU2zao0M3gl0hA/94o0KucRpX5ZtUozGDPS2E5s9a8Rp3k4b4fAi++7SSFPM3/dTFl81q7s4hxVaMWBg+HAXtpivt3nrzvVeC9ld6JdxVcc2C8OCBq4lN0VyZZ+IYEVRfquSG3L1KkPdYrfRrAloAv5bLikkxTO0TEBCxcyTqTgJgFK1L0mrczFcxPh2sUz4bWpU+GFS6NhQGFO0Ui11Dle1H756sXw+NqYrlqnojxtccZ2N9Iuzqm6X0zdYzv5OympE618fFnNWsq0i5aQPJmSa1EvK6AkRxVcceAgOLDbZtjS6qt+cBCPpqJ5iDjwbPtJJ0aUy5Pd1rtZYgcKLQNBM9f2s1Y6Ng2lvGQ3MxaLTo1hIoW+3t5wamw4nNFx8fRQGK71hT6lRQXTqobJSlQcpHoebmwKUHZduyx35VUcqDhQcaDiQMWBigMVB3bHAVBHCj0wzwCU5B2am15F9CkWUGOruJNE5Mnn61mpYE3Couq04kDFgYoDFQcqDlQceBocyAObojIduOR9T5sHNYT/f8i//Kdm8YIvAAAAAElFTkSuQmCC;" vertex="1" parent="1">
          <mxGeometry x="380" y="239.85999999999999" width="120" height="68.27" as="geometry" />
        </mxCell>
        <mxCell id="ooKPWK_DovS1aeD83UMF-30" style="edgeStyle=orthogonalEdgeStyle;rounded=0;orthogonalLoop=1;jettySize=auto;html=1;entryX=0.458;entryY=0.167;entryDx=0;entryDy=0;entryPerimeter=0;" edge="1" parent="1" source="s8LqLsXQa88JxTWQ-div-9" target="s8LqLsXQa88JxTWQ-div-11">
          <mxGeometry relative="1" as="geometry" />
        </mxCell>
        <mxCell id="ooKPWK_DovS1aeD83UMF-32" value="Power BI&lt;div&gt;&lt;br&gt;&lt;/div&gt;" style="rounded=0;whiteSpace=wrap;html=1;shape=image;labelBackgroundColor=default;verticalAlign=top;verticalLabelPosition=bottom;aspect=fixed;points=[];image=img/lib/azure2/power_platform/PowerBI.svg;" vertex="1" parent="1">
          <mxGeometry x="520" y="440" width="120" height="60" as="geometry" />
        </mxCell>
        <mxCell id="ooKPWK_DovS1aeD83UMF-35" value="Validations" style="text;html=1;align=center;verticalAlign=middle;whiteSpace=wrap;rounded=0;" vertex="1" parent="1">
          <mxGeometry x="410" y="308.13" width="60" height="30" as="geometry" />
        </mxCell>
      </root>
    </mxGraphModel>
  </diagram>
</mxfile>
